%TF.GenerationSoftware,KiCad,Pcbnew,7.0.1*%
%TF.CreationDate,2024-02-21T00:56:43+02:00*%
%TF.ProjectId,PCBTRIGGERASSEMBLY,50434254-5249-4474-9745-52415353454d,rev?*%
%TF.SameCoordinates,Original*%
%TF.FileFunction,Legend,Bot*%
%TF.FilePolarity,Positive*%
%FSLAX46Y46*%
G04 Gerber Fmt 4.6, Leading zero omitted, Abs format (unit mm)*
G04 Created by KiCad (PCBNEW 7.0.1) date 2024-02-21 00:56:43*
%MOMM*%
%LPD*%
G01*
G04 APERTURE LIST*
%ADD10C,0.150000*%
%ADD11C,0.100000*%
%ADD12C,0.200000*%
G04 APERTURE END LIST*
D10*
%TO.C,Q1*%
X125946285Y-106542857D02*
X125908190Y-106485714D01*
X125908190Y-106485714D02*
X125832000Y-106428571D01*
X125832000Y-106428571D02*
X125717714Y-106342857D01*
X125717714Y-106342857D02*
X125679619Y-106285714D01*
X125679619Y-106285714D02*
X125679619Y-106228571D01*
X125870095Y-106257142D02*
X125832000Y-106200000D01*
X125832000Y-106200000D02*
X125755809Y-106142857D01*
X125755809Y-106142857D02*
X125603428Y-106114285D01*
X125603428Y-106114285D02*
X125336761Y-106114285D01*
X125336761Y-106114285D02*
X125184380Y-106142857D01*
X125184380Y-106142857D02*
X125108190Y-106200000D01*
X125108190Y-106200000D02*
X125070095Y-106257142D01*
X125070095Y-106257142D02*
X125070095Y-106371428D01*
X125070095Y-106371428D02*
X125108190Y-106428571D01*
X125108190Y-106428571D02*
X125184380Y-106485714D01*
X125184380Y-106485714D02*
X125336761Y-106514285D01*
X125336761Y-106514285D02*
X125603428Y-106514285D01*
X125603428Y-106514285D02*
X125755809Y-106485714D01*
X125755809Y-106485714D02*
X125832000Y-106428571D01*
X125832000Y-106428571D02*
X125870095Y-106371428D01*
X125870095Y-106371428D02*
X125870095Y-106257142D01*
X125870095Y-107085713D02*
X125870095Y-106742856D01*
X125870095Y-106914285D02*
X125070095Y-106914285D01*
X125070095Y-106914285D02*
X125184380Y-106857142D01*
X125184380Y-106857142D02*
X125260571Y-106799999D01*
X125260571Y-106799999D02*
X125298666Y-106742856D01*
D11*
X127850000Y-104600000D02*
X127850000Y-104600000D01*
X127850000Y-104700000D02*
X127850000Y-104700000D01*
X127850000Y-104700000D02*
G75*
G03*
X127850000Y-104600000I0J50000D01*
G01*
X127850000Y-104600000D02*
G75*
G03*
X127850000Y-104700000I0J-50000D01*
G01*
D12*
%TO.C,LED1*%
X128900000Y-109000000D02*
X128900000Y-111800000D01*
X126800000Y-109000000D02*
X128900000Y-109000000D01*
X126800000Y-111800000D02*
X126800000Y-109000000D01*
%TD*%
M02*
