M48
; DRILL file {KiCad 7.0.1} date Wed Feb 21 00:56:51 2024
; FORMAT={-:-/ absolute / inch / decimal}
; #@! TF.CreationDate,2024-02-21T00:56:51+02:00
; #@! TF.GenerationSoftware,Kicad,Pcbnew,7.0.1
; #@! TF.FileFunction,Plated,1,2,PTH
FMAT,2
INCH
; #@! TA.AperFunction,Plated,PTH,ViaDrill
T1C0.0118
; #@! TA.AperFunction,Plated,PTH,ViaDrill
T2C0.0157
; #@! TA.AperFunction,Plated,PTH,ComponentDrill
T3C0.0394
; #@! TA.AperFunction,Plated,PTH,ComponentDrill
T4C0.0472
%
G90
G05
T1
X3.7441Y-4.0906
X3.7795Y-4.0906
X3.7955Y-4.0415
X3.8071Y-4.0906
X3.8189Y-3.937
X3.8346Y-4.0906
X3.8976Y-3.8976
X3.937Y-3.8976
X3.9764Y-3.8583
X4.0071Y-3.9165
X4.0236Y-4.0846
X4.0669Y-3.9449
X4.1232Y-4.0366
X4.2244Y-3.5748
X4.4173Y-4.2559
X4.4291Y-4.2835
X4.4449Y-4.2441
X4.4449Y-4.311
X4.4606Y-4.2717
X4.4764Y-4.2992
X4.5276Y-3.5748
X4.6654Y-3.5354
X4.8858Y-4.1811
X4.9528Y-3.6378
X4.9528Y-3.7126
X5.0699Y-4.1584
X5.0709Y-3.8169
X5.0748Y-3.5591
X5.0766Y-4.1163
X5.0945Y-4.069
X5.126Y-3.7913
X5.1772Y-3.5591
X5.1772Y-3.5996
X5.244Y-3.7087
X5.2661Y-3.6809
T2
X3.6693Y-3.9803
X3.9449Y-4.0354
X4.0Y-4.3346
X4.0Y-4.3701
X4.0Y-4.4055
X4.0157Y-3.5827
X4.0551Y-3.6614
X4.0945Y-3.5827
X4.2038Y-4.3425
X4.2126Y-3.7008
X4.2426Y-4.0969
X4.252Y-3.622
X4.4094Y-4.1339
X4.4882Y-3.8976
X4.4882Y-3.9764
X4.4882Y-4.0551
X4.4882Y-4.1339
X4.6378Y-4.4016
X4.9803Y-4.437
X5.0945Y-4.437
X5.1181Y-3.8976
X5.1181Y-3.9764
X5.1969Y-4.1732
X5.1969Y-4.252
X5.2362Y-3.8976
X5.2362Y-3.9764
X5.2756Y-4.1732
X5.2756Y-4.252
T3
X4.6161Y-3.8976
X5.0039Y-3.4488
X5.1039Y-3.4488
X5.2039Y-3.4488
X5.3039Y-3.4488
T4
X4.9528Y-3.9024
X4.9528Y-4.1024
X4.9528Y-4.3024
T0
M30
