%TF.GenerationSoftware,KiCad,Pcbnew,7.0.1*%
%TF.CreationDate,2024-02-21T00:56:44+02:00*%
%TF.ProjectId,PCBTRIGGERASSEMBLY,50434254-5249-4474-9745-52415353454d,rev?*%
%TF.SameCoordinates,Original*%
%TF.FileFunction,Profile,NP*%
%FSLAX46Y46*%
G04 Gerber Fmt 4.6, Leading zero omitted, Abs format (unit mm)*
G04 Created by KiCad (PCBNEW 7.0.1) date 2024-02-21 00:56:44*
%MOMM*%
%LPD*%
G01*
G04 APERTURE LIST*
%TA.AperFunction,Profile*%
%ADD10C,0.250000*%
%TD*%
G04 APERTURE END LIST*
D10*
X135000000Y-109100000D02*
G75*
G03*
X130800000Y-113300000I0J-4200000D01*
G01*
X122200000Y-85900000D02*
X122200000Y-87800000D01*
X96200000Y-85900000D02*
X106000000Y-85900000D01*
X109497281Y-86500011D02*
G75*
G03*
X113977672Y-85900000I2200019J600011D01*
G01*
X136600000Y-108113116D02*
X136600000Y-85900000D01*
X125200000Y-87800000D02*
X125200000Y-85900000D01*
X135000000Y-109100000D02*
X135600000Y-109100000D01*
X129800000Y-115200000D02*
G75*
G03*
X130800000Y-114200000I0J1000000D01*
G01*
X113850000Y-96250000D02*
G75*
G03*
X113850000Y-96250000I-1500000J0D01*
G01*
X106497321Y-86500000D02*
X109497321Y-86500000D01*
X100700000Y-115200000D02*
X105200000Y-115200000D01*
X110500000Y-106400000D02*
G75*
G03*
X110500000Y-106400000I-1750000J0D01*
G01*
X118000000Y-115200000D02*
X129800000Y-115200000D01*
X96200000Y-85900000D02*
X96200000Y-87800000D01*
X107500000Y-96700000D02*
G75*
G03*
X107500000Y-96700000I-2250000J0D01*
G01*
X106000000Y-85900000D02*
X106500000Y-86500000D01*
X100700000Y-109400000D02*
X92200000Y-109400000D01*
X135600000Y-109100000D02*
G75*
G03*
X136600087Y-108113116I13100J986900D01*
G01*
X122200000Y-87800000D02*
G75*
G03*
X125200000Y-87800000I1500000J0D01*
G01*
X130800000Y-114200000D02*
X130800000Y-113300000D01*
X92200000Y-98800000D02*
X92200000Y-109400000D01*
X92200000Y-98800000D02*
X96200000Y-98800000D01*
X113977672Y-85900000D02*
X122200000Y-85900000D01*
X100700000Y-115200000D02*
X100700000Y-109400000D01*
X114200000Y-111400000D02*
X105200000Y-115200000D01*
X96200000Y-98800000D02*
G75*
G03*
X96200000Y-87800000I0J5500000D01*
G01*
X118000000Y-115200000D02*
G75*
G03*
X114200000Y-111400000I-3800000J0D01*
G01*
X125200000Y-85900000D02*
X136600000Y-85900000D01*
X112700000Y-101800000D02*
G75*
G03*
X112700000Y-101800000I-1500000J0D01*
G01*
M02*
