%TF.GenerationSoftware,KiCad,Pcbnew,7.0.1*%
%TF.CreationDate,2024-02-21T00:56:43+02:00*%
%TF.ProjectId,PCBTRIGGERASSEMBLY,50434254-5249-4474-9745-52415353454d,rev?*%
%TF.SameCoordinates,Original*%
%TF.FileFunction,Soldermask,Top*%
%TF.FilePolarity,Negative*%
%FSLAX46Y46*%
G04 Gerber Fmt 4.6, Leading zero omitted, Abs format (unit mm)*
G04 Created by KiCad (PCBNEW 7.0.1) date 2024-02-21 00:56:43*
%MOMM*%
%LPD*%
G01*
G04 APERTURE LIST*
G04 Aperture macros list*
%AMRoundRect*
0 Rectangle with rounded corners*
0 $1 Rounding radius*
0 $2 $3 $4 $5 $6 $7 $8 $9 X,Y pos of 4 corners*
0 Add a 4 corners polygon primitive as box body*
4,1,4,$2,$3,$4,$5,$6,$7,$8,$9,$2,$3,0*
0 Add four circle primitives for the rounded corners*
1,1,$1+$1,$2,$3*
1,1,$1+$1,$4,$5*
1,1,$1+$1,$6,$7*
1,1,$1+$1,$8,$9*
0 Add four rect primitives between the rounded corners*
20,1,$1+$1,$2,$3,$4,$5,0*
20,1,$1+$1,$4,$5,$6,$7,0*
20,1,$1+$1,$6,$7,$8,$9,0*
20,1,$1+$1,$8,$9,$2,$3,0*%
%AMRotRect*
0 Rectangle, with rotation*
0 The origin of the aperture is its center*
0 $1 length*
0 $2 width*
0 $3 Rotation angle, in degrees counterclockwise*
0 Add horizontal line*
21,1,$1,$2,0,0,$3*%
%AMFreePoly0*
4,1,9,3.862500,-0.866500,0.737500,-0.866500,0.737500,-0.450000,-0.737500,-0.450000,-0.737500,0.450000,0.737500,0.450000,0.737500,0.866500,3.862500,0.866500,3.862500,-0.866500,3.862500,-0.866500,$1*%
G04 Aperture macros list end*
%ADD10RoundRect,0.135000X-0.185000X0.135000X-0.185000X-0.135000X0.185000X-0.135000X0.185000X0.135000X0*%
%ADD11R,0.600000X1.200000*%
%ADD12R,0.800000X0.800000*%
%ADD13RoundRect,0.500000X1.647809X1.238841X-2.036933X-0.317655X-1.647809X-1.238841X2.036933X0.317655X0*%
%ADD14RoundRect,0.625000X1.875000X0.625000X-1.875000X0.625000X-1.875000X-0.625000X1.875000X-0.625000X0*%
%ADD15RoundRect,0.140000X0.170000X-0.140000X0.170000X0.140000X-0.170000X0.140000X-0.170000X-0.140000X0*%
%ADD16RoundRect,0.140000X-0.170000X0.140000X-0.170000X-0.140000X0.170000X-0.140000X0.170000X0.140000X0*%
%ADD17RotRect,1.500000X2.400000X112.900000*%
%ADD18RotRect,1.050000X1.500000X22.900000*%
%ADD19R,1.000000X0.600000*%
%ADD20R,1.270000X0.610000*%
%ADD21R,1.020000X0.610000*%
%ADD22R,3.910000X3.810000*%
%ADD23R,1.700000X1.700000*%
%ADD24RotRect,1.500000X1.500000X75.000000*%
%ADD25RotRect,0.900000X0.900000X75.000000*%
%ADD26RoundRect,0.135000X0.185000X-0.135000X0.185000X0.135000X-0.185000X0.135000X-0.185000X-0.135000X0*%
%ADD27O,1.700000X1.700000*%
%ADD28R,0.610000X1.270000*%
%ADD29R,0.610000X1.020000*%
%ADD30R,3.810000X3.910000*%
%ADD31R,0.900000X1.400000*%
%ADD32R,0.900000X1.300000*%
%ADD33FreePoly0,270.000000*%
%ADD34RoundRect,0.135000X-0.135000X-0.185000X0.135000X-0.185000X0.135000X0.185000X-0.135000X0.185000X0*%
%ADD35RoundRect,0.625000X0.625000X-1.375000X0.625000X1.375000X-0.625000X1.375000X-0.625000X-1.375000X0*%
%ADD36R,1.800000X1.800000*%
%ADD37C,1.800000*%
%ADD38R,0.800000X0.200000*%
%ADD39R,0.200000X0.800000*%
%ADD40RotRect,1.500000X1.500000X255.000000*%
%ADD41RotRect,0.900000X0.900000X255.000000*%
%ADD42RoundRect,0.135000X0.143756X-0.178282X0.213637X0.082518X-0.143756X0.178282X-0.213637X-0.082518X0*%
G04 APERTURE END LIST*
D10*
%TO.C,R7*%
X92900000Y-102890000D03*
X92900000Y-103910000D03*
%TD*%
D11*
%TO.C,IC6*%
X104750000Y-103750000D03*
X105700000Y-103750000D03*
X106650000Y-103750000D03*
X106650000Y-101250000D03*
X104750000Y-101250000D03*
%TD*%
D12*
%TO.C,Q4*%
X125300000Y-113600000D03*
X123650000Y-113600000D03*
%TD*%
D13*
%TO.C,U2*%
X110000000Y-111800000D03*
%TD*%
D14*
%TO.C,U4*%
X103700000Y-113500000D03*
%TD*%
D15*
%TO.C,C2*%
X127600000Y-94300000D03*
X127600000Y-93340000D03*
%TD*%
D16*
%TO.C,C7*%
X116100000Y-88820000D03*
X116100000Y-89780000D03*
%TD*%
D17*
%TO.C,D2*%
X110383008Y-109069245D03*
D18*
X108195192Y-109993414D03*
%TD*%
D19*
%TO.C,IC2*%
X123000000Y-106150000D03*
X123000000Y-104250000D03*
X120300000Y-105200000D03*
%TD*%
D20*
%TO.C,Q8*%
X93767500Y-104795000D03*
X93767500Y-106065000D03*
X93767500Y-107335000D03*
X93767500Y-108605000D03*
D21*
X99232500Y-108605000D03*
X99232500Y-107335000D03*
X99232500Y-106065000D03*
X99232500Y-104795000D03*
D22*
X97127500Y-106700000D03*
%TD*%
D10*
%TO.C,R10*%
X108000000Y-101390000D03*
X108000000Y-102410000D03*
%TD*%
D16*
%TO.C,C1*%
X129646132Y-106423431D03*
X129646132Y-107383431D03*
%TD*%
D23*
%TO.C,J1*%
X117250000Y-99000000D03*
%TD*%
D24*
%TO.C,Q2*%
X98360370Y-100852933D03*
X94979630Y-99947067D03*
D25*
X96501768Y-101027852D03*
%TD*%
D10*
%TO.C,R4*%
X109000000Y-102490000D03*
X109000000Y-103510000D03*
%TD*%
D26*
%TO.C,R1*%
X129646132Y-105573112D03*
X129646132Y-104553112D03*
%TD*%
D23*
%TO.C,J4*%
X127100000Y-87600000D03*
D27*
X129640000Y-87600000D03*
X132180000Y-87600000D03*
X134720000Y-87600000D03*
%TD*%
D28*
%TO.C,Q3*%
X102595000Y-111232500D03*
X103865000Y-111232500D03*
X105135000Y-111232500D03*
X106405000Y-111232500D03*
D29*
X106405000Y-105767500D03*
X105135000Y-105767500D03*
X103865000Y-105767500D03*
X102595000Y-105767500D03*
D30*
X104500000Y-107872500D03*
%TD*%
D26*
%TO.C,R8*%
X93900000Y-103910000D03*
X93900000Y-102890000D03*
%TD*%
D15*
%TO.C,C3*%
X126650000Y-94300000D03*
X126650000Y-93340000D03*
%TD*%
D26*
%TO.C,R5*%
X127600000Y-92410000D03*
X127600000Y-91390000D03*
%TD*%
D10*
%TO.C,R11*%
X129800000Y-90290000D03*
X129800000Y-91310000D03*
%TD*%
D16*
%TO.C,C8*%
X117600000Y-88820000D03*
X117600000Y-89780000D03*
%TD*%
D26*
%TO.C,R2*%
X130800000Y-91310000D03*
X130800000Y-90290000D03*
%TD*%
D31*
%TO.C,LED2*%
X121225000Y-113800000D03*
X119225000Y-113800000D03*
%TD*%
D11*
%TO.C,IC5*%
X103050000Y-101250000D03*
X102100000Y-101250000D03*
X101150000Y-101250000D03*
X101150000Y-103750000D03*
X103050000Y-103750000D03*
%TD*%
D32*
%TO.C,U1*%
X119100000Y-91150000D03*
D33*
X117600000Y-91237500D03*
D32*
X116100000Y-91150000D03*
%TD*%
D15*
%TO.C,C4*%
X101000000Y-99880000D03*
X101000000Y-98920000D03*
%TD*%
D34*
%TO.C,R3*%
X127390000Y-112700000D03*
X128410000Y-112700000D03*
%TD*%
D35*
%TO.C,U3*%
X101000000Y-106900000D03*
%TD*%
D36*
%TO.C,S1*%
X125800000Y-99120000D03*
D37*
X125800000Y-104200000D03*
X125800000Y-109280000D03*
%TD*%
D38*
%TO.C,IC3*%
X128700000Y-93100000D03*
X128700000Y-93500000D03*
X128700000Y-93900000D03*
X128700000Y-94300000D03*
X128700000Y-94700000D03*
D39*
X129400000Y-95400000D03*
X129800000Y-95400000D03*
X130200000Y-95400000D03*
X130600000Y-95400000D03*
X131000000Y-95400000D03*
D38*
X131700000Y-94700000D03*
X131700000Y-94300000D03*
X131700000Y-93900000D03*
X131700000Y-93500000D03*
X131700000Y-93100000D03*
D39*
X131000000Y-92400000D03*
X130600000Y-92400000D03*
X130200000Y-92400000D03*
X129800000Y-92400000D03*
X129400000Y-92400000D03*
D36*
X130200000Y-93900000D03*
%TD*%
D40*
%TO.C,LED4*%
X100141398Y-87374919D03*
X103522138Y-88280785D03*
D41*
X102000000Y-87200000D03*
%TD*%
D42*
%TO.C,R6*%
X105768002Y-89892622D03*
X106031998Y-88907378D03*
%TD*%
M02*
