%TF.GenerationSoftware,KiCad,Pcbnew,7.0.1*%
%TF.CreationDate,2024-02-21T00:56:42+02:00*%
%TF.ProjectId,PCBTRIGGERASSEMBLY,50434254-5249-4474-9745-52415353454d,rev?*%
%TF.SameCoordinates,Original*%
%TF.FileFunction,Legend,Top*%
%TF.FilePolarity,Positive*%
%FSLAX46Y46*%
G04 Gerber Fmt 4.6, Leading zero omitted, Abs format (unit mm)*
G04 Created by KiCad (PCBNEW 7.0.1) date 2024-02-21 00:56:42*
%MOMM*%
%LPD*%
G01*
G04 APERTURE LIST*
%ADD10C,0.150000*%
%ADD11C,0.120000*%
%ADD12C,0.200000*%
%ADD13C,0.100000*%
%ADD14C,0.254000*%
G04 APERTURE END LIST*
D10*
%TO.C,R7*%
X93270095Y-101899999D02*
X92889142Y-102099999D01*
X93270095Y-102242856D02*
X92470095Y-102242856D01*
X92470095Y-102242856D02*
X92470095Y-102014285D01*
X92470095Y-102014285D02*
X92508190Y-101957142D01*
X92508190Y-101957142D02*
X92546285Y-101928571D01*
X92546285Y-101928571D02*
X92622476Y-101899999D01*
X92622476Y-101899999D02*
X92736761Y-101899999D01*
X92736761Y-101899999D02*
X92812952Y-101928571D01*
X92812952Y-101928571D02*
X92851047Y-101957142D01*
X92851047Y-101957142D02*
X92889142Y-102014285D01*
X92889142Y-102014285D02*
X92889142Y-102242856D01*
X92470095Y-101699999D02*
X92470095Y-101299999D01*
X92470095Y-101299999D02*
X93270095Y-101557142D01*
%TO.C,IC6*%
X105114286Y-100170095D02*
X105114286Y-99370095D01*
X105742857Y-100093904D02*
X105714285Y-100132000D01*
X105714285Y-100132000D02*
X105628571Y-100170095D01*
X105628571Y-100170095D02*
X105571428Y-100170095D01*
X105571428Y-100170095D02*
X105485714Y-100132000D01*
X105485714Y-100132000D02*
X105428571Y-100055809D01*
X105428571Y-100055809D02*
X105400000Y-99979619D01*
X105400000Y-99979619D02*
X105371428Y-99827238D01*
X105371428Y-99827238D02*
X105371428Y-99712952D01*
X105371428Y-99712952D02*
X105400000Y-99560571D01*
X105400000Y-99560571D02*
X105428571Y-99484380D01*
X105428571Y-99484380D02*
X105485714Y-99408190D01*
X105485714Y-99408190D02*
X105571428Y-99370095D01*
X105571428Y-99370095D02*
X105628571Y-99370095D01*
X105628571Y-99370095D02*
X105714285Y-99408190D01*
X105714285Y-99408190D02*
X105742857Y-99446285D01*
X106257143Y-99370095D02*
X106142857Y-99370095D01*
X106142857Y-99370095D02*
X106085714Y-99408190D01*
X106085714Y-99408190D02*
X106057143Y-99446285D01*
X106057143Y-99446285D02*
X106000000Y-99560571D01*
X106000000Y-99560571D02*
X105971428Y-99712952D01*
X105971428Y-99712952D02*
X105971428Y-100017714D01*
X105971428Y-100017714D02*
X106000000Y-100093904D01*
X106000000Y-100093904D02*
X106028571Y-100132000D01*
X106028571Y-100132000D02*
X106085714Y-100170095D01*
X106085714Y-100170095D02*
X106200000Y-100170095D01*
X106200000Y-100170095D02*
X106257143Y-100132000D01*
X106257143Y-100132000D02*
X106285714Y-100093904D01*
X106285714Y-100093904D02*
X106314285Y-100017714D01*
X106314285Y-100017714D02*
X106314285Y-99827238D01*
X106314285Y-99827238D02*
X106285714Y-99751047D01*
X106285714Y-99751047D02*
X106257143Y-99712952D01*
X106257143Y-99712952D02*
X106200000Y-99674857D01*
X106200000Y-99674857D02*
X106085714Y-99674857D01*
X106085714Y-99674857D02*
X106028571Y-99712952D01*
X106028571Y-99712952D02*
X106000000Y-99751047D01*
X106000000Y-99751047D02*
X105971428Y-99827238D01*
%TO.C,C2*%
X127893904Y-95589999D02*
X127932000Y-95618571D01*
X127932000Y-95618571D02*
X127970095Y-95704285D01*
X127970095Y-95704285D02*
X127970095Y-95761428D01*
X127970095Y-95761428D02*
X127932000Y-95847142D01*
X127932000Y-95847142D02*
X127855809Y-95904285D01*
X127855809Y-95904285D02*
X127779619Y-95932856D01*
X127779619Y-95932856D02*
X127627238Y-95961428D01*
X127627238Y-95961428D02*
X127512952Y-95961428D01*
X127512952Y-95961428D02*
X127360571Y-95932856D01*
X127360571Y-95932856D02*
X127284380Y-95904285D01*
X127284380Y-95904285D02*
X127208190Y-95847142D01*
X127208190Y-95847142D02*
X127170095Y-95761428D01*
X127170095Y-95761428D02*
X127170095Y-95704285D01*
X127170095Y-95704285D02*
X127208190Y-95618571D01*
X127208190Y-95618571D02*
X127246285Y-95589999D01*
X127246285Y-95361428D02*
X127208190Y-95332856D01*
X127208190Y-95332856D02*
X127170095Y-95275714D01*
X127170095Y-95275714D02*
X127170095Y-95132856D01*
X127170095Y-95132856D02*
X127208190Y-95075714D01*
X127208190Y-95075714D02*
X127246285Y-95047142D01*
X127246285Y-95047142D02*
X127322476Y-95018571D01*
X127322476Y-95018571D02*
X127398666Y-95018571D01*
X127398666Y-95018571D02*
X127512952Y-95047142D01*
X127512952Y-95047142D02*
X127970095Y-95389999D01*
X127970095Y-95389999D02*
X127970095Y-95018571D01*
%TO.C,C7*%
X116393904Y-87799999D02*
X116432000Y-87828571D01*
X116432000Y-87828571D02*
X116470095Y-87914285D01*
X116470095Y-87914285D02*
X116470095Y-87971428D01*
X116470095Y-87971428D02*
X116432000Y-88057142D01*
X116432000Y-88057142D02*
X116355809Y-88114285D01*
X116355809Y-88114285D02*
X116279619Y-88142856D01*
X116279619Y-88142856D02*
X116127238Y-88171428D01*
X116127238Y-88171428D02*
X116012952Y-88171428D01*
X116012952Y-88171428D02*
X115860571Y-88142856D01*
X115860571Y-88142856D02*
X115784380Y-88114285D01*
X115784380Y-88114285D02*
X115708190Y-88057142D01*
X115708190Y-88057142D02*
X115670095Y-87971428D01*
X115670095Y-87971428D02*
X115670095Y-87914285D01*
X115670095Y-87914285D02*
X115708190Y-87828571D01*
X115708190Y-87828571D02*
X115746285Y-87799999D01*
X115670095Y-87599999D02*
X115670095Y-87199999D01*
X115670095Y-87199999D02*
X116470095Y-87457142D01*
%TO.C,D2*%
X111136059Y-107213253D02*
X110824760Y-106476305D01*
X110824760Y-106476305D02*
X110956358Y-106420716D01*
X110956358Y-106420716D02*
X111050140Y-106422455D01*
X111050140Y-106422455D02*
X111132427Y-106470405D01*
X111132427Y-106470405D02*
X111188394Y-106529473D01*
X111188394Y-106529473D02*
X111274009Y-106658726D01*
X111274009Y-106658726D02*
X111318480Y-106764004D01*
X111318480Y-106764004D02*
X111351456Y-106915493D01*
X111351456Y-106915493D02*
X111354784Y-106996796D01*
X111354784Y-106996796D02*
X111331792Y-107089218D01*
X111331792Y-107089218D02*
X111267657Y-107157664D01*
X111267657Y-107157664D02*
X111136059Y-107213253D01*
X111380799Y-106324134D02*
X111392295Y-106277923D01*
X111392295Y-106277923D02*
X111430110Y-106220595D01*
X111430110Y-106220595D02*
X111561708Y-106165006D01*
X111561708Y-106165006D02*
X111629171Y-106177863D01*
X111629171Y-106177863D02*
X111670315Y-106201838D01*
X111670315Y-106201838D02*
X111726282Y-106260905D01*
X111726282Y-106260905D02*
X111755929Y-106331091D01*
X111755929Y-106331091D02*
X111774081Y-106447487D01*
X111774081Y-106447487D02*
X111636131Y-107002014D01*
X111636131Y-107002014D02*
X111978286Y-106857483D01*
%TO.C,IC2*%
X121114286Y-108070095D02*
X121114286Y-107270095D01*
X121742857Y-107993904D02*
X121714285Y-108032000D01*
X121714285Y-108032000D02*
X121628571Y-108070095D01*
X121628571Y-108070095D02*
X121571428Y-108070095D01*
X121571428Y-108070095D02*
X121485714Y-108032000D01*
X121485714Y-108032000D02*
X121428571Y-107955809D01*
X121428571Y-107955809D02*
X121400000Y-107879619D01*
X121400000Y-107879619D02*
X121371428Y-107727238D01*
X121371428Y-107727238D02*
X121371428Y-107612952D01*
X121371428Y-107612952D02*
X121400000Y-107460571D01*
X121400000Y-107460571D02*
X121428571Y-107384380D01*
X121428571Y-107384380D02*
X121485714Y-107308190D01*
X121485714Y-107308190D02*
X121571428Y-107270095D01*
X121571428Y-107270095D02*
X121628571Y-107270095D01*
X121628571Y-107270095D02*
X121714285Y-107308190D01*
X121714285Y-107308190D02*
X121742857Y-107346285D01*
X121971428Y-107346285D02*
X122000000Y-107308190D01*
X122000000Y-107308190D02*
X122057143Y-107270095D01*
X122057143Y-107270095D02*
X122200000Y-107270095D01*
X122200000Y-107270095D02*
X122257143Y-107308190D01*
X122257143Y-107308190D02*
X122285714Y-107346285D01*
X122285714Y-107346285D02*
X122314285Y-107422476D01*
X122314285Y-107422476D02*
X122314285Y-107498666D01*
X122314285Y-107498666D02*
X122285714Y-107612952D01*
X122285714Y-107612952D02*
X121942857Y-108070095D01*
X121942857Y-108070095D02*
X122314285Y-108070095D01*
%TO.C,Q8*%
X96442857Y-103846285D02*
X96385714Y-103808190D01*
X96385714Y-103808190D02*
X96328571Y-103732000D01*
X96328571Y-103732000D02*
X96242857Y-103617714D01*
X96242857Y-103617714D02*
X96185714Y-103579619D01*
X96185714Y-103579619D02*
X96128571Y-103579619D01*
X96157142Y-103770095D02*
X96100000Y-103732000D01*
X96100000Y-103732000D02*
X96042857Y-103655809D01*
X96042857Y-103655809D02*
X96014285Y-103503428D01*
X96014285Y-103503428D02*
X96014285Y-103236761D01*
X96014285Y-103236761D02*
X96042857Y-103084380D01*
X96042857Y-103084380D02*
X96100000Y-103008190D01*
X96100000Y-103008190D02*
X96157142Y-102970095D01*
X96157142Y-102970095D02*
X96271428Y-102970095D01*
X96271428Y-102970095D02*
X96328571Y-103008190D01*
X96328571Y-103008190D02*
X96385714Y-103084380D01*
X96385714Y-103084380D02*
X96414285Y-103236761D01*
X96414285Y-103236761D02*
X96414285Y-103503428D01*
X96414285Y-103503428D02*
X96385714Y-103655809D01*
X96385714Y-103655809D02*
X96328571Y-103732000D01*
X96328571Y-103732000D02*
X96271428Y-103770095D01*
X96271428Y-103770095D02*
X96157142Y-103770095D01*
X96757142Y-103312952D02*
X96699999Y-103274857D01*
X96699999Y-103274857D02*
X96671428Y-103236761D01*
X96671428Y-103236761D02*
X96642856Y-103160571D01*
X96642856Y-103160571D02*
X96642856Y-103122476D01*
X96642856Y-103122476D02*
X96671428Y-103046285D01*
X96671428Y-103046285D02*
X96699999Y-103008190D01*
X96699999Y-103008190D02*
X96757142Y-102970095D01*
X96757142Y-102970095D02*
X96871428Y-102970095D01*
X96871428Y-102970095D02*
X96928571Y-103008190D01*
X96928571Y-103008190D02*
X96957142Y-103046285D01*
X96957142Y-103046285D02*
X96985713Y-103122476D01*
X96985713Y-103122476D02*
X96985713Y-103160571D01*
X96985713Y-103160571D02*
X96957142Y-103236761D01*
X96957142Y-103236761D02*
X96928571Y-103274857D01*
X96928571Y-103274857D02*
X96871428Y-103312952D01*
X96871428Y-103312952D02*
X96757142Y-103312952D01*
X96757142Y-103312952D02*
X96699999Y-103351047D01*
X96699999Y-103351047D02*
X96671428Y-103389142D01*
X96671428Y-103389142D02*
X96642856Y-103465333D01*
X96642856Y-103465333D02*
X96642856Y-103617714D01*
X96642856Y-103617714D02*
X96671428Y-103693904D01*
X96671428Y-103693904D02*
X96699999Y-103732000D01*
X96699999Y-103732000D02*
X96757142Y-103770095D01*
X96757142Y-103770095D02*
X96871428Y-103770095D01*
X96871428Y-103770095D02*
X96928571Y-103732000D01*
X96928571Y-103732000D02*
X96957142Y-103693904D01*
X96957142Y-103693904D02*
X96985713Y-103617714D01*
X96985713Y-103617714D02*
X96985713Y-103465333D01*
X96985713Y-103465333D02*
X96957142Y-103389142D01*
X96957142Y-103389142D02*
X96928571Y-103351047D01*
X96928571Y-103351047D02*
X96871428Y-103312952D01*
%TO.C,R10*%
X108394146Y-100385714D02*
X108013193Y-100585714D01*
X108394146Y-100728571D02*
X107594146Y-100728571D01*
X107594146Y-100728571D02*
X107594146Y-100500000D01*
X107594146Y-100500000D02*
X107632241Y-100442857D01*
X107632241Y-100442857D02*
X107670336Y-100414286D01*
X107670336Y-100414286D02*
X107746527Y-100385714D01*
X107746527Y-100385714D02*
X107860812Y-100385714D01*
X107860812Y-100385714D02*
X107937003Y-100414286D01*
X107937003Y-100414286D02*
X107975098Y-100442857D01*
X107975098Y-100442857D02*
X108013193Y-100500000D01*
X108013193Y-100500000D02*
X108013193Y-100728571D01*
X108394146Y-99814286D02*
X108394146Y-100157143D01*
X108394146Y-99985714D02*
X107594146Y-99985714D01*
X107594146Y-99985714D02*
X107708431Y-100042857D01*
X107708431Y-100042857D02*
X107784622Y-100100000D01*
X107784622Y-100100000D02*
X107822717Y-100157143D01*
X107594146Y-99442857D02*
X107594146Y-99385714D01*
X107594146Y-99385714D02*
X107632241Y-99328571D01*
X107632241Y-99328571D02*
X107670336Y-99300000D01*
X107670336Y-99300000D02*
X107746527Y-99271428D01*
X107746527Y-99271428D02*
X107898908Y-99242857D01*
X107898908Y-99242857D02*
X108089384Y-99242857D01*
X108089384Y-99242857D02*
X108241765Y-99271428D01*
X108241765Y-99271428D02*
X108317955Y-99300000D01*
X108317955Y-99300000D02*
X108356051Y-99328571D01*
X108356051Y-99328571D02*
X108394146Y-99385714D01*
X108394146Y-99385714D02*
X108394146Y-99442857D01*
X108394146Y-99442857D02*
X108356051Y-99500000D01*
X108356051Y-99500000D02*
X108317955Y-99528571D01*
X108317955Y-99528571D02*
X108241765Y-99557142D01*
X108241765Y-99557142D02*
X108089384Y-99585714D01*
X108089384Y-99585714D02*
X107898908Y-99585714D01*
X107898908Y-99585714D02*
X107746527Y-99557142D01*
X107746527Y-99557142D02*
X107670336Y-99528571D01*
X107670336Y-99528571D02*
X107632241Y-99500000D01*
X107632241Y-99500000D02*
X107594146Y-99442857D01*
%TO.C,C1*%
X129940036Y-108558430D02*
X129978132Y-108587002D01*
X129978132Y-108587002D02*
X130016227Y-108672716D01*
X130016227Y-108672716D02*
X130016227Y-108729859D01*
X130016227Y-108729859D02*
X129978132Y-108815573D01*
X129978132Y-108815573D02*
X129901941Y-108872716D01*
X129901941Y-108872716D02*
X129825751Y-108901287D01*
X129825751Y-108901287D02*
X129673370Y-108929859D01*
X129673370Y-108929859D02*
X129559084Y-108929859D01*
X129559084Y-108929859D02*
X129406703Y-108901287D01*
X129406703Y-108901287D02*
X129330512Y-108872716D01*
X129330512Y-108872716D02*
X129254322Y-108815573D01*
X129254322Y-108815573D02*
X129216227Y-108729859D01*
X129216227Y-108729859D02*
X129216227Y-108672716D01*
X129216227Y-108672716D02*
X129254322Y-108587002D01*
X129254322Y-108587002D02*
X129292417Y-108558430D01*
X130016227Y-107987002D02*
X130016227Y-108329859D01*
X130016227Y-108158430D02*
X129216227Y-108158430D01*
X129216227Y-108158430D02*
X129330512Y-108215573D01*
X129330512Y-108215573D02*
X129406703Y-108272716D01*
X129406703Y-108272716D02*
X129444798Y-108329859D01*
%TO.C,J1*%
X114899999Y-98570095D02*
X114899999Y-99141523D01*
X114899999Y-99141523D02*
X114871428Y-99255809D01*
X114871428Y-99255809D02*
X114814285Y-99332000D01*
X114814285Y-99332000D02*
X114728571Y-99370095D01*
X114728571Y-99370095D02*
X114671428Y-99370095D01*
X115499999Y-99370095D02*
X115157142Y-99370095D01*
X115328571Y-99370095D02*
X115328571Y-98570095D01*
X115328571Y-98570095D02*
X115271428Y-98684380D01*
X115271428Y-98684380D02*
X115214285Y-98760571D01*
X115214285Y-98760571D02*
X115157142Y-98798666D01*
%TO.C,Q2*%
X98329296Y-99816289D02*
X98283961Y-99764702D01*
X98283961Y-99764702D02*
X98248484Y-99676318D01*
X98248484Y-99676318D02*
X98195270Y-99543742D01*
X98195270Y-99543742D02*
X98149934Y-99492155D01*
X98149934Y-99492155D02*
X98094738Y-99477365D01*
X98073037Y-99668746D02*
X98027701Y-99617159D01*
X98027701Y-99617159D02*
X97992225Y-99528775D01*
X97992225Y-99528775D02*
X98004066Y-99374192D01*
X98004066Y-99374192D02*
X98073085Y-99116612D01*
X98073085Y-99116612D02*
X98140122Y-98976818D01*
X98140122Y-98976818D02*
X98215037Y-98918013D01*
X98215037Y-98918013D02*
X98280092Y-98896005D01*
X98280092Y-98896005D02*
X98390484Y-98925585D01*
X98390484Y-98925585D02*
X98435820Y-98977172D01*
X98435820Y-98977172D02*
X98471296Y-99065556D01*
X98471296Y-99065556D02*
X98459455Y-99220139D01*
X98459455Y-99220139D02*
X98390437Y-99477719D01*
X98390437Y-99477719D02*
X98323400Y-99617513D01*
X98323400Y-99617513D02*
X98248484Y-99676318D01*
X98248484Y-99676318D02*
X98183429Y-99698325D01*
X98183429Y-99698325D02*
X98073037Y-99668746D01*
X98729536Y-99095312D02*
X98766994Y-99065909D01*
X98766994Y-99065909D02*
X98832050Y-99043902D01*
X98832050Y-99043902D02*
X98970039Y-99080876D01*
X98970039Y-99080876D02*
X99015375Y-99132463D01*
X99015375Y-99132463D02*
X99033113Y-99176655D01*
X99033113Y-99176655D02*
X99040992Y-99257644D01*
X99040992Y-99257644D02*
X99021272Y-99331238D01*
X99021272Y-99331238D02*
X98964095Y-99434235D01*
X98964095Y-99434235D02*
X98514603Y-99787063D01*
X98514603Y-99787063D02*
X98873375Y-99883196D01*
%TO.C,R4*%
X109370095Y-101599999D02*
X108989142Y-101799999D01*
X109370095Y-101942856D02*
X108570095Y-101942856D01*
X108570095Y-101942856D02*
X108570095Y-101714285D01*
X108570095Y-101714285D02*
X108608190Y-101657142D01*
X108608190Y-101657142D02*
X108646285Y-101628571D01*
X108646285Y-101628571D02*
X108722476Y-101599999D01*
X108722476Y-101599999D02*
X108836761Y-101599999D01*
X108836761Y-101599999D02*
X108912952Y-101628571D01*
X108912952Y-101628571D02*
X108951047Y-101657142D01*
X108951047Y-101657142D02*
X108989142Y-101714285D01*
X108989142Y-101714285D02*
X108989142Y-101942856D01*
X108836761Y-101085714D02*
X109370095Y-101085714D01*
X108532000Y-101228571D02*
X109103428Y-101371428D01*
X109103428Y-101371428D02*
X109103428Y-100999999D01*
%TO.C,R1*%
X130016227Y-103558430D02*
X129635274Y-103758430D01*
X130016227Y-103901287D02*
X129216227Y-103901287D01*
X129216227Y-103901287D02*
X129216227Y-103672716D01*
X129216227Y-103672716D02*
X129254322Y-103615573D01*
X129254322Y-103615573D02*
X129292417Y-103587002D01*
X129292417Y-103587002D02*
X129368608Y-103558430D01*
X129368608Y-103558430D02*
X129482893Y-103558430D01*
X129482893Y-103558430D02*
X129559084Y-103587002D01*
X129559084Y-103587002D02*
X129597179Y-103615573D01*
X129597179Y-103615573D02*
X129635274Y-103672716D01*
X129635274Y-103672716D02*
X129635274Y-103901287D01*
X130016227Y-102987002D02*
X130016227Y-103329859D01*
X130016227Y-103158430D02*
X129216227Y-103158430D01*
X129216227Y-103158430D02*
X129330512Y-103215573D01*
X129330512Y-103215573D02*
X129406703Y-103272716D01*
X129406703Y-103272716D02*
X129444798Y-103329859D01*
%TO.C,J4*%
X135399999Y-89270095D02*
X135399999Y-89841523D01*
X135399999Y-89841523D02*
X135371428Y-89955809D01*
X135371428Y-89955809D02*
X135314285Y-90032000D01*
X135314285Y-90032000D02*
X135228571Y-90070095D01*
X135228571Y-90070095D02*
X135171428Y-90070095D01*
X135942857Y-89536761D02*
X135942857Y-90070095D01*
X135799999Y-89232000D02*
X135657142Y-89803428D01*
X135657142Y-89803428D02*
X136028571Y-89803428D01*
%TO.C,Q3*%
X107042857Y-113946285D02*
X106985714Y-113908190D01*
X106985714Y-113908190D02*
X106928571Y-113832000D01*
X106928571Y-113832000D02*
X106842857Y-113717714D01*
X106842857Y-113717714D02*
X106785714Y-113679619D01*
X106785714Y-113679619D02*
X106728571Y-113679619D01*
X106757142Y-113870095D02*
X106700000Y-113832000D01*
X106700000Y-113832000D02*
X106642857Y-113755809D01*
X106642857Y-113755809D02*
X106614285Y-113603428D01*
X106614285Y-113603428D02*
X106614285Y-113336761D01*
X106614285Y-113336761D02*
X106642857Y-113184380D01*
X106642857Y-113184380D02*
X106700000Y-113108190D01*
X106700000Y-113108190D02*
X106757142Y-113070095D01*
X106757142Y-113070095D02*
X106871428Y-113070095D01*
X106871428Y-113070095D02*
X106928571Y-113108190D01*
X106928571Y-113108190D02*
X106985714Y-113184380D01*
X106985714Y-113184380D02*
X107014285Y-113336761D01*
X107014285Y-113336761D02*
X107014285Y-113603428D01*
X107014285Y-113603428D02*
X106985714Y-113755809D01*
X106985714Y-113755809D02*
X106928571Y-113832000D01*
X106928571Y-113832000D02*
X106871428Y-113870095D01*
X106871428Y-113870095D02*
X106757142Y-113870095D01*
X107214285Y-113070095D02*
X107585713Y-113070095D01*
X107585713Y-113070095D02*
X107385713Y-113374857D01*
X107385713Y-113374857D02*
X107471428Y-113374857D01*
X107471428Y-113374857D02*
X107528571Y-113412952D01*
X107528571Y-113412952D02*
X107557142Y-113451047D01*
X107557142Y-113451047D02*
X107585713Y-113527238D01*
X107585713Y-113527238D02*
X107585713Y-113717714D01*
X107585713Y-113717714D02*
X107557142Y-113793904D01*
X107557142Y-113793904D02*
X107528571Y-113832000D01*
X107528571Y-113832000D02*
X107471428Y-113870095D01*
X107471428Y-113870095D02*
X107299999Y-113870095D01*
X107299999Y-113870095D02*
X107242856Y-113832000D01*
X107242856Y-113832000D02*
X107214285Y-113793904D01*
%TO.C,R8*%
X94270095Y-101899999D02*
X93889142Y-102099999D01*
X94270095Y-102242856D02*
X93470095Y-102242856D01*
X93470095Y-102242856D02*
X93470095Y-102014285D01*
X93470095Y-102014285D02*
X93508190Y-101957142D01*
X93508190Y-101957142D02*
X93546285Y-101928571D01*
X93546285Y-101928571D02*
X93622476Y-101899999D01*
X93622476Y-101899999D02*
X93736761Y-101899999D01*
X93736761Y-101899999D02*
X93812952Y-101928571D01*
X93812952Y-101928571D02*
X93851047Y-101957142D01*
X93851047Y-101957142D02*
X93889142Y-102014285D01*
X93889142Y-102014285D02*
X93889142Y-102242856D01*
X93812952Y-101557142D02*
X93774857Y-101614285D01*
X93774857Y-101614285D02*
X93736761Y-101642856D01*
X93736761Y-101642856D02*
X93660571Y-101671428D01*
X93660571Y-101671428D02*
X93622476Y-101671428D01*
X93622476Y-101671428D02*
X93546285Y-101642856D01*
X93546285Y-101642856D02*
X93508190Y-101614285D01*
X93508190Y-101614285D02*
X93470095Y-101557142D01*
X93470095Y-101557142D02*
X93470095Y-101442856D01*
X93470095Y-101442856D02*
X93508190Y-101385714D01*
X93508190Y-101385714D02*
X93546285Y-101357142D01*
X93546285Y-101357142D02*
X93622476Y-101328571D01*
X93622476Y-101328571D02*
X93660571Y-101328571D01*
X93660571Y-101328571D02*
X93736761Y-101357142D01*
X93736761Y-101357142D02*
X93774857Y-101385714D01*
X93774857Y-101385714D02*
X93812952Y-101442856D01*
X93812952Y-101442856D02*
X93812952Y-101557142D01*
X93812952Y-101557142D02*
X93851047Y-101614285D01*
X93851047Y-101614285D02*
X93889142Y-101642856D01*
X93889142Y-101642856D02*
X93965333Y-101671428D01*
X93965333Y-101671428D02*
X94117714Y-101671428D01*
X94117714Y-101671428D02*
X94193904Y-101642856D01*
X94193904Y-101642856D02*
X94232000Y-101614285D01*
X94232000Y-101614285D02*
X94270095Y-101557142D01*
X94270095Y-101557142D02*
X94270095Y-101442856D01*
X94270095Y-101442856D02*
X94232000Y-101385714D01*
X94232000Y-101385714D02*
X94193904Y-101357142D01*
X94193904Y-101357142D02*
X94117714Y-101328571D01*
X94117714Y-101328571D02*
X93965333Y-101328571D01*
X93965333Y-101328571D02*
X93889142Y-101357142D01*
X93889142Y-101357142D02*
X93851047Y-101385714D01*
X93851047Y-101385714D02*
X93812952Y-101442856D01*
%TO.C,C3*%
X126943904Y-95519999D02*
X126982000Y-95548571D01*
X126982000Y-95548571D02*
X127020095Y-95634285D01*
X127020095Y-95634285D02*
X127020095Y-95691428D01*
X127020095Y-95691428D02*
X126982000Y-95777142D01*
X126982000Y-95777142D02*
X126905809Y-95834285D01*
X126905809Y-95834285D02*
X126829619Y-95862856D01*
X126829619Y-95862856D02*
X126677238Y-95891428D01*
X126677238Y-95891428D02*
X126562952Y-95891428D01*
X126562952Y-95891428D02*
X126410571Y-95862856D01*
X126410571Y-95862856D02*
X126334380Y-95834285D01*
X126334380Y-95834285D02*
X126258190Y-95777142D01*
X126258190Y-95777142D02*
X126220095Y-95691428D01*
X126220095Y-95691428D02*
X126220095Y-95634285D01*
X126220095Y-95634285D02*
X126258190Y-95548571D01*
X126258190Y-95548571D02*
X126296285Y-95519999D01*
X126220095Y-95319999D02*
X126220095Y-94948571D01*
X126220095Y-94948571D02*
X126524857Y-95148571D01*
X126524857Y-95148571D02*
X126524857Y-95062856D01*
X126524857Y-95062856D02*
X126562952Y-95005714D01*
X126562952Y-95005714D02*
X126601047Y-94977142D01*
X126601047Y-94977142D02*
X126677238Y-94948571D01*
X126677238Y-94948571D02*
X126867714Y-94948571D01*
X126867714Y-94948571D02*
X126943904Y-94977142D01*
X126943904Y-94977142D02*
X126982000Y-95005714D01*
X126982000Y-95005714D02*
X127020095Y-95062856D01*
X127020095Y-95062856D02*
X127020095Y-95234285D01*
X127020095Y-95234285D02*
X126982000Y-95291428D01*
X126982000Y-95291428D02*
X126943904Y-95319999D01*
%TO.C,R5*%
X127970095Y-90449999D02*
X127589142Y-90649999D01*
X127970095Y-90792856D02*
X127170095Y-90792856D01*
X127170095Y-90792856D02*
X127170095Y-90564285D01*
X127170095Y-90564285D02*
X127208190Y-90507142D01*
X127208190Y-90507142D02*
X127246285Y-90478571D01*
X127246285Y-90478571D02*
X127322476Y-90449999D01*
X127322476Y-90449999D02*
X127436761Y-90449999D01*
X127436761Y-90449999D02*
X127512952Y-90478571D01*
X127512952Y-90478571D02*
X127551047Y-90507142D01*
X127551047Y-90507142D02*
X127589142Y-90564285D01*
X127589142Y-90564285D02*
X127589142Y-90792856D01*
X127170095Y-89907142D02*
X127170095Y-90192856D01*
X127170095Y-90192856D02*
X127551047Y-90221428D01*
X127551047Y-90221428D02*
X127512952Y-90192856D01*
X127512952Y-90192856D02*
X127474857Y-90135714D01*
X127474857Y-90135714D02*
X127474857Y-89992856D01*
X127474857Y-89992856D02*
X127512952Y-89935714D01*
X127512952Y-89935714D02*
X127551047Y-89907142D01*
X127551047Y-89907142D02*
X127627238Y-89878571D01*
X127627238Y-89878571D02*
X127817714Y-89878571D01*
X127817714Y-89878571D02*
X127893904Y-89907142D01*
X127893904Y-89907142D02*
X127932000Y-89935714D01*
X127932000Y-89935714D02*
X127970095Y-89992856D01*
X127970095Y-89992856D02*
X127970095Y-90135714D01*
X127970095Y-90135714D02*
X127932000Y-90192856D01*
X127932000Y-90192856D02*
X127893904Y-90221428D01*
%TO.C,R11*%
X132570095Y-91185714D02*
X132189142Y-91385714D01*
X132570095Y-91528571D02*
X131770095Y-91528571D01*
X131770095Y-91528571D02*
X131770095Y-91300000D01*
X131770095Y-91300000D02*
X131808190Y-91242857D01*
X131808190Y-91242857D02*
X131846285Y-91214286D01*
X131846285Y-91214286D02*
X131922476Y-91185714D01*
X131922476Y-91185714D02*
X132036761Y-91185714D01*
X132036761Y-91185714D02*
X132112952Y-91214286D01*
X132112952Y-91214286D02*
X132151047Y-91242857D01*
X132151047Y-91242857D02*
X132189142Y-91300000D01*
X132189142Y-91300000D02*
X132189142Y-91528571D01*
X132570095Y-90614286D02*
X132570095Y-90957143D01*
X132570095Y-90785714D02*
X131770095Y-90785714D01*
X131770095Y-90785714D02*
X131884380Y-90842857D01*
X131884380Y-90842857D02*
X131960571Y-90900000D01*
X131960571Y-90900000D02*
X131998666Y-90957143D01*
X132570095Y-90042857D02*
X132570095Y-90385714D01*
X132570095Y-90214285D02*
X131770095Y-90214285D01*
X131770095Y-90214285D02*
X131884380Y-90271428D01*
X131884380Y-90271428D02*
X131960571Y-90328571D01*
X131960571Y-90328571D02*
X131998666Y-90385714D01*
%TO.C,C8*%
X117893904Y-87799999D02*
X117932000Y-87828571D01*
X117932000Y-87828571D02*
X117970095Y-87914285D01*
X117970095Y-87914285D02*
X117970095Y-87971428D01*
X117970095Y-87971428D02*
X117932000Y-88057142D01*
X117932000Y-88057142D02*
X117855809Y-88114285D01*
X117855809Y-88114285D02*
X117779619Y-88142856D01*
X117779619Y-88142856D02*
X117627238Y-88171428D01*
X117627238Y-88171428D02*
X117512952Y-88171428D01*
X117512952Y-88171428D02*
X117360571Y-88142856D01*
X117360571Y-88142856D02*
X117284380Y-88114285D01*
X117284380Y-88114285D02*
X117208190Y-88057142D01*
X117208190Y-88057142D02*
X117170095Y-87971428D01*
X117170095Y-87971428D02*
X117170095Y-87914285D01*
X117170095Y-87914285D02*
X117208190Y-87828571D01*
X117208190Y-87828571D02*
X117246285Y-87799999D01*
X117512952Y-87457142D02*
X117474857Y-87514285D01*
X117474857Y-87514285D02*
X117436761Y-87542856D01*
X117436761Y-87542856D02*
X117360571Y-87571428D01*
X117360571Y-87571428D02*
X117322476Y-87571428D01*
X117322476Y-87571428D02*
X117246285Y-87542856D01*
X117246285Y-87542856D02*
X117208190Y-87514285D01*
X117208190Y-87514285D02*
X117170095Y-87457142D01*
X117170095Y-87457142D02*
X117170095Y-87342856D01*
X117170095Y-87342856D02*
X117208190Y-87285714D01*
X117208190Y-87285714D02*
X117246285Y-87257142D01*
X117246285Y-87257142D02*
X117322476Y-87228571D01*
X117322476Y-87228571D02*
X117360571Y-87228571D01*
X117360571Y-87228571D02*
X117436761Y-87257142D01*
X117436761Y-87257142D02*
X117474857Y-87285714D01*
X117474857Y-87285714D02*
X117512952Y-87342856D01*
X117512952Y-87342856D02*
X117512952Y-87457142D01*
X117512952Y-87457142D02*
X117551047Y-87514285D01*
X117551047Y-87514285D02*
X117589142Y-87542856D01*
X117589142Y-87542856D02*
X117665333Y-87571428D01*
X117665333Y-87571428D02*
X117817714Y-87571428D01*
X117817714Y-87571428D02*
X117893904Y-87542856D01*
X117893904Y-87542856D02*
X117932000Y-87514285D01*
X117932000Y-87514285D02*
X117970095Y-87457142D01*
X117970095Y-87457142D02*
X117970095Y-87342856D01*
X117970095Y-87342856D02*
X117932000Y-87285714D01*
X117932000Y-87285714D02*
X117893904Y-87257142D01*
X117893904Y-87257142D02*
X117817714Y-87228571D01*
X117817714Y-87228571D02*
X117665333Y-87228571D01*
X117665333Y-87228571D02*
X117589142Y-87257142D01*
X117589142Y-87257142D02*
X117551047Y-87285714D01*
X117551047Y-87285714D02*
X117512952Y-87342856D01*
%TO.C,R2*%
X133670095Y-90599999D02*
X133289142Y-90799999D01*
X133670095Y-90942856D02*
X132870095Y-90942856D01*
X132870095Y-90942856D02*
X132870095Y-90714285D01*
X132870095Y-90714285D02*
X132908190Y-90657142D01*
X132908190Y-90657142D02*
X132946285Y-90628571D01*
X132946285Y-90628571D02*
X133022476Y-90599999D01*
X133022476Y-90599999D02*
X133136761Y-90599999D01*
X133136761Y-90599999D02*
X133212952Y-90628571D01*
X133212952Y-90628571D02*
X133251047Y-90657142D01*
X133251047Y-90657142D02*
X133289142Y-90714285D01*
X133289142Y-90714285D02*
X133289142Y-90942856D01*
X132946285Y-90371428D02*
X132908190Y-90342856D01*
X132908190Y-90342856D02*
X132870095Y-90285714D01*
X132870095Y-90285714D02*
X132870095Y-90142856D01*
X132870095Y-90142856D02*
X132908190Y-90085714D01*
X132908190Y-90085714D02*
X132946285Y-90057142D01*
X132946285Y-90057142D02*
X133022476Y-90028571D01*
X133022476Y-90028571D02*
X133098666Y-90028571D01*
X133098666Y-90028571D02*
X133212952Y-90057142D01*
X133212952Y-90057142D02*
X133670095Y-90399999D01*
X133670095Y-90399999D02*
X133670095Y-90028571D01*
%TO.C,IC5*%
X101714286Y-100170095D02*
X101714286Y-99370095D01*
X102342857Y-100093904D02*
X102314285Y-100132000D01*
X102314285Y-100132000D02*
X102228571Y-100170095D01*
X102228571Y-100170095D02*
X102171428Y-100170095D01*
X102171428Y-100170095D02*
X102085714Y-100132000D01*
X102085714Y-100132000D02*
X102028571Y-100055809D01*
X102028571Y-100055809D02*
X102000000Y-99979619D01*
X102000000Y-99979619D02*
X101971428Y-99827238D01*
X101971428Y-99827238D02*
X101971428Y-99712952D01*
X101971428Y-99712952D02*
X102000000Y-99560571D01*
X102000000Y-99560571D02*
X102028571Y-99484380D01*
X102028571Y-99484380D02*
X102085714Y-99408190D01*
X102085714Y-99408190D02*
X102171428Y-99370095D01*
X102171428Y-99370095D02*
X102228571Y-99370095D01*
X102228571Y-99370095D02*
X102314285Y-99408190D01*
X102314285Y-99408190D02*
X102342857Y-99446285D01*
X102885714Y-99370095D02*
X102600000Y-99370095D01*
X102600000Y-99370095D02*
X102571428Y-99751047D01*
X102571428Y-99751047D02*
X102600000Y-99712952D01*
X102600000Y-99712952D02*
X102657143Y-99674857D01*
X102657143Y-99674857D02*
X102800000Y-99674857D01*
X102800000Y-99674857D02*
X102857143Y-99712952D01*
X102857143Y-99712952D02*
X102885714Y-99751047D01*
X102885714Y-99751047D02*
X102914285Y-99827238D01*
X102914285Y-99827238D02*
X102914285Y-100017714D01*
X102914285Y-100017714D02*
X102885714Y-100093904D01*
X102885714Y-100093904D02*
X102857143Y-100132000D01*
X102857143Y-100132000D02*
X102800000Y-100170095D01*
X102800000Y-100170095D02*
X102657143Y-100170095D01*
X102657143Y-100170095D02*
X102600000Y-100132000D01*
X102600000Y-100132000D02*
X102571428Y-100093904D01*
%TO.C,U1*%
X120242857Y-90770095D02*
X120242857Y-91417714D01*
X120242857Y-91417714D02*
X120271428Y-91493904D01*
X120271428Y-91493904D02*
X120300000Y-91532000D01*
X120300000Y-91532000D02*
X120357142Y-91570095D01*
X120357142Y-91570095D02*
X120471428Y-91570095D01*
X120471428Y-91570095D02*
X120528571Y-91532000D01*
X120528571Y-91532000D02*
X120557142Y-91493904D01*
X120557142Y-91493904D02*
X120585714Y-91417714D01*
X120585714Y-91417714D02*
X120585714Y-90770095D01*
X121185713Y-91570095D02*
X120842856Y-91570095D01*
X121014285Y-91570095D02*
X121014285Y-90770095D01*
X121014285Y-90770095D02*
X120957142Y-90884380D01*
X120957142Y-90884380D02*
X120899999Y-90960571D01*
X120899999Y-90960571D02*
X120842856Y-90998666D01*
%TO.C,C4*%
X101293904Y-97920166D02*
X101332000Y-97948738D01*
X101332000Y-97948738D02*
X101370095Y-98034452D01*
X101370095Y-98034452D02*
X101370095Y-98091595D01*
X101370095Y-98091595D02*
X101332000Y-98177309D01*
X101332000Y-98177309D02*
X101255809Y-98234452D01*
X101255809Y-98234452D02*
X101179619Y-98263023D01*
X101179619Y-98263023D02*
X101027238Y-98291595D01*
X101027238Y-98291595D02*
X100912952Y-98291595D01*
X100912952Y-98291595D02*
X100760571Y-98263023D01*
X100760571Y-98263023D02*
X100684380Y-98234452D01*
X100684380Y-98234452D02*
X100608190Y-98177309D01*
X100608190Y-98177309D02*
X100570095Y-98091595D01*
X100570095Y-98091595D02*
X100570095Y-98034452D01*
X100570095Y-98034452D02*
X100608190Y-97948738D01*
X100608190Y-97948738D02*
X100646285Y-97920166D01*
X100836761Y-97405881D02*
X101370095Y-97405881D01*
X100532000Y-97548738D02*
X101103428Y-97691595D01*
X101103428Y-97691595D02*
X101103428Y-97320166D01*
%TO.C,R3*%
X127800000Y-111900095D02*
X127600000Y-111519142D01*
X127457143Y-111900095D02*
X127457143Y-111100095D01*
X127457143Y-111100095D02*
X127685714Y-111100095D01*
X127685714Y-111100095D02*
X127742857Y-111138190D01*
X127742857Y-111138190D02*
X127771428Y-111176285D01*
X127771428Y-111176285D02*
X127800000Y-111252476D01*
X127800000Y-111252476D02*
X127800000Y-111366761D01*
X127800000Y-111366761D02*
X127771428Y-111442952D01*
X127771428Y-111442952D02*
X127742857Y-111481047D01*
X127742857Y-111481047D02*
X127685714Y-111519142D01*
X127685714Y-111519142D02*
X127457143Y-111519142D01*
X128000000Y-111100095D02*
X128371428Y-111100095D01*
X128371428Y-111100095D02*
X128171428Y-111404857D01*
X128171428Y-111404857D02*
X128257143Y-111404857D01*
X128257143Y-111404857D02*
X128314286Y-111442952D01*
X128314286Y-111442952D02*
X128342857Y-111481047D01*
X128342857Y-111481047D02*
X128371428Y-111557238D01*
X128371428Y-111557238D02*
X128371428Y-111747714D01*
X128371428Y-111747714D02*
X128342857Y-111823904D01*
X128342857Y-111823904D02*
X128314286Y-111862000D01*
X128314286Y-111862000D02*
X128257143Y-111900095D01*
X128257143Y-111900095D02*
X128085714Y-111900095D01*
X128085714Y-111900095D02*
X128028571Y-111862000D01*
X128028571Y-111862000D02*
X128000000Y-111823904D01*
%TO.C,S1*%
X125342856Y-101232000D02*
X125428571Y-101270095D01*
X125428571Y-101270095D02*
X125571428Y-101270095D01*
X125571428Y-101270095D02*
X125628571Y-101232000D01*
X125628571Y-101232000D02*
X125657142Y-101193904D01*
X125657142Y-101193904D02*
X125685713Y-101117714D01*
X125685713Y-101117714D02*
X125685713Y-101041523D01*
X125685713Y-101041523D02*
X125657142Y-100965333D01*
X125657142Y-100965333D02*
X125628571Y-100927238D01*
X125628571Y-100927238D02*
X125571428Y-100889142D01*
X125571428Y-100889142D02*
X125457142Y-100851047D01*
X125457142Y-100851047D02*
X125399999Y-100812952D01*
X125399999Y-100812952D02*
X125371428Y-100774857D01*
X125371428Y-100774857D02*
X125342856Y-100698666D01*
X125342856Y-100698666D02*
X125342856Y-100622476D01*
X125342856Y-100622476D02*
X125371428Y-100546285D01*
X125371428Y-100546285D02*
X125399999Y-100508190D01*
X125399999Y-100508190D02*
X125457142Y-100470095D01*
X125457142Y-100470095D02*
X125599999Y-100470095D01*
X125599999Y-100470095D02*
X125685713Y-100508190D01*
X126257142Y-101270095D02*
X125914285Y-101270095D01*
X126085714Y-101270095D02*
X126085714Y-100470095D01*
X126085714Y-100470095D02*
X126028571Y-100584380D01*
X126028571Y-100584380D02*
X125971428Y-100660571D01*
X125971428Y-100660571D02*
X125914285Y-100698666D01*
%TO.C,IC3*%
X133270095Y-95185713D02*
X132470095Y-95185713D01*
X133193904Y-94557142D02*
X133232000Y-94585714D01*
X133232000Y-94585714D02*
X133270095Y-94671428D01*
X133270095Y-94671428D02*
X133270095Y-94728571D01*
X133270095Y-94728571D02*
X133232000Y-94814285D01*
X133232000Y-94814285D02*
X133155809Y-94871428D01*
X133155809Y-94871428D02*
X133079619Y-94899999D01*
X133079619Y-94899999D02*
X132927238Y-94928571D01*
X132927238Y-94928571D02*
X132812952Y-94928571D01*
X132812952Y-94928571D02*
X132660571Y-94899999D01*
X132660571Y-94899999D02*
X132584380Y-94871428D01*
X132584380Y-94871428D02*
X132508190Y-94814285D01*
X132508190Y-94814285D02*
X132470095Y-94728571D01*
X132470095Y-94728571D02*
X132470095Y-94671428D01*
X132470095Y-94671428D02*
X132508190Y-94585714D01*
X132508190Y-94585714D02*
X132546285Y-94557142D01*
X132470095Y-94357142D02*
X132470095Y-93985714D01*
X132470095Y-93985714D02*
X132774857Y-94185714D01*
X132774857Y-94185714D02*
X132774857Y-94099999D01*
X132774857Y-94099999D02*
X132812952Y-94042857D01*
X132812952Y-94042857D02*
X132851047Y-94014285D01*
X132851047Y-94014285D02*
X132927238Y-93985714D01*
X132927238Y-93985714D02*
X133117714Y-93985714D01*
X133117714Y-93985714D02*
X133193904Y-94014285D01*
X133193904Y-94014285D02*
X133232000Y-94042857D01*
X133232000Y-94042857D02*
X133270095Y-94099999D01*
X133270095Y-94099999D02*
X133270095Y-94271428D01*
X133270095Y-94271428D02*
X133232000Y-94328571D01*
X133232000Y-94328571D02*
X133193904Y-94357142D01*
%TO.C,LED4*%
X101505662Y-90683706D02*
X101229683Y-90609757D01*
X101229683Y-90609757D02*
X101436738Y-89837017D01*
X101807304Y-90330700D02*
X102000489Y-90382464D01*
X101974825Y-90809418D02*
X101698846Y-90735469D01*
X101698846Y-90735469D02*
X101905902Y-89962729D01*
X101905902Y-89962729D02*
X102181881Y-90036677D01*
X102223206Y-90875971D02*
X102430261Y-90103230D01*
X102430261Y-90103230D02*
X102568251Y-90140205D01*
X102568251Y-90140205D02*
X102641185Y-90199186D01*
X102641185Y-90199186D02*
X102676661Y-90287570D01*
X102676661Y-90287570D02*
X102684539Y-90368559D01*
X102684539Y-90368559D02*
X102672698Y-90523143D01*
X102672698Y-90523143D02*
X102643119Y-90633534D01*
X102643119Y-90633534D02*
X102576082Y-90773328D01*
X102576082Y-90773328D02*
X102528764Y-90839528D01*
X102528764Y-90839528D02*
X102453849Y-90898332D01*
X102453849Y-90898332D02*
X102361195Y-90912945D01*
X102361195Y-90912945D02*
X102223206Y-90875971D01*
X103189179Y-90582655D02*
X103051143Y-91097816D01*
X103130068Y-90251304D02*
X102844182Y-90766287D01*
X102844182Y-90766287D02*
X103202955Y-90862420D01*
%TO.C,R6*%
X105731602Y-91192380D02*
X105311867Y-91286967D01*
X105642864Y-91523554D02*
X104870124Y-91316499D01*
X104870124Y-91316499D02*
X104929282Y-91095716D01*
X104929282Y-91095716D02*
X104980869Y-91050380D01*
X104980869Y-91050380D02*
X105025061Y-91032642D01*
X105025061Y-91032642D02*
X105106050Y-91024763D01*
X105106050Y-91024763D02*
X105216442Y-91054343D01*
X105216442Y-91054343D02*
X105282641Y-91101660D01*
X105282641Y-91101660D02*
X105312044Y-91139118D01*
X105312044Y-91139118D02*
X105334051Y-91204173D01*
X105334051Y-91204173D02*
X105274893Y-91424956D01*
X105091968Y-90488562D02*
X105062389Y-90598954D01*
X105062389Y-90598954D02*
X105084397Y-90664009D01*
X105084397Y-90664009D02*
X105113799Y-90701467D01*
X105113799Y-90701467D02*
X105209401Y-90786242D01*
X105209401Y-90786242D02*
X105349195Y-90853279D01*
X105349195Y-90853279D02*
X105643572Y-90932157D01*
X105643572Y-90932157D02*
X105724561Y-90924279D01*
X105724561Y-90924279D02*
X105768753Y-90906541D01*
X105768753Y-90906541D02*
X105820340Y-90861205D01*
X105820340Y-90861205D02*
X105849919Y-90750813D01*
X105849919Y-90750813D02*
X105827912Y-90685758D01*
X105827912Y-90685758D02*
X105798510Y-90648300D01*
X105798510Y-90648300D02*
X105732310Y-90600983D01*
X105732310Y-90600983D02*
X105548324Y-90551684D01*
X105548324Y-90551684D02*
X105467335Y-90559562D01*
X105467335Y-90559562D02*
X105423143Y-90577300D01*
X105423143Y-90577300D02*
X105371556Y-90622636D01*
X105371556Y-90622636D02*
X105341977Y-90733028D01*
X105341977Y-90733028D02*
X105363984Y-90798083D01*
X105363984Y-90798083D02*
X105393387Y-90835541D01*
X105393387Y-90835541D02*
X105459586Y-90882858D01*
D11*
%TO.C,R7*%
X93280000Y-103246359D02*
X93280000Y-103553641D01*
X92520000Y-103246359D02*
X92520000Y-103553641D01*
D12*
%TO.C,IC6*%
X104200000Y-104350000D02*
X104200000Y-103150000D01*
X104250000Y-102800000D02*
X104250000Y-102200000D01*
X107150000Y-102800000D02*
X104250000Y-102800000D01*
X104250000Y-102200000D02*
X107150000Y-102200000D01*
X107150000Y-102200000D02*
X107150000Y-102800000D01*
D13*
%TO.C,Q4*%
X126275000Y-113600000D02*
X126275000Y-113600000D01*
X126175000Y-113600000D02*
X126175000Y-113600000D01*
X126175000Y-113600000D02*
G75*
G03*
X126275000Y-113600000I50000J0D01*
G01*
X126275000Y-113600000D02*
G75*
G03*
X126175000Y-113600000I-50000J0D01*
G01*
D11*
%TO.C,C2*%
X127240000Y-93927836D02*
X127240000Y-93712164D01*
X127960000Y-93927836D02*
X127960000Y-93712164D01*
%TO.C,C7*%
X116460000Y-89192164D02*
X116460000Y-89407836D01*
X115740000Y-89192164D02*
X115740000Y-89407836D01*
D12*
%TO.C,D2*%
X111810845Y-108466103D02*
X111810845Y-108466103D01*
X111810845Y-108466103D02*
X111810845Y-108466103D01*
X111902964Y-108427190D02*
X111902964Y-108427190D01*
X111902963Y-108427190D02*
G75*
G03*
X111810845Y-108466103I-46059J-19456D01*
G01*
X111810845Y-108466103D02*
G75*
G03*
X111902963Y-108427190I46059J19457D01*
G01*
X111810845Y-108466103D02*
G75*
G03*
X111902963Y-108427190I46059J19457D01*
G01*
%TO.C,IC2*%
X123500000Y-106700000D02*
X122500000Y-106700000D01*
X122150000Y-106700000D02*
X121150000Y-106700000D01*
X122150000Y-103700000D02*
X122150000Y-106700000D01*
X121150000Y-106700000D02*
X121150000Y-103700000D01*
X121150000Y-103700000D02*
X122150000Y-103700000D01*
D14*
%TO.C,Q8*%
X93555000Y-104250000D02*
X99445000Y-104250000D01*
X93555000Y-109150000D02*
X99445000Y-109150000D01*
X92756330Y-104291670D02*
G75*
G03*
X92756330Y-104291670I-85000J0D01*
G01*
D11*
%TO.C,R10*%
X108380000Y-101746359D02*
X108380000Y-102053641D01*
X107620000Y-101746359D02*
X107620000Y-102053641D01*
%TO.C,C1*%
X130006132Y-106795595D02*
X130006132Y-107011267D01*
X129286132Y-106795595D02*
X129286132Y-107011267D01*
%TO.C,J1*%
X115920000Y-97670000D02*
X117250000Y-97670000D01*
X115920000Y-99000000D02*
X115920000Y-97670000D01*
X115920000Y-100270000D02*
X115920000Y-100330000D01*
X115920000Y-100270000D02*
X118580000Y-100270000D01*
X115920000Y-100330000D02*
X118580000Y-100330000D01*
X118580000Y-100270000D02*
X118580000Y-100330000D01*
D13*
%TO.C,Q2*%
X94043053Y-99385529D02*
X94043053Y-99385529D01*
X94139646Y-99411411D02*
X94139646Y-99411411D01*
X96026669Y-99709982D02*
X97572150Y-100124092D01*
X94139646Y-99411411D02*
G75*
G03*
X94043054Y-99385529I-48296J12941D01*
G01*
X94043055Y-99385529D02*
G75*
G03*
X94139645Y-99411411I48295J-12941D01*
G01*
D11*
%TO.C,R4*%
X109380000Y-102846359D02*
X109380000Y-103153641D01*
X108620000Y-102846359D02*
X108620000Y-103153641D01*
%TO.C,R1*%
X129266132Y-105216753D02*
X129266132Y-104909471D01*
X130026132Y-105216753D02*
X130026132Y-104909471D01*
%TO.C,J4*%
X125770000Y-88930000D02*
X125770000Y-87600000D01*
X127100000Y-88930000D02*
X125770000Y-88930000D01*
X128370000Y-88930000D02*
X136050000Y-88930000D01*
X128370000Y-88930000D02*
X128370000Y-86270000D01*
X136050000Y-88930000D02*
X136050000Y-86270000D01*
X128370000Y-86270000D02*
X136050000Y-86270000D01*
D14*
%TO.C,Q3*%
X102050000Y-111445000D02*
X102050000Y-105555000D01*
X106950000Y-111445000D02*
X106950000Y-105555000D01*
X102176670Y-112328670D02*
G75*
G03*
X102176670Y-112328670I-85000J0D01*
G01*
D11*
%TO.C,R8*%
X93520000Y-103553641D02*
X93520000Y-103246359D01*
X94280000Y-103553641D02*
X94280000Y-103246359D01*
%TO.C,C3*%
X126290000Y-93927836D02*
X126290000Y-93712164D01*
X127010000Y-93927836D02*
X127010000Y-93712164D01*
%TO.C,R5*%
X127220000Y-92053641D02*
X127220000Y-91746359D01*
X127980000Y-92053641D02*
X127980000Y-91746359D01*
%TO.C,R11*%
X130180000Y-90646359D02*
X130180000Y-90953641D01*
X129420000Y-90646359D02*
X129420000Y-90953641D01*
%TO.C,C8*%
X117960000Y-89192164D02*
X117960000Y-89407836D01*
X117240000Y-89192164D02*
X117240000Y-89407836D01*
%TO.C,R2*%
X130420000Y-90953641D02*
X130420000Y-90646359D01*
X131180000Y-90953641D02*
X131180000Y-90646359D01*
D12*
%TO.C,LED2*%
X122025000Y-114850000D02*
X122025000Y-112750000D01*
X122025000Y-112750000D02*
X119225000Y-112750000D01*
X119225000Y-114850000D02*
X122025000Y-114850000D01*
%TO.C,IC5*%
X103600000Y-100650000D02*
X103600000Y-101850000D01*
X103550000Y-102200000D02*
X103550000Y-102800000D01*
X100650000Y-102200000D02*
X103550000Y-102200000D01*
X103550000Y-102800000D02*
X100650000Y-102800000D01*
X100650000Y-102800000D02*
X100650000Y-102200000D01*
D11*
%TO.C,U1*%
X119730000Y-90600000D02*
X119730000Y-91740000D01*
X119960000Y-91740000D02*
X119730000Y-91740000D01*
X119960000Y-91740000D02*
X119960000Y-94460000D01*
X115240000Y-91740000D02*
X115470000Y-91740000D01*
X119960000Y-94460000D02*
X118650000Y-94460000D01*
X116550000Y-94460000D02*
X115240000Y-94460000D01*
X115240000Y-94460000D02*
X115240000Y-91740000D01*
%TO.C,C4*%
X100640000Y-99507836D02*
X100640000Y-99292164D01*
X101360000Y-99507836D02*
X101360000Y-99292164D01*
%TO.C,R3*%
X127746359Y-112320000D02*
X128053641Y-112320000D01*
X127746359Y-113080000D02*
X128053641Y-113080000D01*
D12*
%TO.C,S1*%
X123000000Y-97800000D02*
X123000000Y-110600000D01*
X116500000Y-97800000D02*
X123000000Y-97800000D01*
X127300000Y-99120000D02*
X127300000Y-99120000D01*
X127300000Y-99120000D02*
X127300000Y-99120000D01*
X127200000Y-99120000D02*
X127200000Y-99120000D01*
X124500000Y-99120000D02*
X123000000Y-99120000D01*
X124500000Y-104200000D02*
X123000000Y-104200000D01*
X124500000Y-109280000D02*
X123000000Y-109280000D01*
X123000000Y-110600000D02*
X116500000Y-110600000D01*
X116500000Y-110600000D02*
X116500000Y-97800000D01*
X127200000Y-99120000D02*
G75*
G03*
X127300000Y-99120000I50000J0D01*
G01*
X127300000Y-99120000D02*
G75*
G03*
X127200000Y-99120000I-50000J0D01*
G01*
X127300000Y-99120000D02*
G75*
G03*
X127200000Y-99120000I-50000J0D01*
G01*
%TO.C,IC3*%
X128400000Y-92500000D02*
G75*
G03*
X128400000Y-92500000I-100000J0D01*
G01*
D13*
%TO.C,LED4*%
X104458715Y-88842323D02*
X104458715Y-88842323D01*
X104362122Y-88816441D02*
X104362122Y-88816441D01*
X102475099Y-88517870D02*
X100929618Y-88103760D01*
X104362122Y-88816441D02*
G75*
G03*
X104458714Y-88842323I48296J-12941D01*
G01*
X104458713Y-88842323D02*
G75*
G03*
X104362123Y-88816441I-48295J12941D01*
G01*
D11*
%TO.C,R6*%
X105493183Y-89450055D02*
X105572713Y-89153243D01*
X106227287Y-89646757D02*
X106306817Y-89349945D01*
%TD*%
M02*
