%TF.GenerationSoftware,KiCad,Pcbnew,7.0.1*%
%TF.CreationDate,2024-02-21T00:56:40+02:00*%
%TF.ProjectId,PCBTRIGGERASSEMBLY,50434254-5249-4474-9745-52415353454d,rev?*%
%TF.SameCoordinates,Original*%
%TF.FileFunction,Copper,L2,Bot*%
%TF.FilePolarity,Positive*%
%FSLAX46Y46*%
G04 Gerber Fmt 4.6, Leading zero omitted, Abs format (unit mm)*
G04 Created by KiCad (PCBNEW 7.0.1) date 2024-02-21 00:56:40*
%MOMM*%
%LPD*%
G01*
G04 APERTURE LIST*
%TA.AperFunction,ComponentPad*%
%ADD10R,1.700000X1.700000*%
%TD*%
%TA.AperFunction,ComponentPad*%
%ADD11O,1.700000X1.700000*%
%TD*%
%TA.AperFunction,ComponentPad*%
%ADD12R,1.800000X1.800000*%
%TD*%
%TA.AperFunction,ComponentPad*%
%ADD13C,1.800000*%
%TD*%
%TA.AperFunction,SMDPad,CuDef*%
%ADD14R,0.800000X0.800000*%
%TD*%
%TA.AperFunction,SMDPad,CuDef*%
%ADD15R,1.400000X0.900000*%
%TD*%
%TA.AperFunction,ViaPad*%
%ADD16C,0.600000*%
%TD*%
%TA.AperFunction,ViaPad*%
%ADD17C,0.800000*%
%TD*%
%TA.AperFunction,Conductor*%
%ADD18C,0.200000*%
%TD*%
%TA.AperFunction,Conductor*%
%ADD19C,0.250000*%
%TD*%
%TA.AperFunction,Conductor*%
%ADD20C,0.300000*%
%TD*%
%TA.AperFunction,Conductor*%
%ADD21C,0.500000*%
%TD*%
G04 APERTURE END LIST*
D10*
%TO.P,J1,1,Pin_1*%
%TO.N,unconnected-(J1-Pin_1-Pad1)*%
X117250000Y-99000000D03*
%TD*%
%TO.P,J4,1,Pin_1*%
%TO.N,+3.3V*%
X127100000Y-87600000D03*
D11*
%TO.P,J4,2,Pin_2*%
%TO.N,GND*%
X129640000Y-87600000D03*
%TO.P,J4,3,Pin_3*%
%TO.N,/updiTx*%
X132180000Y-87600000D03*
%TO.P,J4,4,Pin_4*%
%TO.N,/updiRx*%
X134720000Y-87600000D03*
%TD*%
D12*
%TO.P,S1,1,COM*%
%TO.N,GND*%
X125800000Y-99120000D03*
D13*
%TO.P,S1,2,NO*%
%TO.N,/trigger*%
X125800000Y-104200000D03*
%TO.P,S1,3,NC*%
%TO.N,GND*%
X125800000Y-109280000D03*
%TD*%
D14*
%TO.P,Q1,1,C*%
%TO.N,/Semi_Auto*%
X127850000Y-105575000D03*
%TO.P,Q1,2,E*%
%TO.N,GND*%
X127850000Y-107225000D03*
%TD*%
D15*
%TO.P,LED1,1*%
%TO.N,GND*%
X127850000Y-109800000D03*
%TO.P,LED1,2*%
%TO.N,Net-(LED1-Pad2)*%
X127850000Y-111800000D03*
%TD*%
D16*
%TO.N,/Semi_Auto*%
X133198456Y-94201544D03*
X128776089Y-105623911D03*
X129400000Y-103353612D03*
D17*
%TO.N,GND*%
X132000000Y-106000000D03*
X101600000Y-110100000D03*
X130000000Y-99000000D03*
X93200000Y-101100000D03*
X101600000Y-111000000D03*
X133000000Y-101000000D03*
X102000000Y-91000000D03*
X114000000Y-105000000D03*
X103000000Y-93000000D03*
X108000000Y-92000000D03*
D16*
X101000000Y-98000000D03*
D17*
X114000000Y-101000000D03*
D16*
X100000000Y-99000000D03*
D17*
X114000000Y-103000000D03*
X130000000Y-101000000D03*
X112000000Y-105000000D03*
X107000000Y-94000000D03*
X114000000Y-99000000D03*
D16*
X97000000Y-100000000D03*
D17*
X133000000Y-99000000D03*
D16*
X99000000Y-99000000D03*
D17*
X132000000Y-108000000D03*
X134000000Y-106000000D03*
X134000000Y-108000000D03*
X101600000Y-111900000D03*
X104000000Y-91000000D03*
%TO.N,Net-(LED1-Pad2)*%
X129400000Y-112700000D03*
D16*
%TO.N,/V_Cycle*%
X125800000Y-92400000D03*
X101780331Y-99480331D03*
%TO.N,+12V*%
X96000000Y-103900000D03*
X112200000Y-108100000D03*
X107300000Y-90800000D03*
X112500000Y-108800000D03*
X95100000Y-103900000D03*
X97400000Y-103900000D03*
D17*
X126500000Y-112700000D03*
D16*
X113700000Y-109200000D03*
X102200000Y-103750000D03*
X112900000Y-107800000D03*
X115000000Y-90800000D03*
X96700000Y-103900000D03*
X112900000Y-109500000D03*
X113300000Y-108500000D03*
D17*
X117800000Y-111800000D03*
D16*
%TO.N,/trigger*%
X133758312Y-93495797D03*
%TO.N,/NMOS*%
X128800000Y-96949500D03*
X104730226Y-102529728D03*
%TO.N,/ACTIVE_BREAK*%
X130200000Y-96300000D03*
X103300000Y-100200000D03*
%TO.N,+3.3V*%
X125800000Y-94300000D03*
X118500000Y-89800000D03*
X128946888Y-104553112D03*
X124100000Y-106200000D03*
X128900000Y-90400000D03*
%TO.N,/updiRx*%
X131500000Y-91430000D03*
%TO.N,/updiTx*%
X131500000Y-90400000D03*
%TO.N,Net-(IC5-OUT_1)*%
X96405331Y-102655331D03*
D17*
X100200000Y-102500000D03*
%TO.N,Net-(Q3-Pad4)*%
X106775992Y-110299058D03*
X107762299Y-104062299D03*
%TD*%
D18*
%TO.N,/Semi_Auto*%
X134746388Y-103353612D02*
X129400000Y-103353612D01*
X135100000Y-103000000D02*
X134746388Y-103353612D01*
X135100000Y-96103088D02*
X135100000Y-103000000D01*
X133198456Y-94201544D02*
X135100000Y-96103088D01*
%TO.N,/trigger*%
X134600000Y-94300000D02*
X135500000Y-95200000D01*
X133795797Y-93495797D02*
X134600000Y-94300000D01*
X135046888Y-103953112D02*
X126046888Y-103953112D01*
X126046888Y-103953112D02*
X125800000Y-104200000D01*
X135500000Y-103500000D02*
X135046888Y-103953112D01*
X133758312Y-93495797D02*
X133795797Y-93495797D01*
X135500000Y-95200000D02*
X135500000Y-103500000D01*
%TO.N,/Semi_Auto*%
X127898911Y-105623911D02*
X127850000Y-105575000D01*
X128776089Y-105623911D02*
X127898911Y-105623911D01*
D19*
%TO.N,Net-(LED1-Pad2)*%
X128500000Y-111800000D02*
X127850000Y-111800000D01*
X129400000Y-112700000D02*
X128500000Y-111800000D01*
D20*
%TO.N,/V_Cycle*%
X101860662Y-99400000D02*
X107300000Y-99400000D01*
X107300000Y-99400000D02*
X108800000Y-97900000D01*
X108800000Y-94285788D02*
X110685788Y-92400000D01*
X110685788Y-92400000D02*
X125800000Y-92400000D01*
X108800000Y-97900000D02*
X108800000Y-94285788D01*
X101780331Y-99480331D02*
X101860662Y-99400000D01*
D21*
%TO.N,+12V*%
X125600000Y-111800000D02*
X126500000Y-112700000D01*
X96100000Y-101900000D02*
X98300000Y-101900000D01*
X107200000Y-90800000D02*
X107300000Y-90800000D01*
X102500000Y-95500000D02*
X107200000Y-90800000D01*
X102500000Y-97700000D02*
X102500000Y-95500000D01*
X98300000Y-101900000D02*
X102500000Y-97700000D01*
X95100000Y-102900000D02*
X96100000Y-101900000D01*
X96000000Y-103900000D02*
X96700000Y-103900000D01*
X96000000Y-103900000D02*
X95100000Y-103900000D01*
X102050000Y-103900000D02*
X102200000Y-103750000D01*
X117800000Y-111800000D02*
X125600000Y-111800000D01*
X95100000Y-103900000D02*
X95100000Y-102900000D01*
X97400000Y-103900000D02*
X102050000Y-103900000D01*
X107300000Y-90800000D02*
X115000000Y-90800000D01*
X97400000Y-103900000D02*
X96700000Y-103900000D01*
D20*
%TO.N,/NMOS*%
X125949500Y-96949500D02*
X122800000Y-93800000D01*
X110700000Y-93800000D02*
X109900000Y-94600000D01*
X122800000Y-93800000D02*
X110700000Y-93800000D01*
X109900000Y-94600000D02*
X109900000Y-98600000D01*
X107850000Y-100650000D02*
X104850000Y-100650000D01*
X109900000Y-98600000D02*
X107850000Y-100650000D01*
X128800000Y-96949500D02*
X125949500Y-96949500D01*
X104550000Y-100950000D02*
X104550000Y-102349502D01*
X104550000Y-102349502D02*
X104730226Y-102529728D01*
X104850000Y-100650000D02*
X104550000Y-100950000D01*
%TO.N,/ACTIVE_BREAK*%
X123400000Y-93100000D02*
X126600000Y-96300000D01*
X109300000Y-98200000D02*
X109300000Y-94492894D01*
X126600000Y-96300000D02*
X130200000Y-96300000D01*
X107500000Y-100000000D02*
X109300000Y-98200000D01*
X103500000Y-100000000D02*
X107500000Y-100000000D01*
X110692894Y-93100000D02*
X123400000Y-93100000D01*
X103300000Y-100200000D02*
X103500000Y-100000000D01*
X109300000Y-94492894D02*
X110692894Y-93100000D01*
D21*
%TO.N,+3.3V*%
X133927818Y-92350000D02*
X130850000Y-92350000D01*
X128950000Y-104550000D02*
X135227818Y-104550000D01*
X136050000Y-103727818D02*
X136050000Y-94472183D01*
X128900000Y-93600000D02*
X128200000Y-94300000D01*
X136050000Y-94472183D02*
X133927818Y-92350000D01*
X127356077Y-104553112D02*
X125709189Y-106200000D01*
X130850000Y-92350000D02*
X128900000Y-90400000D01*
X128900000Y-90400000D02*
X127100000Y-88600000D01*
X127100000Y-88600000D02*
X127100000Y-87600000D01*
X128946888Y-104553112D02*
X127356077Y-104553112D01*
X125709189Y-106200000D02*
X124100000Y-106200000D01*
X128946888Y-104553112D02*
X128950000Y-104550000D01*
X128900000Y-90400000D02*
X128900000Y-93600000D01*
X118500000Y-89800000D02*
X119100000Y-90400000D01*
X128200000Y-94300000D02*
X125800000Y-94300000D01*
X119100000Y-90400000D02*
X125300000Y-90400000D01*
X125300000Y-90400000D02*
X127100000Y-88600000D01*
X135227818Y-104550000D02*
X136050000Y-103727818D01*
D18*
%TO.N,/updiRx*%
X133170000Y-91430000D02*
X134720000Y-89880000D01*
X131500000Y-91430000D02*
X133170000Y-91430000D01*
X134720000Y-89880000D02*
X134720000Y-87600000D01*
%TO.N,/updiTx*%
X132000000Y-90400000D02*
X132180000Y-90220000D01*
X132180000Y-90220000D02*
X132180000Y-87600000D01*
X131500000Y-90400000D02*
X132000000Y-90400000D01*
D19*
%TO.N,Net-(IC5-OUT_1)*%
X96560662Y-102500000D02*
X100200000Y-102500000D01*
X96405331Y-102655331D02*
X96560662Y-102500000D01*
%TO.N,Net-(Q3-Pad4)*%
X106672447Y-105152151D02*
X107762299Y-104062299D01*
X106775992Y-110299058D02*
X106672447Y-110195513D01*
X106672447Y-110195513D02*
X106672447Y-105152151D01*
%TD*%
%TA.AperFunction,Conductor*%
%TO.N,GND*%
G36*
X129519504Y-91656608D02*
G01*
X130509632Y-92646736D01*
X130517029Y-92655014D01*
X130540120Y-92683970D01*
X130567723Y-92702789D01*
X130587750Y-92716443D01*
X130590753Y-92718574D01*
X130639904Y-92754849D01*
X130649024Y-92759453D01*
X130652326Y-92760471D01*
X130652327Y-92760472D01*
X130707441Y-92777472D01*
X130710881Y-92778603D01*
X130765300Y-92797646D01*
X130765303Y-92797646D01*
X130768570Y-92798789D01*
X130778637Y-92800500D01*
X130782098Y-92800500D01*
X130839715Y-92800500D01*
X130843417Y-92800569D01*
X130901010Y-92802724D01*
X130901011Y-92802723D01*
X130904467Y-92802853D01*
X130922345Y-92800500D01*
X133661208Y-92800500D01*
X133714732Y-92816216D01*
X133751262Y-92858374D01*
X133759200Y-92913589D01*
X133736027Y-92964331D01*
X133689099Y-92994490D01*
X133548257Y-93035844D01*
X133427186Y-93113651D01*
X133332934Y-93222425D01*
X133273146Y-93353341D01*
X133252664Y-93495796D01*
X133265915Y-93587955D01*
X133257977Y-93643170D01*
X133221446Y-93685328D01*
X133167923Y-93701044D01*
X133126495Y-93701044D01*
X132988401Y-93741591D01*
X132867330Y-93819398D01*
X132773078Y-93928172D01*
X132713290Y-94059088D01*
X132692808Y-94201543D01*
X132713290Y-94343999D01*
X132713291Y-94344001D01*
X132773079Y-94474917D01*
X132867328Y-94583687D01*
X132867330Y-94583689D01*
X132978726Y-94655278D01*
X132988403Y-94661497D01*
X133126495Y-94702044D01*
X133232977Y-94702044D01*
X133270863Y-94709580D01*
X133302981Y-94731040D01*
X134770504Y-96198563D01*
X134791964Y-96230681D01*
X134799500Y-96268567D01*
X134799500Y-102834521D01*
X134791964Y-102872407D01*
X134770504Y-102904525D01*
X134650913Y-103024116D01*
X134618795Y-103045576D01*
X134580909Y-103053112D01*
X129847084Y-103053112D01*
X129805958Y-103044166D01*
X129772265Y-103018943D01*
X129731128Y-102971468D01*
X129610054Y-102893659D01*
X129471961Y-102853112D01*
X129328039Y-102853112D01*
X129189945Y-102893659D01*
X129068874Y-102971466D01*
X128974622Y-103080240D01*
X128914834Y-103211156D01*
X128894352Y-103353611D01*
X128914834Y-103496067D01*
X128922332Y-103512485D01*
X128931027Y-103560674D01*
X128915563Y-103607135D01*
X128879725Y-103640502D01*
X128832279Y-103652612D01*
X126814972Y-103652612D01*
X126770844Y-103642233D01*
X126735968Y-103613273D01*
X126673935Y-103531128D01*
X126616764Y-103455421D01*
X126466041Y-103318019D01*
X126399478Y-103276805D01*
X126292639Y-103210653D01*
X126292637Y-103210652D01*
X126210376Y-103178784D01*
X126102453Y-103136974D01*
X125901978Y-103099500D01*
X125901976Y-103099500D01*
X125698024Y-103099500D01*
X125698022Y-103099500D01*
X125497546Y-103136974D01*
X125307360Y-103210653D01*
X125133961Y-103318017D01*
X125033170Y-103409900D01*
X124983236Y-103455421D01*
X124952542Y-103496067D01*
X124860325Y-103618181D01*
X124769419Y-103800747D01*
X124713603Y-103996917D01*
X124701073Y-104132145D01*
X124694785Y-104200000D01*
X124713603Y-104403083D01*
X124747930Y-104523729D01*
X124769419Y-104599252D01*
X124860325Y-104781818D01*
X124860326Y-104781819D01*
X124860327Y-104781821D01*
X124983236Y-104944579D01*
X125133959Y-105081981D01*
X125307363Y-105189348D01*
X125433486Y-105238208D01*
X125497546Y-105263025D01*
X125698022Y-105300500D01*
X125732578Y-105300500D01*
X125787579Y-105317184D01*
X125824042Y-105361614D01*
X125829676Y-105418814D01*
X125802582Y-105469503D01*
X125551583Y-105720503D01*
X125519465Y-105741964D01*
X125481579Y-105749500D01*
X124353832Y-105749500D01*
X124324630Y-105740926D01*
X124323711Y-105744057D01*
X124171961Y-105699500D01*
X124028039Y-105699500D01*
X123889945Y-105740047D01*
X123768874Y-105817854D01*
X123674622Y-105926628D01*
X123614834Y-106057544D01*
X123594352Y-106199999D01*
X123614834Y-106342455D01*
X123614835Y-106342457D01*
X123674623Y-106473373D01*
X123768872Y-106582143D01*
X123768874Y-106582145D01*
X123889945Y-106659952D01*
X123889947Y-106659953D01*
X124028039Y-106700500D01*
X124171961Y-106700500D01*
X124323711Y-106655943D01*
X124324630Y-106659073D01*
X124353832Y-106650500D01*
X125678325Y-106650500D01*
X125689408Y-106651122D01*
X125691784Y-106651389D01*
X125726224Y-106655270D01*
X125782882Y-106644548D01*
X125786456Y-106643941D01*
X125843476Y-106635348D01*
X125843479Y-106635346D01*
X125846913Y-106634829D01*
X125856593Y-106631644D01*
X125859659Y-106630023D01*
X125859661Y-106630023D01*
X125910633Y-106603082D01*
X125913917Y-106601424D01*
X125965831Y-106576425D01*
X125965832Y-106576423D01*
X125968951Y-106574922D01*
X125977277Y-106569014D01*
X125979722Y-106566568D01*
X125979727Y-106566566D01*
X126020506Y-106525785D01*
X126023117Y-106523270D01*
X126065383Y-106484055D01*
X126065384Y-106484052D01*
X126067921Y-106481699D01*
X126078892Y-106467399D01*
X127080495Y-105465797D01*
X127131186Y-105438703D01*
X127188386Y-105444337D01*
X127232816Y-105480800D01*
X127249500Y-105535801D01*
X127249500Y-105994747D01*
X127261133Y-106053231D01*
X127305447Y-106119552D01*
X127349762Y-106149162D01*
X127371769Y-106163867D01*
X127430252Y-106175500D01*
X128269747Y-106175500D01*
X128269748Y-106175500D01*
X128328231Y-106163867D01*
X128394552Y-106119552D01*
X128408722Y-106098344D01*
X128446723Y-106064819D01*
X128496336Y-106054489D01*
X128544560Y-106070063D01*
X128566034Y-106083863D01*
X128566036Y-106083864D01*
X128704128Y-106124411D01*
X128848050Y-106124411D01*
X128986142Y-106083864D01*
X129107217Y-106006054D01*
X129201466Y-105897284D01*
X129261254Y-105766368D01*
X129281736Y-105623911D01*
X129261254Y-105481454D01*
X129201466Y-105350538D01*
X129107217Y-105241768D01*
X129107216Y-105241767D01*
X129107214Y-105241765D01*
X129060912Y-105212009D01*
X129024381Y-105169851D01*
X129016443Y-105114636D01*
X129039616Y-105063894D01*
X129086543Y-105033735D01*
X129156941Y-105013065D01*
X129156941Y-105013064D01*
X129170598Y-105009055D01*
X129171060Y-105010629D01*
X129205562Y-105000500D01*
X135196954Y-105000500D01*
X135208037Y-105001122D01*
X135210413Y-105001389D01*
X135244853Y-105005270D01*
X135301511Y-104994548D01*
X135305085Y-104993941D01*
X135362105Y-104985348D01*
X135362108Y-104985346D01*
X135365542Y-104984829D01*
X135375222Y-104981644D01*
X135378288Y-104980023D01*
X135378290Y-104980023D01*
X135429262Y-104953082D01*
X135432546Y-104951424D01*
X135484460Y-104926425D01*
X135484461Y-104926423D01*
X135487580Y-104924922D01*
X135495906Y-104919014D01*
X135498351Y-104916568D01*
X135498356Y-104916566D01*
X135539134Y-104875786D01*
X135541745Y-104873271D01*
X135584012Y-104834055D01*
X135584013Y-104834052D01*
X135586550Y-104831699D01*
X135597521Y-104817399D01*
X136230496Y-104184423D01*
X136281186Y-104157330D01*
X136338386Y-104162964D01*
X136382815Y-104199427D01*
X136399500Y-104254428D01*
X136399500Y-108109084D01*
X136399015Y-108118871D01*
X136385189Y-108258041D01*
X136381339Y-108277229D01*
X136341590Y-108407092D01*
X136334041Y-108425147D01*
X136269522Y-108544655D01*
X136258570Y-108560870D01*
X136171805Y-108665348D01*
X136157877Y-108679092D01*
X136113528Y-108714937D01*
X136052254Y-108764462D01*
X136035892Y-108775199D01*
X135915538Y-108838124D01*
X135897384Y-108845433D01*
X135767003Y-108883453D01*
X135747765Y-108887047D01*
X135607549Y-108899097D01*
X135597757Y-108899452D01*
X135546297Y-108898768D01*
X135542488Y-108899500D01*
X135039882Y-108899500D01*
X135000000Y-108899500D01*
X134796553Y-108899500D01*
X134391394Y-108937044D01*
X134391391Y-108937044D01*
X134391386Y-108937045D01*
X133991434Y-109011809D01*
X133600064Y-109123163D01*
X133377066Y-109209553D01*
X133253745Y-109257328D01*
X133220642Y-109270152D01*
X132856417Y-109451515D01*
X132856412Y-109451517D01*
X132856410Y-109451519D01*
X132745213Y-109520369D01*
X132510459Y-109665722D01*
X132291025Y-109831431D01*
X132200813Y-109899557D01*
X132185751Y-109910931D01*
X131885053Y-110185053D01*
X131610931Y-110485751D01*
X131365722Y-110810459D01*
X131365721Y-110810461D01*
X131155798Y-111149500D01*
X131151515Y-111156417D01*
X130970152Y-111520642D01*
X130823163Y-111900064D01*
X130711809Y-112291434D01*
X130643890Y-112654769D01*
X130637044Y-112691394D01*
X130614308Y-112936757D01*
X130599500Y-113096557D01*
X130599500Y-114195139D01*
X130599023Y-114204843D01*
X130585093Y-114346271D01*
X130581307Y-114365305D01*
X130541472Y-114496624D01*
X130534045Y-114514554D01*
X130469357Y-114635577D01*
X130458575Y-114651714D01*
X130371517Y-114757794D01*
X130357794Y-114771517D01*
X130251714Y-114858575D01*
X130235577Y-114869357D01*
X130114554Y-114934045D01*
X130096624Y-114941472D01*
X129965305Y-114981307D01*
X129946271Y-114985093D01*
X129804843Y-114999023D01*
X129795139Y-114999500D01*
X118289310Y-114999500D01*
X118242474Y-114987720D01*
X118206783Y-114955184D01*
X118190732Y-114909635D01*
X118186574Y-114864760D01*
X118166369Y-114646715D01*
X118098398Y-114283105D01*
X117997168Y-113927318D01*
X117863542Y-113582388D01*
X117698659Y-113251260D01*
X117503928Y-112936757D01*
X117281008Y-112641564D01*
X117031802Y-112368198D01*
X116758436Y-112118992D01*
X116463243Y-111896072D01*
X116308081Y-111800000D01*
X117194318Y-111800000D01*
X117214955Y-111956761D01*
X117275464Y-112102841D01*
X117371717Y-112228282D01*
X117467971Y-112302139D01*
X117497159Y-112324536D01*
X117643238Y-112385044D01*
X117800000Y-112405682D01*
X117956762Y-112385044D01*
X118102841Y-112324536D01*
X118172666Y-112270957D01*
X118201109Y-112255754D01*
X118232932Y-112250500D01*
X125372388Y-112250500D01*
X125410274Y-112258036D01*
X125442392Y-112279496D01*
X125875318Y-112712422D01*
X125894104Y-112738639D01*
X125903467Y-112769503D01*
X125914955Y-112856761D01*
X125975464Y-113002841D01*
X126071717Y-113128282D01*
X126165476Y-113200225D01*
X126197159Y-113224536D01*
X126343238Y-113285044D01*
X126500000Y-113305682D01*
X126656762Y-113285044D01*
X126802841Y-113224536D01*
X126928282Y-113128282D01*
X127024536Y-113002841D01*
X127085044Y-112856762D01*
X127105682Y-112700000D01*
X127088772Y-112571554D01*
X127087570Y-112562422D01*
X127095999Y-112507661D01*
X127132530Y-112466004D01*
X127185723Y-112450500D01*
X128569746Y-112450500D01*
X128569748Y-112450500D01*
X128618295Y-112440843D01*
X128666345Y-112443204D01*
X128707611Y-112467937D01*
X128776706Y-112537032D01*
X128800448Y-112575213D01*
X128804855Y-112619957D01*
X128794318Y-112699999D01*
X128814955Y-112856761D01*
X128875464Y-113002841D01*
X128971717Y-113128282D01*
X129065476Y-113200225D01*
X129097159Y-113224536D01*
X129243238Y-113285044D01*
X129400000Y-113305682D01*
X129556762Y-113285044D01*
X129702841Y-113224536D01*
X129828282Y-113128282D01*
X129924536Y-113002841D01*
X129985044Y-112856762D01*
X130005682Y-112700000D01*
X129985044Y-112543238D01*
X129924536Y-112397159D01*
X129868810Y-112324535D01*
X129828282Y-112271717D01*
X129702841Y-112175464D01*
X129556761Y-112114955D01*
X129420636Y-112097034D01*
X129400000Y-112094318D01*
X129399999Y-112094318D01*
X129319957Y-112104855D01*
X129275213Y-112100448D01*
X129237032Y-112076706D01*
X128779496Y-111619170D01*
X128758036Y-111587052D01*
X128750500Y-111549166D01*
X128750500Y-111330253D01*
X128744801Y-111301602D01*
X128738867Y-111271769D01*
X128709358Y-111227606D01*
X128694552Y-111205447D01*
X128628231Y-111161133D01*
X128604522Y-111156417D01*
X128569748Y-111149500D01*
X127130252Y-111149500D01*
X127101010Y-111155316D01*
X127071768Y-111161133D01*
X127005447Y-111205447D01*
X126961133Y-111271768D01*
X126949500Y-111330253D01*
X126949500Y-112088049D01*
X126937810Y-112134717D01*
X126905501Y-112170365D01*
X126860203Y-112186572D01*
X126812614Y-112179513D01*
X126802843Y-112175465D01*
X126802841Y-112175464D01*
X126718861Y-112140678D01*
X126656761Y-112114955D01*
X126569502Y-112103467D01*
X126538638Y-112094104D01*
X126512421Y-112075318D01*
X125940366Y-111503263D01*
X125932968Y-111494983D01*
X125909878Y-111466028D01*
X125862259Y-111433562D01*
X125859241Y-111431421D01*
X125836695Y-111414781D01*
X125812882Y-111397207D01*
X125812880Y-111397206D01*
X125810094Y-111395150D01*
X125800976Y-111390547D01*
X125742596Y-111372539D01*
X125739081Y-111371382D01*
X125681439Y-111351213D01*
X125671353Y-111349500D01*
X125667902Y-111349500D01*
X125610284Y-111349500D01*
X125606582Y-111349431D01*
X125545532Y-111347146D01*
X125527655Y-111349500D01*
X118232932Y-111349500D01*
X118201109Y-111344246D01*
X118172666Y-111329042D01*
X118102841Y-111275464D01*
X117956761Y-111214955D01*
X117800000Y-111194318D01*
X117643238Y-111214955D01*
X117497158Y-111275464D01*
X117371717Y-111371717D01*
X117275464Y-111497158D01*
X117214955Y-111643238D01*
X117194318Y-111800000D01*
X116308081Y-111800000D01*
X116148740Y-111701341D01*
X115817612Y-111536458D01*
X115472682Y-111402832D01*
X115364291Y-111371992D01*
X115116888Y-111301600D01*
X114905102Y-111262010D01*
X114861182Y-111241788D01*
X114832078Y-111203176D01*
X114824733Y-111155385D01*
X114840898Y-111109816D01*
X114861645Y-111078666D01*
X114892179Y-111004743D01*
X114901571Y-110957404D01*
X114905500Y-110917413D01*
X114905500Y-109632133D01*
X114905500Y-109632129D01*
X114901468Y-109600500D01*
X114898930Y-109580587D01*
X114883326Y-109520367D01*
X114864035Y-109472113D01*
X113433538Y-106897218D01*
X113404196Y-106856872D01*
X113404195Y-106856871D01*
X113404193Y-106856868D01*
X113363445Y-106813168D01*
X113325245Y-106781080D01*
X113325244Y-106781079D01*
X113280439Y-106759143D01*
X113223975Y-106739574D01*
X113175207Y-106729080D01*
X113175204Y-106729080D01*
X113125346Y-106730645D01*
X113066293Y-106739756D01*
X113018278Y-106753290D01*
X110277305Y-107900674D01*
X110223883Y-107907179D01*
X110174951Y-107884776D01*
X110144968Y-107840085D01*
X110142795Y-107786312D01*
X110169072Y-107739350D01*
X110227855Y-107680568D01*
X110395056Y-107457213D01*
X110528769Y-107212337D01*
X110626271Y-106950923D01*
X110685578Y-106678294D01*
X110705482Y-106400000D01*
X110685578Y-106121706D01*
X110685109Y-106119552D01*
X110643141Y-105926627D01*
X110626271Y-105849077D01*
X110528769Y-105587663D01*
X110528769Y-105587662D01*
X110395056Y-105342787D01*
X110375890Y-105317184D01*
X110227855Y-105119432D01*
X110030568Y-104922145D01*
X109807213Y-104754944D01*
X109807214Y-104754944D01*
X109807212Y-104754943D01*
X109562337Y-104621230D01*
X109387114Y-104555876D01*
X109300923Y-104523729D01*
X109300919Y-104523728D01*
X109028299Y-104464422D01*
X108750000Y-104444518D01*
X108471705Y-104464421D01*
X108408264Y-104478222D01*
X108355119Y-104475135D01*
X108311256Y-104444969D01*
X108289358Y-104396446D01*
X108295756Y-104343601D01*
X108347343Y-104219061D01*
X108367981Y-104062299D01*
X108347343Y-103905537D01*
X108286835Y-103759458D01*
X108210006Y-103659332D01*
X108190581Y-103634016D01*
X108065140Y-103537763D01*
X107919060Y-103477254D01*
X107762299Y-103456617D01*
X107605537Y-103477254D01*
X107459457Y-103537763D01*
X107334016Y-103634016D01*
X107237763Y-103759457D01*
X107177254Y-103905537D01*
X107156617Y-104062299D01*
X107167154Y-104142340D01*
X107162747Y-104187084D01*
X107139005Y-104225265D01*
X106455387Y-104908883D01*
X106449021Y-104914716D01*
X106419251Y-104939696D01*
X106399818Y-104973355D01*
X106395181Y-104980635D01*
X106372891Y-105012469D01*
X106372500Y-105013931D01*
X106362615Y-105037796D01*
X106361857Y-105039107D01*
X106355109Y-105077374D01*
X106353241Y-105085800D01*
X106343182Y-105123342D01*
X106346570Y-105162055D01*
X106346947Y-105170685D01*
X106346947Y-108397937D01*
X106331443Y-108451129D01*
X106289787Y-108487661D01*
X106235026Y-108496090D01*
X106222948Y-108494500D01*
X106222947Y-108494500D01*
X105336742Y-108494500D01*
X105296186Y-108485812D01*
X105262748Y-108461272D01*
X102107783Y-104911937D01*
X101755191Y-104515271D01*
X101731332Y-104464518D01*
X101738874Y-104408944D01*
X101775400Y-104366386D01*
X101829186Y-104350500D01*
X102019136Y-104350500D01*
X102030219Y-104351122D01*
X102032595Y-104351389D01*
X102067035Y-104355270D01*
X102123693Y-104344548D01*
X102127267Y-104343941D01*
X102184287Y-104335348D01*
X102184290Y-104335346D01*
X102187724Y-104334829D01*
X102197404Y-104331644D01*
X102200470Y-104330023D01*
X102200472Y-104330023D01*
X102251444Y-104303082D01*
X102254728Y-104301424D01*
X102306642Y-104276425D01*
X102306643Y-104276423D01*
X102309762Y-104274922D01*
X102318085Y-104269016D01*
X102320531Y-104266569D01*
X102320538Y-104266566D01*
X102345608Y-104241494D01*
X102387721Y-104216510D01*
X102393310Y-104214868D01*
X102410053Y-104209953D01*
X102531128Y-104132143D01*
X102625377Y-104023373D01*
X102685165Y-103892457D01*
X102705647Y-103750000D01*
X102685165Y-103607543D01*
X102625377Y-103476627D01*
X102531128Y-103367857D01*
X102531127Y-103367856D01*
X102531125Y-103367854D01*
X102410054Y-103290047D01*
X102271961Y-103249500D01*
X102128039Y-103249500D01*
X101989945Y-103290047D01*
X101868871Y-103367856D01*
X101827735Y-103415331D01*
X101794042Y-103440554D01*
X101752916Y-103449500D01*
X100943500Y-103449500D01*
X100899226Y-103439048D01*
X100864300Y-103409900D01*
X100801599Y-103326299D01*
X100793736Y-103318017D01*
X100768871Y-103291825D01*
X100725126Y-103255317D01*
X100704247Y-103241651D01*
X100685355Y-103229285D01*
X100640670Y-103213088D01*
X100625934Y-103209609D01*
X100585215Y-103199997D01*
X100585209Y-103199996D01*
X100585208Y-103199996D01*
X100557679Y-103196790D01*
X100504695Y-103173615D01*
X100473699Y-103124792D01*
X100475267Y-103066982D01*
X100508862Y-103019915D01*
X100628282Y-102928282D01*
X100630494Y-102925400D01*
X100662740Y-102883375D01*
X100724536Y-102802841D01*
X100785044Y-102656762D01*
X100805682Y-102500000D01*
X100785044Y-102343238D01*
X100724536Y-102197159D01*
X100686494Y-102147582D01*
X100628282Y-102071717D01*
X100502841Y-101975464D01*
X100356761Y-101914955D01*
X100200000Y-101894318D01*
X100043238Y-101914955D01*
X99897158Y-101975464D01*
X99771717Y-102071717D01*
X99722571Y-102135767D01*
X99687816Y-102164290D01*
X99644029Y-102174500D01*
X98901612Y-102174500D01*
X98846611Y-102157816D01*
X98810148Y-102113386D01*
X98804514Y-102056186D01*
X98831608Y-102005496D01*
X99221159Y-101615945D01*
X101168996Y-99668105D01*
X101209415Y-99643634D01*
X101256576Y-99640684D01*
X101299732Y-99659929D01*
X101329051Y-99696985D01*
X101354952Y-99753701D01*
X101354953Y-99753702D01*
X101354954Y-99753704D01*
X101449203Y-99862474D01*
X101449205Y-99862476D01*
X101549027Y-99926627D01*
X101570278Y-99940284D01*
X101708370Y-99980831D01*
X101852292Y-99980831D01*
X101990384Y-99940284D01*
X102111459Y-99862474D01*
X102178878Y-99784667D01*
X102212570Y-99759447D01*
X102253696Y-99750500D01*
X102810458Y-99750500D01*
X102863981Y-99766216D01*
X102900511Y-99808373D01*
X102908450Y-99863588D01*
X102885278Y-99914330D01*
X102874623Y-99926626D01*
X102814834Y-100057544D01*
X102794352Y-100199999D01*
X102814834Y-100342455D01*
X102871606Y-100466768D01*
X102874623Y-100473373D01*
X102915235Y-100520242D01*
X102968874Y-100582145D01*
X103089945Y-100659952D01*
X103089947Y-100659953D01*
X103228039Y-100700500D01*
X103371961Y-100700500D01*
X103510053Y-100659953D01*
X103631128Y-100582143D01*
X103725377Y-100473373D01*
X103755061Y-100408373D01*
X103791592Y-100366216D01*
X103845115Y-100350500D01*
X104414809Y-100350500D01*
X104469811Y-100367185D01*
X104506273Y-100411614D01*
X104511907Y-100468814D01*
X104484812Y-100519504D01*
X104335116Y-100669199D01*
X104319265Y-100682072D01*
X104309330Y-100688563D01*
X104290546Y-100712696D01*
X104282437Y-100721880D01*
X104281627Y-100722690D01*
X104270134Y-100738786D01*
X104267690Y-100742062D01*
X104234139Y-100785169D01*
X104232313Y-100788716D01*
X104216717Y-100841097D01*
X104215470Y-100844990D01*
X104197728Y-100896672D01*
X104197157Y-100900591D01*
X104199415Y-100955175D01*
X104199500Y-100959267D01*
X104199500Y-102302883D01*
X104197393Y-102323199D01*
X104194957Y-102334816D01*
X104198740Y-102365165D01*
X104199500Y-102377410D01*
X104199500Y-102378544D01*
X104202751Y-102398030D01*
X104203340Y-102402074D01*
X104210101Y-102456306D01*
X104211313Y-102460089D01*
X104214121Y-102465278D01*
X104224511Y-102494998D01*
X104225045Y-102526478D01*
X104224578Y-102529725D01*
X104245060Y-102672183D01*
X104258826Y-102702327D01*
X104304849Y-102803101D01*
X104392733Y-102904525D01*
X104399100Y-102911873D01*
X104520171Y-102989680D01*
X104520173Y-102989681D01*
X104658265Y-103030228D01*
X104802187Y-103030228D01*
X104940279Y-102989681D01*
X105061354Y-102911871D01*
X105155603Y-102803101D01*
X105215391Y-102672185D01*
X105235873Y-102529728D01*
X105215391Y-102387271D01*
X105155603Y-102256355D01*
X105061354Y-102147585D01*
X105061353Y-102147584D01*
X105061351Y-102147582D01*
X104945977Y-102073436D01*
X104912610Y-102037598D01*
X104900500Y-101990152D01*
X104900500Y-101800000D01*
X109494731Y-101800000D01*
X109513777Y-102054153D01*
X109570493Y-102302641D01*
X109663604Y-102539883D01*
X109791044Y-102760617D01*
X109949944Y-102959871D01*
X109949948Y-102959875D01*
X109949950Y-102959877D01*
X110136783Y-103133232D01*
X110169930Y-103155831D01*
X110347364Y-103276804D01*
X110347365Y-103276804D01*
X110347366Y-103276805D01*
X110576996Y-103387389D01*
X110820542Y-103462513D01*
X111009559Y-103491003D01*
X111072564Y-103500500D01*
X111072565Y-103500500D01*
X111327435Y-103500500D01*
X111327436Y-103500500D01*
X111377839Y-103492902D01*
X111579458Y-103462513D01*
X111823004Y-103387389D01*
X112052634Y-103276805D01*
X112263217Y-103133232D01*
X112450050Y-102959877D01*
X112454365Y-102954467D01*
X112608955Y-102760617D01*
X112608954Y-102760617D01*
X112608959Y-102760612D01*
X112736393Y-102539888D01*
X112829508Y-102302637D01*
X112886222Y-102054157D01*
X112905268Y-101800000D01*
X112886222Y-101545843D01*
X112829508Y-101297363D01*
X112766252Y-101136190D01*
X112736395Y-101060116D01*
X112704599Y-101005043D01*
X112608959Y-100839388D01*
X112608957Y-100839385D01*
X112608955Y-100839382D01*
X112450055Y-100640128D01*
X112387564Y-100582145D01*
X112263217Y-100466768D01*
X112182321Y-100411614D01*
X112052635Y-100323195D01*
X111823006Y-100212612D01*
X111823004Y-100212611D01*
X111579458Y-100137487D01*
X111579456Y-100137486D01*
X111579454Y-100137486D01*
X111327436Y-100099500D01*
X111327435Y-100099500D01*
X111072565Y-100099500D01*
X111072564Y-100099500D01*
X110820545Y-100137486D01*
X110576993Y-100212612D01*
X110347364Y-100323195D01*
X110136788Y-100466764D01*
X110136785Y-100466766D01*
X110136783Y-100466768D01*
X110079947Y-100519504D01*
X109949944Y-100640128D01*
X109791044Y-100839382D01*
X109663604Y-101060116D01*
X109570493Y-101297358D01*
X109513777Y-101545846D01*
X109494731Y-101800000D01*
X104900500Y-101800000D01*
X104900500Y-101136190D01*
X104908036Y-101098304D01*
X104929496Y-101066186D01*
X104966186Y-101029496D01*
X104998304Y-101008036D01*
X105036190Y-101000500D01*
X107803381Y-101000500D01*
X107823697Y-101002607D01*
X107835315Y-101005043D01*
X107863393Y-101001542D01*
X107865663Y-101001260D01*
X107877908Y-101000500D01*
X107879042Y-101000500D01*
X107898521Y-100997249D01*
X107902545Y-100996661D01*
X107951393Y-100990573D01*
X107951393Y-100990572D01*
X107956822Y-100989896D01*
X107960572Y-100988694D01*
X107965379Y-100986092D01*
X107965381Y-100986092D01*
X108008655Y-100962671D01*
X108012259Y-100960816D01*
X108056484Y-100939198D01*
X108056485Y-100939196D01*
X108061398Y-100936795D01*
X108064550Y-100934444D01*
X108068254Y-100930420D01*
X108068258Y-100930418D01*
X108101602Y-100894195D01*
X108104364Y-100891316D01*
X109125932Y-99869747D01*
X116199500Y-99869747D01*
X116211133Y-99928231D01*
X116255447Y-99994552D01*
X116299762Y-100024162D01*
X116321769Y-100038867D01*
X116380252Y-100050500D01*
X118119747Y-100050500D01*
X118119748Y-100050500D01*
X118178231Y-100038867D01*
X118244552Y-99994552D01*
X118288867Y-99928231D01*
X118300500Y-99869748D01*
X118300500Y-98130252D01*
X118288867Y-98071769D01*
X118247513Y-98009879D01*
X118244552Y-98005447D01*
X118178231Y-97961133D01*
X118168654Y-97959228D01*
X118119748Y-97949500D01*
X116380252Y-97949500D01*
X116375225Y-97950500D01*
X116321768Y-97961133D01*
X116255447Y-98005447D01*
X116211133Y-98071768D01*
X116199500Y-98130253D01*
X116199500Y-99869747D01*
X109125932Y-99869747D01*
X110114881Y-98880798D01*
X110130729Y-98867930D01*
X110140669Y-98861437D01*
X110159462Y-98837290D01*
X110167576Y-98828104D01*
X110168375Y-98827306D01*
X110179856Y-98811224D01*
X110182301Y-98807946D01*
X110206069Y-98777410D01*
X110212517Y-98769126D01*
X110212517Y-98769124D01*
X110215875Y-98764811D01*
X110217678Y-98761309D01*
X110219238Y-98756068D01*
X110219240Y-98756066D01*
X110233282Y-98708896D01*
X110234520Y-98705034D01*
X110252272Y-98653325D01*
X110252842Y-98649407D01*
X110250585Y-98594814D01*
X110250500Y-98590723D01*
X110250500Y-96250000D01*
X110644731Y-96250000D01*
X110663777Y-96504153D01*
X110663778Y-96504157D01*
X110714711Y-96727311D01*
X110720493Y-96752641D01*
X110813604Y-96989883D01*
X110941044Y-97210617D01*
X111099944Y-97409871D01*
X111099948Y-97409875D01*
X111099950Y-97409877D01*
X111286783Y-97583232D01*
X111383232Y-97648990D01*
X111497364Y-97726804D01*
X111497365Y-97726804D01*
X111497366Y-97726805D01*
X111726996Y-97837389D01*
X111970542Y-97912513D01*
X112159559Y-97941003D01*
X112222564Y-97950500D01*
X112222565Y-97950500D01*
X112477435Y-97950500D01*
X112477436Y-97950500D01*
X112527839Y-97942902D01*
X112729458Y-97912513D01*
X112973004Y-97837389D01*
X113202634Y-97726805D01*
X113413217Y-97583232D01*
X113600050Y-97409877D01*
X113679212Y-97310612D01*
X113758955Y-97210617D01*
X113758954Y-97210617D01*
X113758959Y-97210612D01*
X113886393Y-96989888D01*
X113979508Y-96752637D01*
X114036222Y-96504157D01*
X114055268Y-96250000D01*
X114036222Y-95995843D01*
X113979508Y-95747363D01*
X113955368Y-95685855D01*
X113886395Y-95510116D01*
X113886393Y-95510112D01*
X113758959Y-95289388D01*
X113758957Y-95289385D01*
X113758955Y-95289382D01*
X113600055Y-95090128D01*
X113600050Y-95090123D01*
X113413217Y-94916768D01*
X113388479Y-94899902D01*
X113202635Y-94773195D01*
X112973006Y-94662612D01*
X112973004Y-94662611D01*
X112729458Y-94587487D01*
X112729456Y-94587486D01*
X112729454Y-94587486D01*
X112477436Y-94549500D01*
X112477435Y-94549500D01*
X112222565Y-94549500D01*
X112222564Y-94549500D01*
X111970545Y-94587486D01*
X111970541Y-94587487D01*
X111970542Y-94587487D01*
X111730608Y-94661497D01*
X111726993Y-94662612D01*
X111497364Y-94773195D01*
X111286788Y-94916764D01*
X111286785Y-94916766D01*
X111286783Y-94916768D01*
X111229947Y-94969504D01*
X111099944Y-95090128D01*
X110941044Y-95289382D01*
X110813604Y-95510116D01*
X110720493Y-95747358D01*
X110663777Y-95995846D01*
X110644731Y-96250000D01*
X110250500Y-96250000D01*
X110250500Y-94786190D01*
X110258036Y-94748304D01*
X110279496Y-94716186D01*
X110816185Y-94179496D01*
X110848303Y-94158036D01*
X110886189Y-94150500D01*
X122613810Y-94150500D01*
X122651696Y-94158036D01*
X122683814Y-94179496D01*
X125668698Y-97164380D01*
X125681570Y-97180232D01*
X125688063Y-97190169D01*
X125707300Y-97205141D01*
X125712189Y-97208947D01*
X125721380Y-97217063D01*
X125722191Y-97217874D01*
X125738267Y-97229352D01*
X125741548Y-97231798D01*
X125784686Y-97265373D01*
X125788198Y-97267181D01*
X125793433Y-97268739D01*
X125793434Y-97268740D01*
X125840585Y-97282777D01*
X125844467Y-97284020D01*
X125891012Y-97300000D01*
X125891014Y-97300000D01*
X125896173Y-97301771D01*
X125900093Y-97302342D01*
X125905545Y-97302116D01*
X125905547Y-97302117D01*
X125954686Y-97300084D01*
X125958777Y-97300000D01*
X128396241Y-97300000D01*
X128437367Y-97308947D01*
X128460500Y-97326263D01*
X128468875Y-97331645D01*
X128589947Y-97409453D01*
X128728039Y-97450000D01*
X128871961Y-97450000D01*
X129010053Y-97409453D01*
X129131128Y-97331643D01*
X129225377Y-97222873D01*
X129285165Y-97091957D01*
X129305647Y-96949500D01*
X129285165Y-96807043D01*
X129277668Y-96790627D01*
X129268973Y-96742438D01*
X129284437Y-96695977D01*
X129320275Y-96662610D01*
X129367721Y-96650500D01*
X129796241Y-96650500D01*
X129837367Y-96659447D01*
X129860500Y-96676763D01*
X129962693Y-96742438D01*
X129989947Y-96759953D01*
X130128039Y-96800500D01*
X130271961Y-96800500D01*
X130410053Y-96759953D01*
X130531128Y-96682143D01*
X130625377Y-96573373D01*
X130685165Y-96442457D01*
X130705647Y-96300000D01*
X130685165Y-96157543D01*
X130625377Y-96026627D01*
X130531128Y-95917857D01*
X130531127Y-95917856D01*
X130531125Y-95917854D01*
X130410054Y-95840047D01*
X130271961Y-95799500D01*
X130128039Y-95799500D01*
X129989945Y-95840047D01*
X129860500Y-95923236D01*
X129837367Y-95940553D01*
X129796241Y-95949500D01*
X126786190Y-95949500D01*
X126748304Y-95941964D01*
X126716186Y-95920504D01*
X125765186Y-94969504D01*
X125738092Y-94918814D01*
X125743726Y-94861614D01*
X125780189Y-94817185D01*
X125835190Y-94800500D01*
X125871961Y-94800500D01*
X126023711Y-94755943D01*
X126024630Y-94759073D01*
X126053832Y-94750500D01*
X128169136Y-94750500D01*
X128180219Y-94751122D01*
X128182595Y-94751389D01*
X128217035Y-94755270D01*
X128273693Y-94744548D01*
X128277267Y-94743941D01*
X128334287Y-94735348D01*
X128334290Y-94735346D01*
X128337724Y-94734829D01*
X128347404Y-94731644D01*
X128350470Y-94730023D01*
X128350472Y-94730023D01*
X128401444Y-94703082D01*
X128404728Y-94701424D01*
X128456642Y-94676425D01*
X128456643Y-94676423D01*
X128459762Y-94674922D01*
X128468088Y-94669014D01*
X128470533Y-94666568D01*
X128470538Y-94666566D01*
X128511317Y-94625785D01*
X128513928Y-94623270D01*
X128556194Y-94584055D01*
X128556195Y-94584052D01*
X128558732Y-94581699D01*
X128569703Y-94567399D01*
X129196748Y-93940354D01*
X129205007Y-93932975D01*
X129233970Y-93909879D01*
X129266452Y-93862235D01*
X129268531Y-93859303D01*
X129302792Y-93812883D01*
X129302794Y-93812877D01*
X129304854Y-93810086D01*
X129309452Y-93800979D01*
X129327462Y-93742590D01*
X129328620Y-93739070D01*
X129338200Y-93711693D01*
X129347646Y-93684700D01*
X129347646Y-93684697D01*
X129348790Y-93681428D01*
X129350500Y-93671368D01*
X129350500Y-93610285D01*
X129350569Y-93606583D01*
X129352853Y-93545532D01*
X129350500Y-93527655D01*
X129350500Y-91726612D01*
X129367185Y-91671611D01*
X129411614Y-91635148D01*
X129468814Y-91629514D01*
X129519504Y-91656608D01*
G37*
%TD.AperFunction*%
%TA.AperFunction,Conductor*%
G36*
X105901713Y-86109847D02*
G01*
X105935776Y-86136122D01*
X106315929Y-86592307D01*
X106329069Y-86612727D01*
X106336532Y-86628223D01*
X106408937Y-86685966D01*
X106414779Y-86687167D01*
X106414781Y-86687169D01*
X106429406Y-86690177D01*
X106431350Y-86690598D01*
X106474731Y-86700500D01*
X106474733Y-86700500D01*
X106478926Y-86701457D01*
X106489464Y-86702530D01*
X106492089Y-86703069D01*
X106504430Y-86705608D01*
X106512911Y-86703478D01*
X106537014Y-86700500D01*
X109277989Y-86700500D01*
X109333263Y-86717368D01*
X109369703Y-86762223D01*
X109454976Y-86972022D01*
X109579074Y-87196047D01*
X109599178Y-87232339D01*
X109773458Y-87473555D01*
X109923858Y-87636469D01*
X109975319Y-87692212D01*
X110201867Y-87885176D01*
X110240073Y-87910520D01*
X110449853Y-88049679D01*
X110715723Y-88183363D01*
X110995665Y-88284314D01*
X111285666Y-88351081D01*
X111581568Y-88382710D01*
X111879130Y-88378746D01*
X112174084Y-88339246D01*
X112462204Y-88264776D01*
X112739357Y-88156404D01*
X113001572Y-88015684D01*
X113245088Y-87844633D01*
X113466414Y-87645703D01*
X113662378Y-87421746D01*
X113830170Y-87175973D01*
X113967385Y-86911907D01*
X114072055Y-86633335D01*
X114142681Y-86344249D01*
X114148481Y-86296071D01*
X114161531Y-86187668D01*
X114178307Y-86143317D01*
X114213783Y-86111856D01*
X114259821Y-86100500D01*
X121900500Y-86100500D01*
X121950000Y-86113763D01*
X121986237Y-86150000D01*
X121999500Y-86199500D01*
X121999500Y-87927436D01*
X122022002Y-88076728D01*
X122037487Y-88179458D01*
X122098959Y-88378746D01*
X122112612Y-88423006D01*
X122223195Y-88652635D01*
X122293718Y-88756073D01*
X122366768Y-88863217D01*
X122484449Y-88990047D01*
X122540128Y-89050055D01*
X122739382Y-89208955D01*
X122739385Y-89208957D01*
X122739388Y-89208959D01*
X122960112Y-89336393D01*
X122960113Y-89336393D01*
X122960116Y-89336395D01*
X123167669Y-89417854D01*
X123197363Y-89429508D01*
X123445843Y-89486222D01*
X123700000Y-89505268D01*
X123954157Y-89486222D01*
X124202637Y-89429508D01*
X124439888Y-89336393D01*
X124660612Y-89208959D01*
X124859877Y-89050050D01*
X125033232Y-88863217D01*
X125176805Y-88652634D01*
X125287389Y-88423004D01*
X125362513Y-88179458D01*
X125400500Y-87927435D01*
X125400500Y-87800000D01*
X125400500Y-87760118D01*
X125400500Y-86199500D01*
X125413763Y-86150000D01*
X125450000Y-86113763D01*
X125499500Y-86100500D01*
X136300500Y-86100500D01*
X136350000Y-86113763D01*
X136386237Y-86150000D01*
X136399500Y-86199500D01*
X136399500Y-93945572D01*
X136382815Y-94000573D01*
X136338386Y-94037036D01*
X136281186Y-94042670D01*
X136230496Y-94015576D01*
X134268185Y-92053265D01*
X134260786Y-92044984D01*
X134260764Y-92044957D01*
X134237697Y-92016030D01*
X134237696Y-92016029D01*
X134190077Y-91983562D01*
X134187059Y-91981421D01*
X134164513Y-91964781D01*
X134140700Y-91947207D01*
X134140698Y-91947206D01*
X134137912Y-91945150D01*
X134128794Y-91940547D01*
X134109754Y-91934674D01*
X134101822Y-91932227D01*
X134070414Y-91922539D01*
X134066899Y-91921382D01*
X134009257Y-91901213D01*
X133999171Y-91899500D01*
X133995720Y-91899500D01*
X133938102Y-91899500D01*
X133934400Y-91899431D01*
X133873350Y-91897146D01*
X133855473Y-91899500D01*
X133330502Y-91899500D01*
X133281532Y-91886540D01*
X133245383Y-91851054D01*
X133231519Y-91802332D01*
X133243570Y-91753130D01*
X133278382Y-91716331D01*
X133280433Y-91715061D01*
X133304618Y-91700086D01*
X133316722Y-91693704D01*
X133342765Y-91682206D01*
X133349710Y-91675259D01*
X133367597Y-91661091D01*
X133375952Y-91655919D01*
X133393095Y-91633216D01*
X133402082Y-91622887D01*
X134886405Y-90138564D01*
X134899496Y-90129147D01*
X134904225Y-90123959D01*
X134904228Y-90123958D01*
X134935877Y-90089239D01*
X134938994Y-90085975D01*
X134952174Y-90072797D01*
X134952238Y-90072702D01*
X134960745Y-90061961D01*
X134979916Y-90040933D01*
X134983466Y-90031766D01*
X134994104Y-90011585D01*
X134999656Y-90003481D01*
X135006169Y-89975785D01*
X135010221Y-89962702D01*
X135020500Y-89936173D01*
X135020500Y-89926348D01*
X135023130Y-89903679D01*
X135024113Y-89899500D01*
X135025379Y-89894119D01*
X135021448Y-89865946D01*
X135020500Y-89852269D01*
X135020500Y-88680038D01*
X135029325Y-88639180D01*
X135054225Y-88605606D01*
X135090762Y-88585301D01*
X135104970Y-88580990D01*
X135123954Y-88575232D01*
X135306450Y-88477685D01*
X135466410Y-88346410D01*
X135597685Y-88186450D01*
X135695232Y-88003954D01*
X135755300Y-87805934D01*
X135775583Y-87600000D01*
X135755300Y-87394066D01*
X135695232Y-87196046D01*
X135597685Y-87013550D01*
X135466410Y-86853590D01*
X135306450Y-86722315D01*
X135123954Y-86624768D01*
X135123953Y-86624767D01*
X135123952Y-86624767D01*
X134925933Y-86564699D01*
X134720000Y-86544416D01*
X134514066Y-86564699D01*
X134316047Y-86624767D01*
X134133549Y-86722315D01*
X133973590Y-86853590D01*
X133842315Y-87013549D01*
X133744767Y-87196047D01*
X133684699Y-87394066D01*
X133664416Y-87599999D01*
X133684699Y-87805933D01*
X133734461Y-87969976D01*
X133744768Y-88003954D01*
X133842315Y-88186450D01*
X133973590Y-88346410D01*
X134133550Y-88477685D01*
X134316046Y-88575232D01*
X134329338Y-88579264D01*
X134349238Y-88585301D01*
X134385775Y-88605606D01*
X134410675Y-88639180D01*
X134419500Y-88680038D01*
X134419500Y-89714521D01*
X134411964Y-89752407D01*
X134390504Y-89784525D01*
X133074525Y-91100504D01*
X133042407Y-91121964D01*
X133004521Y-91129500D01*
X131947084Y-91129500D01*
X131905958Y-91120554D01*
X131872265Y-91095331D01*
X131831128Y-91047856D01*
X131753991Y-90998284D01*
X131720624Y-90962446D01*
X131708514Y-90915000D01*
X131720624Y-90867554D01*
X131753991Y-90831716D01*
X131831127Y-90782144D01*
X131831128Y-90782143D01*
X131869672Y-90737659D01*
X131901294Y-90713413D01*
X131939918Y-90703598D01*
X132004642Y-90700606D01*
X132009214Y-90700500D01*
X132027844Y-90700500D01*
X132027951Y-90700480D01*
X132041571Y-90698898D01*
X132069992Y-90697585D01*
X132078982Y-90693615D01*
X132100772Y-90686866D01*
X132110433Y-90685061D01*
X132134623Y-90670082D01*
X132146722Y-90663704D01*
X132172765Y-90652206D01*
X132179710Y-90645259D01*
X132197597Y-90631091D01*
X132205952Y-90625919D01*
X132223095Y-90603216D01*
X132232082Y-90592887D01*
X132346405Y-90478564D01*
X132359496Y-90469147D01*
X132364225Y-90463959D01*
X132364228Y-90463958D01*
X132395877Y-90429239D01*
X132398994Y-90425975D01*
X132412174Y-90412797D01*
X132412238Y-90412702D01*
X132420745Y-90401961D01*
X132439916Y-90380933D01*
X132443466Y-90371766D01*
X132454104Y-90351585D01*
X132459656Y-90343481D01*
X132466169Y-90315785D01*
X132470221Y-90302702D01*
X132480500Y-90276173D01*
X132480500Y-90266348D01*
X132483130Y-90243679D01*
X132485379Y-90234119D01*
X132481448Y-90205946D01*
X132480500Y-90192269D01*
X132480500Y-88680038D01*
X132489325Y-88639180D01*
X132514225Y-88605606D01*
X132550762Y-88585301D01*
X132564970Y-88580990D01*
X132583954Y-88575232D01*
X132766450Y-88477685D01*
X132926410Y-88346410D01*
X133057685Y-88186450D01*
X133155232Y-88003954D01*
X133215300Y-87805934D01*
X133235583Y-87600000D01*
X133215300Y-87394066D01*
X133155232Y-87196046D01*
X133057685Y-87013550D01*
X132926410Y-86853590D01*
X132766450Y-86722315D01*
X132583954Y-86624768D01*
X132583953Y-86624767D01*
X132583952Y-86624767D01*
X132385933Y-86564699D01*
X132180000Y-86544416D01*
X131974066Y-86564699D01*
X131776047Y-86624767D01*
X131593549Y-86722315D01*
X131433590Y-86853590D01*
X131302315Y-87013549D01*
X131204767Y-87196047D01*
X131144699Y-87394066D01*
X131124416Y-87599999D01*
X131144699Y-87805933D01*
X131194461Y-87969976D01*
X131204768Y-88003954D01*
X131302315Y-88186450D01*
X131433590Y-88346410D01*
X131593550Y-88477685D01*
X131776046Y-88575232D01*
X131789338Y-88579264D01*
X131809238Y-88585301D01*
X131845775Y-88605606D01*
X131870675Y-88639180D01*
X131879500Y-88680038D01*
X131879500Y-89867639D01*
X131865641Y-89918156D01*
X131827945Y-89954529D01*
X131776966Y-89966576D01*
X131726976Y-89950923D01*
X131710052Y-89940046D01*
X131571961Y-89899500D01*
X131428039Y-89899500D01*
X131289945Y-89940047D01*
X131168874Y-90017854D01*
X131074622Y-90126628D01*
X131014834Y-90257544D01*
X130994352Y-90399999D01*
X131014834Y-90542455D01*
X131042587Y-90603226D01*
X131074623Y-90673373D01*
X131168872Y-90782143D01*
X131168874Y-90782145D01*
X131246008Y-90831716D01*
X131279375Y-90867554D01*
X131291485Y-90915000D01*
X131279375Y-90962446D01*
X131246008Y-90998284D01*
X131168874Y-91047854D01*
X131074622Y-91156628D01*
X131014834Y-91287544D01*
X130994352Y-91430000D01*
X131014834Y-91572455D01*
X131043487Y-91635196D01*
X131051618Y-91689011D01*
X131030074Y-91738991D01*
X130985368Y-91770031D01*
X130931011Y-91772750D01*
X130883430Y-91746327D01*
X129389822Y-90252719D01*
X129369774Y-90223843D01*
X129325377Y-90126627D01*
X129325376Y-90126626D01*
X129325376Y-90126625D01*
X129231128Y-90017856D01*
X129110054Y-89940047D01*
X129087719Y-89933489D01*
X129045606Y-89908503D01*
X127948790Y-88811687D01*
X127922761Y-88765738D01*
X127924057Y-88712944D01*
X127952310Y-88668328D01*
X127999478Y-88644586D01*
X128028231Y-88638867D01*
X128094552Y-88594552D01*
X128138867Y-88528231D01*
X128150500Y-88469748D01*
X128150500Y-86730252D01*
X128138867Y-86671769D01*
X128109770Y-86628223D01*
X128094552Y-86605447D01*
X128028231Y-86561133D01*
X127969748Y-86549500D01*
X126230252Y-86549500D01*
X126201010Y-86555316D01*
X126171768Y-86561133D01*
X126105447Y-86605447D01*
X126061133Y-86671768D01*
X126058309Y-86685966D01*
X126054826Y-86703479D01*
X126049500Y-86730253D01*
X126049500Y-88469747D01*
X126061133Y-88528231D01*
X126105447Y-88594552D01*
X126149762Y-88624162D01*
X126171769Y-88638867D01*
X126200519Y-88644585D01*
X126247689Y-88668328D01*
X126275942Y-88712944D01*
X126277238Y-88765738D01*
X126251209Y-88811687D01*
X125142393Y-89920504D01*
X125110275Y-89941964D01*
X125072389Y-89949500D01*
X119327611Y-89949500D01*
X119289725Y-89941964D01*
X119257607Y-89920504D01*
X118989822Y-89652719D01*
X118969774Y-89623843D01*
X118925377Y-89526627D01*
X118925376Y-89526626D01*
X118925376Y-89526625D01*
X118831128Y-89417856D01*
X118710054Y-89340047D01*
X118571961Y-89299500D01*
X118428039Y-89299500D01*
X118289945Y-89340047D01*
X118168874Y-89417854D01*
X118074622Y-89526628D01*
X118014834Y-89657544D01*
X117994352Y-89799999D01*
X118014834Y-89942455D01*
X118059807Y-90040932D01*
X118074623Y-90073373D01*
X118168872Y-90182143D01*
X118168874Y-90182145D01*
X118289946Y-90259953D01*
X118312279Y-90266510D01*
X118354392Y-90291496D01*
X118759624Y-90696727D01*
X118767022Y-90705006D01*
X118790120Y-90733970D01*
X118837744Y-90766440D01*
X118840762Y-90768581D01*
X118849354Y-90774922D01*
X118887118Y-90802793D01*
X118887120Y-90802793D01*
X118889909Y-90804852D01*
X118899019Y-90809451D01*
X118902325Y-90810470D01*
X118902327Y-90810472D01*
X118957425Y-90827466D01*
X118960925Y-90828618D01*
X119015301Y-90847646D01*
X119015302Y-90847646D01*
X119018569Y-90848789D01*
X119028636Y-90850500D01*
X119032098Y-90850500D01*
X119089716Y-90850500D01*
X119093418Y-90850569D01*
X119151010Y-90852724D01*
X119151011Y-90852723D01*
X119154467Y-90852853D01*
X119172345Y-90850500D01*
X125269136Y-90850500D01*
X125280219Y-90851122D01*
X125282595Y-90851389D01*
X125317035Y-90855270D01*
X125373693Y-90844548D01*
X125377267Y-90843941D01*
X125434287Y-90835348D01*
X125434290Y-90835346D01*
X125437724Y-90834829D01*
X125447404Y-90831644D01*
X125450470Y-90830023D01*
X125450472Y-90830023D01*
X125501444Y-90803082D01*
X125504728Y-90801424D01*
X125556642Y-90776425D01*
X125556643Y-90776423D01*
X125559762Y-90774922D01*
X125568088Y-90769014D01*
X125570533Y-90766568D01*
X125570538Y-90766566D01*
X125611317Y-90725785D01*
X125613928Y-90723270D01*
X125656194Y-90684055D01*
X125656195Y-90684052D01*
X125658732Y-90681699D01*
X125669703Y-90667399D01*
X127029999Y-89307104D01*
X127074376Y-89281484D01*
X127125622Y-89281484D01*
X127170003Y-89307107D01*
X128410176Y-90547280D01*
X128430224Y-90576155D01*
X128440553Y-90598772D01*
X128449500Y-90639898D01*
X128449500Y-93372389D01*
X128441964Y-93410275D01*
X128420504Y-93442393D01*
X128042393Y-93820504D01*
X128010275Y-93841964D01*
X127972389Y-93849500D01*
X126053832Y-93849500D01*
X126024630Y-93840926D01*
X126023711Y-93844057D01*
X125871961Y-93799500D01*
X125728039Y-93799500D01*
X125589945Y-93840047D01*
X125468874Y-93917854D01*
X125374622Y-94026628D01*
X125314834Y-94157544D01*
X125297525Y-94277932D01*
X125275497Y-94327328D01*
X125230797Y-94357777D01*
X125176766Y-94360190D01*
X125129529Y-94333847D01*
X123715186Y-92919504D01*
X123688092Y-92868814D01*
X123693726Y-92811614D01*
X123730189Y-92767185D01*
X123785190Y-92750500D01*
X125396241Y-92750500D01*
X125437367Y-92759447D01*
X125460500Y-92776763D01*
X125560343Y-92840928D01*
X125589947Y-92859953D01*
X125728039Y-92900500D01*
X125871961Y-92900500D01*
X126010053Y-92859953D01*
X126131128Y-92782143D01*
X126225377Y-92673373D01*
X126285165Y-92542457D01*
X126305647Y-92400000D01*
X126285165Y-92257543D01*
X126225377Y-92126627D01*
X126131128Y-92017857D01*
X126131127Y-92017856D01*
X126131125Y-92017854D01*
X126010054Y-91940047D01*
X125871961Y-91899500D01*
X125728039Y-91899500D01*
X125589945Y-91940047D01*
X125460500Y-92023236D01*
X125437367Y-92040553D01*
X125396241Y-92049500D01*
X110732407Y-92049500D01*
X110712091Y-92047393D01*
X110700473Y-92044957D01*
X110670125Y-92048740D01*
X110657880Y-92049500D01*
X110656748Y-92049500D01*
X110650322Y-92050571D01*
X110637259Y-92052751D01*
X110633219Y-92053339D01*
X110578991Y-92060100D01*
X110575196Y-92061316D01*
X110527148Y-92087318D01*
X110523512Y-92089189D01*
X110474413Y-92113192D01*
X110471218Y-92115574D01*
X110434220Y-92155764D01*
X110431389Y-92158715D01*
X108585117Y-94004987D01*
X108569265Y-94017860D01*
X108559330Y-94024351D01*
X108540546Y-94048484D01*
X108532437Y-94057668D01*
X108531627Y-94058478D01*
X108520134Y-94074574D01*
X108517690Y-94077850D01*
X108484139Y-94120957D01*
X108482313Y-94124504D01*
X108466717Y-94176885D01*
X108465470Y-94180778D01*
X108447728Y-94232460D01*
X108447157Y-94236379D01*
X108449415Y-94290963D01*
X108449500Y-94295055D01*
X108449500Y-97713810D01*
X108441964Y-97751696D01*
X108420504Y-97783814D01*
X107183814Y-99020504D01*
X107151696Y-99041964D01*
X107113810Y-99049500D01*
X106448480Y-99049500D01*
X106398621Y-99036028D01*
X106362332Y-98999280D01*
X106349488Y-98949256D01*
X106363585Y-98899571D01*
X106400786Y-98863746D01*
X106565636Y-98773118D01*
X106565634Y-98773118D01*
X106565640Y-98773116D01*
X106815096Y-98591876D01*
X107039869Y-98380799D01*
X107236416Y-98143216D01*
X107401635Y-97882871D01*
X107532922Y-97603873D01*
X107628206Y-97310619D01*
X107669918Y-97091955D01*
X107685983Y-97007742D01*
X107685983Y-97007740D01*
X107685984Y-97007736D01*
X107705345Y-96700000D01*
X107685984Y-96392264D01*
X107628206Y-96089381D01*
X107532922Y-95796127D01*
X107401635Y-95517129D01*
X107236416Y-95256784D01*
X107039869Y-95019201D01*
X106987733Y-94970242D01*
X106815098Y-94808125D01*
X106565636Y-94626881D01*
X106295436Y-94478337D01*
X106008744Y-94364828D01*
X105710081Y-94288144D01*
X105404175Y-94249500D01*
X105404172Y-94249500D01*
X105095828Y-94249500D01*
X105095825Y-94249500D01*
X104789918Y-94288144D01*
X104547141Y-94350479D01*
X104496098Y-94349998D01*
X104452079Y-94324151D01*
X104426788Y-94279811D01*
X104426948Y-94228766D01*
X104452515Y-94184587D01*
X107307607Y-91329496D01*
X107339725Y-91308036D01*
X107360094Y-91303984D01*
X107371960Y-91300500D01*
X107371961Y-91300500D01*
X107455478Y-91275977D01*
X107523711Y-91255943D01*
X107524630Y-91259073D01*
X107553832Y-91250500D01*
X114746168Y-91250500D01*
X114775369Y-91259073D01*
X114776289Y-91255943D01*
X114928039Y-91300500D01*
X115071961Y-91300500D01*
X115210053Y-91259953D01*
X115331128Y-91182143D01*
X115425377Y-91073373D01*
X115485165Y-90942457D01*
X115505647Y-90800000D01*
X115502257Y-90776425D01*
X115485165Y-90657544D01*
X115482727Y-90652206D01*
X115425377Y-90526627D01*
X115331128Y-90417857D01*
X115331127Y-90417856D01*
X115331125Y-90417854D01*
X115210054Y-90340047D01*
X115071961Y-90299500D01*
X114928039Y-90299500D01*
X114776289Y-90344057D01*
X114775369Y-90340926D01*
X114746168Y-90349500D01*
X107553832Y-90349500D01*
X107524630Y-90340926D01*
X107523711Y-90344057D01*
X107371961Y-90299500D01*
X107228039Y-90299500D01*
X107089945Y-90340047D01*
X107018432Y-90386006D01*
X107011165Y-90390251D01*
X106998551Y-90396917D01*
X106995251Y-90398583D01*
X106940254Y-90425069D01*
X106931897Y-90430999D01*
X106888732Y-90474163D01*
X106886069Y-90476729D01*
X106841270Y-90518298D01*
X106830295Y-90532600D01*
X102203265Y-95159630D01*
X102194989Y-95167025D01*
X102166030Y-95190120D01*
X102133556Y-95237749D01*
X102131416Y-95240765D01*
X102095156Y-95289896D01*
X102090543Y-95299034D01*
X102072536Y-95357410D01*
X102071380Y-95360923D01*
X102051214Y-95418557D01*
X102049500Y-95428649D01*
X102049500Y-95489716D01*
X102049431Y-95493418D01*
X102047146Y-95554467D01*
X102049500Y-95572345D01*
X102049500Y-97472388D01*
X102041964Y-97510274D01*
X102020504Y-97542392D01*
X98142393Y-101420504D01*
X98110275Y-101441964D01*
X98072389Y-101449500D01*
X96130864Y-101449500D01*
X96119781Y-101448878D01*
X96111914Y-101447991D01*
X96082965Y-101444730D01*
X96082964Y-101444730D01*
X96026339Y-101455443D01*
X96022691Y-101456063D01*
X95962297Y-101465166D01*
X95952574Y-101468366D01*
X95898551Y-101496917D01*
X95895249Y-101498584D01*
X95840254Y-101525069D01*
X95831897Y-101530999D01*
X95788732Y-101574163D01*
X95786069Y-101576729D01*
X95741270Y-101618298D01*
X95730295Y-101632600D01*
X94803265Y-102559630D01*
X94794989Y-102567025D01*
X94766030Y-102590120D01*
X94733556Y-102637749D01*
X94731416Y-102640765D01*
X94695156Y-102689896D01*
X94690543Y-102699034D01*
X94672536Y-102757410D01*
X94671380Y-102760923D01*
X94651214Y-102818557D01*
X94649500Y-102828649D01*
X94649500Y-102889716D01*
X94649431Y-102893418D01*
X94647146Y-102954467D01*
X94649500Y-102972345D01*
X94649500Y-103433852D01*
X94641464Y-103472922D01*
X94618662Y-103505650D01*
X94591823Y-103531129D01*
X94555317Y-103574872D01*
X94530184Y-103613273D01*
X94529286Y-103614645D01*
X94524813Y-103626985D01*
X94513087Y-103659332D01*
X94499997Y-103714783D01*
X94499997Y-103714785D01*
X94494500Y-103762000D01*
X94494500Y-104148638D01*
X94498449Y-104188729D01*
X94507888Y-104236182D01*
X94507889Y-104236184D01*
X94538572Y-104310261D01*
X94560847Y-104343598D01*
X94565453Y-104350490D01*
X94591009Y-104381629D01*
X94818371Y-104608991D01*
X94849510Y-104634547D01*
X94889738Y-104661427D01*
X94963818Y-104692112D01*
X95011271Y-104701551D01*
X95051362Y-104705500D01*
X98466821Y-104705500D01*
X98506492Y-104713796D01*
X98539512Y-104737292D01*
X100536423Y-106897215D01*
X103337375Y-109926815D01*
X103344516Y-109935477D01*
X106535142Y-114286332D01*
X106554259Y-114341768D01*
X106538660Y-114398295D01*
X106493816Y-114436081D01*
X105177870Y-114991704D01*
X105139362Y-114999500D01*
X100999500Y-114999500D01*
X100950000Y-114986237D01*
X100913763Y-114950000D01*
X100900500Y-114900500D01*
X100900500Y-109354238D01*
X100895285Y-109343409D01*
X100887963Y-109322481D01*
X100885290Y-109310769D01*
X100877796Y-109301372D01*
X100866001Y-109282601D01*
X100862057Y-109274411D01*
X100860788Y-109271776D01*
X100851390Y-109264281D01*
X100835714Y-109248604D01*
X100828224Y-109239211D01*
X100817396Y-109233997D01*
X100798629Y-109222205D01*
X100789231Y-109214710D01*
X100789229Y-109214709D01*
X100777514Y-109212035D01*
X100756593Y-109204715D01*
X100745763Y-109199500D01*
X100722590Y-109199500D01*
X92499500Y-109199500D01*
X92450000Y-109186237D01*
X92413763Y-109150000D01*
X92400500Y-109100500D01*
X92400500Y-99099500D01*
X92413763Y-99050000D01*
X92450000Y-99013763D01*
X92499500Y-99000500D01*
X96429722Y-99000500D01*
X96887677Y-98963530D01*
X97341172Y-98889830D01*
X97787266Y-98779878D01*
X98223066Y-98634386D01*
X98645746Y-98454299D01*
X99052563Y-98240785D01*
X99440882Y-97995227D01*
X99808181Y-97719220D01*
X100152080Y-97414552D01*
X100470349Y-97083199D01*
X100760922Y-96727311D01*
X101021917Y-96349195D01*
X101251639Y-95951305D01*
X101448600Y-95536219D01*
X101611521Y-95106631D01*
X101739346Y-94665326D01*
X101831247Y-94215167D01*
X101886627Y-93759072D01*
X101905127Y-93300000D01*
X101886627Y-92840928D01*
X101831247Y-92384833D01*
X101739346Y-91934674D01*
X101611521Y-91493369D01*
X101448600Y-91063781D01*
X101251639Y-90648695D01*
X101021917Y-90250805D01*
X101021913Y-90250799D01*
X101021910Y-90250794D01*
X100760926Y-89872694D01*
X100470350Y-89516802D01*
X100152080Y-89185448D01*
X100050055Y-89095062D01*
X99808181Y-88880780D01*
X99440882Y-88604773D01*
X99440881Y-88604772D01*
X99440878Y-88604770D01*
X99229250Y-88470945D01*
X99052564Y-88359215D01*
X98791021Y-88221947D01*
X98645747Y-88145701D01*
X98223062Y-87965612D01*
X97787264Y-87820121D01*
X97341176Y-87710170D01*
X96887676Y-87636469D01*
X96491534Y-87604490D01*
X96445469Y-87588767D01*
X96412465Y-87552991D01*
X96400500Y-87505811D01*
X96400500Y-86199500D01*
X96413763Y-86150000D01*
X96450000Y-86113763D01*
X96499500Y-86100500D01*
X105859722Y-86100500D01*
X105901713Y-86109847D01*
G37*
%TD.AperFunction*%
%TD*%
%TA.AperFunction,Conductor*%
%TO.N,+12V*%
G36*
X100593454Y-103413091D02*
G01*
X100637199Y-103449599D01*
X101200000Y-104200000D01*
X105200000Y-108700000D01*
X106222947Y-108700000D01*
X106284947Y-108716613D01*
X106330334Y-108762000D01*
X106346947Y-108824000D01*
X106346947Y-109829678D01*
X106340366Y-109869536D01*
X106321323Y-109905164D01*
X106251455Y-109996217D01*
X106190948Y-110142295D01*
X106170309Y-110299057D01*
X106190948Y-110455820D01*
X106251455Y-110601898D01*
X106347709Y-110727340D01*
X106473151Y-110823594D01*
X106619230Y-110884102D01*
X106775992Y-110904740D01*
X106932754Y-110884102D01*
X107078833Y-110823594D01*
X107204274Y-110727340D01*
X107300528Y-110601899D01*
X107361036Y-110455820D01*
X107381674Y-110299058D01*
X107361036Y-110142296D01*
X107300528Y-109996217D01*
X107205037Y-109871770D01*
X107204274Y-109870775D01*
X107078835Y-109774523D01*
X107078833Y-109774522D01*
X107074494Y-109772724D01*
X107034267Y-109745846D01*
X107007386Y-109705617D01*
X106997947Y-109658164D01*
X106997947Y-108824000D01*
X107014560Y-108762000D01*
X107059947Y-108716613D01*
X107121947Y-108700000D01*
X108899999Y-108700000D01*
X108900000Y-108700000D01*
X113097625Y-106942854D01*
X113156681Y-106933743D01*
X113213145Y-106953312D01*
X113253899Y-106997018D01*
X114684396Y-109571913D01*
X114700000Y-109632133D01*
X114700000Y-110917413D01*
X114690608Y-110964752D01*
X114663856Y-111004919D01*
X114623795Y-111031832D01*
X114264289Y-111182004D01*
X114237745Y-111188206D01*
X114238003Y-111189661D01*
X114210132Y-111194593D01*
X114193119Y-111197603D01*
X114171515Y-111199500D01*
X114160117Y-111199500D01*
X114155942Y-111201229D01*
X114153889Y-111201829D01*
X114123075Y-111214839D01*
X114122301Y-111215163D01*
X114065492Y-111238694D01*
X114063663Y-111239925D01*
X108312214Y-113668313D01*
X108311776Y-113668497D01*
X106890066Y-114262377D01*
X106836211Y-114271810D01*
X106783534Y-114257164D01*
X106742277Y-114221287D01*
X103500002Y-109800002D01*
X102483019Y-108700000D01*
X98600000Y-104500000D01*
X98599999Y-104500000D01*
X95051362Y-104500000D01*
X95003909Y-104490561D01*
X94963681Y-104463681D01*
X94736319Y-104236319D01*
X94709439Y-104196091D01*
X94700000Y-104148638D01*
X94700000Y-103762000D01*
X94713091Y-103706546D01*
X94749600Y-103662800D01*
X94749600Y-103662799D01*
X95066934Y-103424799D01*
X95102121Y-103406363D01*
X95141333Y-103400000D01*
X100538000Y-103400000D01*
X100593454Y-103413091D01*
G37*
%TD.AperFunction*%
%TD*%
M02*
