%TF.GenerationSoftware,KiCad,Pcbnew,7.0.2*%
%TF.CreationDate,2023-08-30T02:12:12+03:00*%
%TF.ProjectId,PCBTRIGGERASSEMBLY,50434254-5249-4474-9745-52415353454d,rev?*%
%TF.SameCoordinates,Original*%
%TF.FileFunction,Copper,L2,Bot*%
%TF.FilePolarity,Positive*%
%FSLAX46Y46*%
G04 Gerber Fmt 4.6, Leading zero omitted, Abs format (unit mm)*
G04 Created by KiCad (PCBNEW 7.0.2) date 2023-08-30 02:12:12*
%MOMM*%
%LPD*%
G01*
G04 APERTURE LIST*
%TA.AperFunction,ComponentPad*%
%ADD10R,1.700000X1.700000*%
%TD*%
%TA.AperFunction,ComponentPad*%
%ADD11O,1.700000X1.700000*%
%TD*%
%TA.AperFunction,ComponentPad*%
%ADD12R,1.800000X1.800000*%
%TD*%
%TA.AperFunction,ComponentPad*%
%ADD13C,1.800000*%
%TD*%
%TA.AperFunction,SMDPad,CuDef*%
%ADD14R,0.800000X0.800000*%
%TD*%
%TA.AperFunction,SMDPad,CuDef*%
%ADD15R,1.400000X0.900000*%
%TD*%
%TA.AperFunction,ViaPad*%
%ADD16C,0.600000*%
%TD*%
%TA.AperFunction,Conductor*%
%ADD17C,0.200000*%
%TD*%
G04 APERTURE END LIST*
D10*
%TO.P,J4,1,Pin_1*%
%TO.N,+3.3V*%
X127400000Y-87500000D03*
D11*
%TO.P,J4,2,Pin_2*%
%TO.N,GND*%
X129940000Y-87500000D03*
%TO.P,J4,3,Pin_3*%
%TO.N,/updiTx*%
X132480000Y-87500000D03*
%TO.P,J4,4,Pin_4*%
%TO.N,/updiRx*%
X135020000Y-87500000D03*
%TD*%
D12*
%TO.P,S1,1,COM*%
%TO.N,GND*%
X125800000Y-99120000D03*
D13*
%TO.P,S1,2,NO*%
%TO.N,/trigger*%
X125800000Y-104200000D03*
%TO.P,S1,3,NC*%
%TO.N,GND*%
X125800000Y-109280000D03*
%TD*%
D14*
%TO.P,Q1,1,C*%
%TO.N,/Semi_Auto*%
X127850000Y-105575000D03*
%TO.P,Q1,2,E*%
%TO.N,GND*%
X127850000Y-107225000D03*
%TD*%
D15*
%TO.P,LED1,1*%
%TO.N,GND*%
X127850000Y-109800000D03*
%TO.P,LED1,2*%
%TO.N,Net-(LED1-Pad2)*%
X127850000Y-111800000D03*
%TD*%
D16*
%TO.N,/Semi_Auto*%
X128900000Y-105600000D03*
%TO.N,GND*%
X99000000Y-102750000D03*
X115500000Y-99750000D03*
X126000000Y-92750000D03*
X131600000Y-94000000D03*
X114000000Y-107250000D03*
X96000000Y-102750000D03*
X117250000Y-88500000D03*
X107750000Y-92250000D03*
X125500000Y-95750000D03*
X93250000Y-104000000D03*
X133500000Y-92250000D03*
X114000000Y-104250000D03*
X102250000Y-89500000D03*
X103750000Y-92000000D03*
X110750000Y-92250000D03*
X112250000Y-92250000D03*
X103750000Y-90750000D03*
X131600000Y-94800000D03*
X130250000Y-92250000D03*
X126750000Y-92750000D03*
X97500000Y-102750000D03*
X115500000Y-105750000D03*
X114000000Y-99750000D03*
X115500000Y-107250000D03*
X121750000Y-95750000D03*
X117250000Y-87250000D03*
X103750000Y-89500000D03*
X113750000Y-92250000D03*
X105250000Y-89500000D03*
X106750000Y-89500000D03*
X109250000Y-92250000D03*
X132500000Y-94800000D03*
X114000000Y-101250000D03*
X132500000Y-94000000D03*
X115500000Y-102750000D03*
X118750000Y-87250000D03*
X114000000Y-102750000D03*
X115500000Y-104250000D03*
X118750000Y-88500000D03*
X93250000Y-102750000D03*
X126000000Y-91750000D03*
X115500000Y-101250000D03*
X114000000Y-105750000D03*
X94500000Y-102750000D03*
%TO.N,Net-(LED1-Pad2)*%
X129300000Y-111800000D03*
%TO.N,+12V*%
X129100000Y-103200000D03*
X123100000Y-95500000D03*
X134750000Y-101750000D03*
X114960000Y-93150000D03*
%TO.N,+3.3V*%
X128100000Y-90150000D03*
X127350000Y-94800000D03*
X128700000Y-99600000D03*
X134650000Y-104800000D03*
%TD*%
D17*
%TO.N,/Semi_Auto*%
X128900000Y-105600000D02*
X127875000Y-105600000D01*
X127875000Y-105600000D02*
X127850000Y-105575000D01*
%TO.N,Net-(LED1-Pad2)*%
X129300000Y-111800000D02*
X127850000Y-111800000D01*
%TO.N,+12V*%
X130000000Y-103200000D02*
X131050000Y-102150000D01*
X134500000Y-102150000D02*
X134750000Y-101900000D01*
X123100000Y-95500000D02*
X123207915Y-95607915D01*
X131050000Y-102150000D02*
X134500000Y-102150000D01*
X120750000Y-93150000D02*
X123100000Y-95500000D01*
X123207915Y-99657915D02*
X126750000Y-103200000D01*
X126750000Y-103200000D02*
X130000000Y-103200000D01*
X123207915Y-95607915D02*
X123207915Y-99657915D01*
X134750000Y-101900000D02*
X134750000Y-101750000D01*
X114960000Y-93150000D02*
X120750000Y-93150000D01*
%TO.N,+3.3V*%
X135400000Y-101000000D02*
X135400000Y-104050000D01*
X127350000Y-94800000D02*
X127350000Y-91450000D01*
X127350000Y-91450000D02*
X128100000Y-90700000D01*
X127350000Y-87550000D02*
X127400000Y-87500000D01*
X127350000Y-91450000D02*
X127350000Y-87550000D01*
X128100000Y-90700000D02*
X128100000Y-90150000D01*
X128700000Y-96150000D02*
X127350000Y-94800000D01*
X134000000Y-99600000D02*
X135400000Y-101000000D01*
X128700000Y-99600000D02*
X134000000Y-99600000D01*
X128700000Y-99600000D02*
X128700000Y-96150000D01*
X135400000Y-104050000D02*
X134650000Y-104800000D01*
%TD*%
%TA.AperFunction,Conductor*%
%TO.N,GND*%
G36*
X105917913Y-86119407D02*
G01*
X105935775Y-86136121D01*
X106259647Y-86524768D01*
X106322276Y-86599922D01*
X106335418Y-86620346D01*
X106339211Y-86628223D01*
X106339212Y-86628224D01*
X106345613Y-86633329D01*
X106351155Y-86637748D01*
X106355255Y-86641761D01*
X106375840Y-86657464D01*
X106377521Y-86658775D01*
X106412550Y-86686710D01*
X106414780Y-86687168D01*
X106414781Y-86687169D01*
X106456426Y-86695734D01*
X106458490Y-86696181D01*
X106477410Y-86700500D01*
X106477412Y-86700500D01*
X106483761Y-86701949D01*
X106489464Y-86702530D01*
X106492089Y-86703069D01*
X106504430Y-86705608D01*
X106512911Y-86703478D01*
X106537014Y-86700500D01*
X110530711Y-86700500D01*
X110588902Y-86719407D01*
X110622425Y-86762223D01*
X110694059Y-86938467D01*
X110707693Y-86972009D01*
X110709127Y-86974598D01*
X110709131Y-86974606D01*
X110814301Y-87164463D01*
X110851892Y-87232324D01*
X110853635Y-87234737D01*
X110853638Y-87234741D01*
X110955717Y-87376026D01*
X111026171Y-87473539D01*
X111028177Y-87475712D01*
X111028182Y-87475718D01*
X111050598Y-87499999D01*
X111228029Y-87692194D01*
X111230288Y-87694118D01*
X111230290Y-87694120D01*
X111249692Y-87710646D01*
X111454575Y-87885157D01*
X111457050Y-87886799D01*
X111457053Y-87886801D01*
X111568587Y-87960788D01*
X111702559Y-88049659D01*
X111968427Y-88183344D01*
X112248367Y-88284293D01*
X112538366Y-88351061D01*
X112834266Y-88382690D01*
X113131825Y-88378726D01*
X113426778Y-88339227D01*
X113714895Y-88264758D01*
X113992047Y-88156387D01*
X114254260Y-88015668D01*
X114497774Y-87844618D01*
X114719099Y-87645690D01*
X114915062Y-87421735D01*
X115082853Y-87175963D01*
X115220067Y-86911900D01*
X115324736Y-86633329D01*
X115395361Y-86344245D01*
X115404345Y-86269606D01*
X115414210Y-86187668D01*
X115439936Y-86132154D01*
X115493380Y-86102364D01*
X115512500Y-86100500D01*
X121300500Y-86100500D01*
X121358691Y-86119407D01*
X121394655Y-86168907D01*
X121399500Y-86199500D01*
X121399500Y-89745763D01*
X121404715Y-89756593D01*
X121412035Y-89777514D01*
X121414709Y-89789229D01*
X121414710Y-89789231D01*
X121422205Y-89798629D01*
X121433997Y-89817396D01*
X121439211Y-89828224D01*
X121448604Y-89835714D01*
X121464281Y-89851390D01*
X121471776Y-89860788D01*
X121482599Y-89866000D01*
X121482601Y-89866001D01*
X121501372Y-89877796D01*
X121510769Y-89885290D01*
X121522476Y-89887962D01*
X121522481Y-89887963D01*
X121543405Y-89895283D01*
X121554237Y-89900500D01*
X121554238Y-89900500D01*
X125845762Y-89900500D01*
X125845763Y-89900500D01*
X125856592Y-89895284D01*
X125877511Y-89887964D01*
X125889231Y-89885290D01*
X125898628Y-89877795D01*
X125917401Y-89866000D01*
X125928222Y-89860789D01*
X125928222Y-89860788D01*
X125928224Y-89860788D01*
X125935719Y-89851388D01*
X125951388Y-89835719D01*
X125960788Y-89828224D01*
X125965999Y-89817401D01*
X125977797Y-89798626D01*
X125985290Y-89789231D01*
X125987964Y-89777511D01*
X125995284Y-89756592D01*
X126000500Y-89745763D01*
X126000500Y-89654237D01*
X126000500Y-89613241D01*
X126000499Y-89613229D01*
X126000500Y-86199500D01*
X126019407Y-86141309D01*
X126068907Y-86105345D01*
X126099500Y-86100500D01*
X136300500Y-86100500D01*
X136358691Y-86119407D01*
X136394655Y-86168907D01*
X136399500Y-86199500D01*
X136399500Y-108109083D01*
X136399015Y-108118870D01*
X136385189Y-108258041D01*
X136381339Y-108277229D01*
X136341590Y-108407092D01*
X136334041Y-108425147D01*
X136269522Y-108544655D01*
X136258570Y-108560870D01*
X136171805Y-108665348D01*
X136157877Y-108679092D01*
X136156176Y-108680468D01*
X136052254Y-108764462D01*
X136035892Y-108775199D01*
X135915538Y-108838124D01*
X135897384Y-108845433D01*
X135767003Y-108883453D01*
X135747765Y-108887047D01*
X135607467Y-108899104D01*
X135597811Y-108899453D01*
X135562783Y-108898988D01*
X135562776Y-108898990D01*
X135546294Y-108898769D01*
X135542488Y-108899500D01*
X135039882Y-108899500D01*
X135000000Y-108899500D01*
X134796553Y-108899500D01*
X134794281Y-108899710D01*
X134794270Y-108899711D01*
X134393676Y-108936832D01*
X134393664Y-108936833D01*
X134391394Y-108937044D01*
X134389146Y-108937464D01*
X134389133Y-108937466D01*
X133993678Y-109011390D01*
X133993673Y-109011391D01*
X133991427Y-109011811D01*
X133989247Y-109012431D01*
X133989231Y-109012435D01*
X133602264Y-109122537D01*
X133602257Y-109122539D01*
X133600065Y-109123163D01*
X133597944Y-109123984D01*
X133597931Y-109123989D01*
X133222786Y-109269321D01*
X133222779Y-109269323D01*
X133220647Y-109270150D01*
X133218592Y-109271172D01*
X133218588Y-109271175D01*
X132858450Y-109450502D01*
X132858429Y-109450513D01*
X132856410Y-109451519D01*
X132854497Y-109452702D01*
X132854478Y-109452714D01*
X132512400Y-109664519D01*
X132512378Y-109664533D01*
X132510461Y-109665721D01*
X132508647Y-109667090D01*
X132508638Y-109667097D01*
X132187570Y-109909556D01*
X132187555Y-109909568D01*
X132185752Y-109910930D01*
X132184078Y-109912455D01*
X132184066Y-109912466D01*
X131886750Y-110183505D01*
X131886738Y-110183516D01*
X131885053Y-110185053D01*
X131883516Y-110186738D01*
X131883505Y-110186750D01*
X131612466Y-110484066D01*
X131612455Y-110484078D01*
X131610930Y-110485752D01*
X131609568Y-110487555D01*
X131609556Y-110487570D01*
X131367097Y-110808638D01*
X131367090Y-110808647D01*
X131365721Y-110810461D01*
X131364533Y-110812378D01*
X131364519Y-110812400D01*
X131152714Y-111154478D01*
X131152702Y-111154497D01*
X131151519Y-111156410D01*
X131150513Y-111158429D01*
X131150502Y-111158450D01*
X130981961Y-111496927D01*
X130970150Y-111520647D01*
X130969323Y-111522779D01*
X130969321Y-111522786D01*
X130823989Y-111897931D01*
X130823984Y-111897944D01*
X130823163Y-111900065D01*
X130822539Y-111902257D01*
X130822537Y-111902264D01*
X130712435Y-112289231D01*
X130712431Y-112289247D01*
X130711811Y-112291427D01*
X130711391Y-112293673D01*
X130711390Y-112293678D01*
X130637466Y-112689133D01*
X130637464Y-112689146D01*
X130637044Y-112691394D01*
X130636833Y-112693664D01*
X130636832Y-112693676D01*
X130599711Y-113094270D01*
X130599710Y-113094281D01*
X130599500Y-113096553D01*
X130599500Y-113098848D01*
X130599500Y-113098849D01*
X130599500Y-114195139D01*
X130599023Y-114204843D01*
X130585093Y-114346271D01*
X130581307Y-114365305D01*
X130541472Y-114496624D01*
X130534045Y-114514554D01*
X130469357Y-114635577D01*
X130458575Y-114651714D01*
X130371517Y-114757794D01*
X130357794Y-114771517D01*
X130251714Y-114858575D01*
X130235577Y-114869357D01*
X130114554Y-114934045D01*
X130096624Y-114941472D01*
X129965305Y-114981307D01*
X129946271Y-114985093D01*
X129804843Y-114999023D01*
X129795139Y-114999500D01*
X119099500Y-114999500D01*
X119041309Y-114980593D01*
X119005345Y-114931093D01*
X119000500Y-114900500D01*
X119000500Y-112269748D01*
X126949500Y-112269748D01*
X126953812Y-112291427D01*
X126961133Y-112328231D01*
X127005447Y-112394552D01*
X127049761Y-112424162D01*
X127071769Y-112438867D01*
X127130252Y-112450500D01*
X127130253Y-112450500D01*
X128569747Y-112450500D01*
X128569748Y-112450500D01*
X128628231Y-112438867D01*
X128694552Y-112394552D01*
X128738867Y-112328231D01*
X128750500Y-112269748D01*
X128750500Y-112199499D01*
X128769407Y-112141309D01*
X128818907Y-112105345D01*
X128849500Y-112100500D01*
X128852916Y-112100500D01*
X128911107Y-112119407D01*
X128927735Y-112134669D01*
X128968871Y-112182143D01*
X129089945Y-112259952D01*
X129089947Y-112259953D01*
X129228039Y-112300500D01*
X129371961Y-112300500D01*
X129510053Y-112259953D01*
X129631128Y-112182143D01*
X129725377Y-112073373D01*
X129785165Y-111942457D01*
X129805647Y-111800000D01*
X129785165Y-111657543D01*
X129725377Y-111526627D01*
X129631128Y-111417857D01*
X129631127Y-111417856D01*
X129631125Y-111417854D01*
X129510054Y-111340047D01*
X129371961Y-111299500D01*
X129228039Y-111299500D01*
X129089945Y-111340047D01*
X128968871Y-111417856D01*
X128927735Y-111465331D01*
X128875339Y-111496927D01*
X128852916Y-111499500D01*
X128849500Y-111499500D01*
X128791309Y-111480593D01*
X128755345Y-111431093D01*
X128750500Y-111400500D01*
X128750500Y-111330253D01*
X128744383Y-111299500D01*
X128738867Y-111271769D01*
X128724162Y-111249761D01*
X128694552Y-111205447D01*
X128628231Y-111161133D01*
X128628230Y-111161133D01*
X128569748Y-111149500D01*
X127130252Y-111149500D01*
X127105226Y-111154478D01*
X127071768Y-111161133D01*
X127005447Y-111205447D01*
X126961133Y-111271768D01*
X126961132Y-111271769D01*
X126961133Y-111271769D01*
X126949500Y-111330252D01*
X126949500Y-112269748D01*
X119000500Y-112269748D01*
X119000500Y-110844237D01*
X118995285Y-110833409D01*
X118987963Y-110812481D01*
X118985290Y-110800769D01*
X118977796Y-110791372D01*
X118966001Y-110772601D01*
X118960788Y-110761776D01*
X118951390Y-110754281D01*
X118935714Y-110738604D01*
X118928224Y-110729211D01*
X118917396Y-110723997D01*
X118898629Y-110712205D01*
X118889231Y-110704710D01*
X118889229Y-110704709D01*
X118877514Y-110702035D01*
X118856593Y-110694715D01*
X118845763Y-110689500D01*
X118822590Y-110689500D01*
X115491469Y-110689500D01*
X115464572Y-110685776D01*
X115460434Y-110684608D01*
X115441033Y-110688011D01*
X115429554Y-110689010D01*
X115412789Y-110692836D01*
X115407874Y-110693827D01*
X115390950Y-110696796D01*
X115379973Y-110700326D01*
X115360768Y-110704709D01*
X115357409Y-110707389D01*
X115334060Y-110721246D01*
X105177968Y-114991760D01*
X105139594Y-114999500D01*
X101999500Y-114999500D01*
X101941309Y-114980593D01*
X101905345Y-114931093D01*
X101900500Y-114900500D01*
X101900500Y-108954237D01*
X101895285Y-108943409D01*
X101887963Y-108922481D01*
X101885290Y-108910769D01*
X101877796Y-108901372D01*
X101866001Y-108882601D01*
X101860788Y-108871776D01*
X101851390Y-108864281D01*
X101835714Y-108848604D01*
X101828224Y-108839211D01*
X101817396Y-108833997D01*
X101798629Y-108822205D01*
X101789231Y-108814710D01*
X101789229Y-108814709D01*
X101777514Y-108812035D01*
X101756593Y-108804715D01*
X101745763Y-108799500D01*
X101722590Y-108799500D01*
X95451187Y-108799500D01*
X95392996Y-108780593D01*
X95371534Y-108759291D01*
X93703962Y-106499999D01*
X106744518Y-106499999D01*
X106764422Y-106778299D01*
X106823728Y-107050919D01*
X106921230Y-107312337D01*
X106974981Y-107410773D01*
X107054944Y-107557213D01*
X107222145Y-107780568D01*
X107419432Y-107977855D01*
X107419435Y-107977857D01*
X107642787Y-108145056D01*
X107887662Y-108278769D01*
X107953016Y-108303144D01*
X108149077Y-108376271D01*
X108333979Y-108416494D01*
X108421700Y-108435577D01*
X108421702Y-108435577D01*
X108421706Y-108435578D01*
X108700000Y-108455482D01*
X108978294Y-108435578D01*
X109250923Y-108376271D01*
X109512337Y-108278769D01*
X109757213Y-108145056D01*
X109980568Y-107977855D01*
X110177855Y-107780568D01*
X110345056Y-107557213D01*
X110444552Y-107375000D01*
X120494531Y-107375000D01*
X120514364Y-107601689D01*
X120573262Y-107821500D01*
X120669430Y-108027731D01*
X120757836Y-108153990D01*
X120799953Y-108214139D01*
X120960861Y-108375047D01*
X121147266Y-108505568D01*
X121147267Y-108505568D01*
X121147268Y-108505569D01*
X121353499Y-108601737D01*
X121353500Y-108601737D01*
X121353504Y-108601739D01*
X121573308Y-108660635D01*
X121800000Y-108680468D01*
X122026692Y-108660635D01*
X122246496Y-108601739D01*
X122452734Y-108505568D01*
X122639139Y-108375047D01*
X122800047Y-108214139D01*
X122930568Y-108027734D01*
X123026739Y-107821496D01*
X123085635Y-107601692D01*
X123105468Y-107375000D01*
X123085635Y-107148308D01*
X123026739Y-106928504D01*
X122988400Y-106846287D01*
X122930569Y-106722268D01*
X122800049Y-106535864D01*
X122800047Y-106535861D01*
X122639139Y-106374953D01*
X122452734Y-106244432D01*
X122452733Y-106244431D01*
X122452731Y-106244430D01*
X122246500Y-106148262D01*
X122026689Y-106089364D01*
X121800000Y-106069531D01*
X121573310Y-106089364D01*
X121353499Y-106148262D01*
X121147268Y-106244430D01*
X120960864Y-106374950D01*
X120799950Y-106535864D01*
X120669430Y-106722268D01*
X120573262Y-106928499D01*
X120514364Y-107148310D01*
X120494531Y-107375000D01*
X110444552Y-107375000D01*
X110478769Y-107312337D01*
X110576271Y-107050923D01*
X110635578Y-106778294D01*
X110655482Y-106500000D01*
X110635578Y-106221706D01*
X110625526Y-106175500D01*
X110602474Y-106069531D01*
X110586206Y-105994746D01*
X127249500Y-105994746D01*
X127261133Y-106053231D01*
X127305447Y-106119552D01*
X127348413Y-106148261D01*
X127371769Y-106163867D01*
X127430252Y-106175500D01*
X127430253Y-106175500D01*
X128269747Y-106175500D01*
X128269748Y-106175500D01*
X128328231Y-106163867D01*
X128394552Y-106119552D01*
X128438867Y-106053231D01*
X128438866Y-106053231D01*
X128449808Y-106036857D01*
X128449947Y-106036950D01*
X128467679Y-106005285D01*
X128523243Y-105979668D01*
X128583253Y-105991602D01*
X128588398Y-105994691D01*
X128689947Y-106059953D01*
X128828039Y-106100500D01*
X128971961Y-106100500D01*
X129110053Y-106059953D01*
X129211594Y-105994697D01*
X129231125Y-105982145D01*
X129231125Y-105982144D01*
X129231128Y-105982143D01*
X129325377Y-105873373D01*
X129385165Y-105742457D01*
X129405647Y-105600000D01*
X129385165Y-105457543D01*
X129325377Y-105326627D01*
X129231128Y-105217857D01*
X129231127Y-105217856D01*
X129231125Y-105217854D01*
X129110054Y-105140047D01*
X128971961Y-105099500D01*
X128828039Y-105099500D01*
X128689945Y-105140047D01*
X128597224Y-105199635D01*
X128538049Y-105215190D01*
X128481032Y-105192991D01*
X128447953Y-105141518D01*
X128446608Y-105135686D01*
X128438867Y-105096769D01*
X128423233Y-105073371D01*
X128394552Y-105030447D01*
X128328231Y-104986133D01*
X128269748Y-104974500D01*
X127430252Y-104974500D01*
X127401010Y-104980316D01*
X127371768Y-104986133D01*
X127305447Y-105030447D01*
X127261133Y-105096768D01*
X127261132Y-105096769D01*
X127261133Y-105096769D01*
X127252525Y-105140047D01*
X127249500Y-105155253D01*
X127249500Y-105994746D01*
X110586206Y-105994746D01*
X110576271Y-105949077D01*
X110478769Y-105687663D01*
X110478769Y-105687662D01*
X110345056Y-105442787D01*
X110177855Y-105219432D01*
X109980568Y-105022145D01*
X109980564Y-105022142D01*
X109757212Y-104854943D01*
X109512337Y-104721230D01*
X109337114Y-104655876D01*
X109250923Y-104623729D01*
X109250919Y-104623728D01*
X108978299Y-104564422D01*
X108746382Y-104547835D01*
X108700000Y-104544518D01*
X108699999Y-104544518D01*
X108421700Y-104564422D01*
X108149080Y-104623728D01*
X107887662Y-104721230D01*
X107642787Y-104854943D01*
X107419435Y-105022142D01*
X107222142Y-105219435D01*
X107054943Y-105442787D01*
X106921230Y-105687662D01*
X106823728Y-105949080D01*
X106764422Y-106221700D01*
X106744518Y-106499999D01*
X93703962Y-106499999D01*
X92419847Y-104760230D01*
X92400503Y-104702183D01*
X92400500Y-104701439D01*
X92400500Y-101800000D01*
X109994357Y-101800000D01*
X110014885Y-102021536D01*
X110068494Y-102209953D01*
X110075772Y-102235530D01*
X110174940Y-102434686D01*
X110174941Y-102434687D01*
X110174942Y-102434689D01*
X110309019Y-102612236D01*
X110473438Y-102762124D01*
X110662599Y-102879247D01*
X110839023Y-102947594D01*
X110870063Y-102959619D01*
X111088755Y-103000500D01*
X111088757Y-103000500D01*
X111311245Y-103000500D01*
X111529936Y-102959619D01*
X111529937Y-102959618D01*
X111529940Y-102959618D01*
X111737401Y-102879247D01*
X111926562Y-102762124D01*
X112090981Y-102612236D01*
X112225058Y-102434689D01*
X112324229Y-102235528D01*
X112385115Y-102021536D01*
X112405643Y-101800000D01*
X112385115Y-101578464D01*
X112324229Y-101364472D01*
X112225058Y-101165311D01*
X112090981Y-100987764D01*
X111967284Y-100874999D01*
X120494531Y-100874999D01*
X120514364Y-101101689D01*
X120573262Y-101321500D01*
X120669430Y-101527731D01*
X120757836Y-101653990D01*
X120799953Y-101714139D01*
X120960861Y-101875047D01*
X121147266Y-102005568D01*
X121147267Y-102005568D01*
X121147268Y-102005569D01*
X121353499Y-102101737D01*
X121353500Y-102101737D01*
X121353504Y-102101739D01*
X121573308Y-102160635D01*
X121800000Y-102180468D01*
X122026692Y-102160635D01*
X122246496Y-102101739D01*
X122452734Y-102005568D01*
X122639139Y-101875047D01*
X122800047Y-101714139D01*
X122930568Y-101527734D01*
X123026739Y-101321496D01*
X123085635Y-101101692D01*
X123105468Y-100875000D01*
X123085635Y-100648308D01*
X123026739Y-100428504D01*
X122988400Y-100346287D01*
X122930569Y-100222268D01*
X122816915Y-100059952D01*
X122800047Y-100035861D01*
X122639139Y-99874953D01*
X122623306Y-99863867D01*
X122452731Y-99744430D01*
X122246500Y-99648262D01*
X122026689Y-99589364D01*
X121800000Y-99569531D01*
X121573310Y-99589364D01*
X121353499Y-99648262D01*
X121147268Y-99744430D01*
X120960864Y-99874950D01*
X120799950Y-100035864D01*
X120669430Y-100222268D01*
X120573262Y-100428499D01*
X120514364Y-100648310D01*
X120494531Y-100874999D01*
X111967284Y-100874999D01*
X111926562Y-100837876D01*
X111737401Y-100720753D01*
X111737399Y-100720752D01*
X111529936Y-100640380D01*
X111311245Y-100599500D01*
X111311243Y-100599500D01*
X111088757Y-100599500D01*
X111088755Y-100599500D01*
X110870063Y-100640380D01*
X110662600Y-100720752D01*
X110473436Y-100837877D01*
X110333676Y-100965286D01*
X110309019Y-100987764D01*
X110264326Y-101046946D01*
X110174940Y-101165313D01*
X110075772Y-101364469D01*
X110075771Y-101364472D01*
X110064606Y-101403713D01*
X110014885Y-101578464D01*
X109994665Y-101796681D01*
X109994357Y-101800000D01*
X92400500Y-101800000D01*
X92400500Y-99099500D01*
X92419407Y-99041309D01*
X92468907Y-99005345D01*
X92499500Y-99000500D01*
X96427721Y-99000500D01*
X96429722Y-99000500D01*
X96887677Y-98963530D01*
X97341172Y-98889830D01*
X97787266Y-98779878D01*
X98223066Y-98634386D01*
X98645746Y-98454299D01*
X99052563Y-98240785D01*
X99440882Y-97995227D01*
X99808181Y-97719220D01*
X100152080Y-97414552D01*
X100470349Y-97083199D01*
X100760922Y-96727311D01*
X100917824Y-96500000D01*
X102944655Y-96500000D01*
X102944850Y-96503099D01*
X102963607Y-96801246D01*
X102964016Y-96807736D01*
X102964598Y-96810790D01*
X102964600Y-96810801D01*
X103016563Y-97083199D01*
X103021794Y-97110619D01*
X103022751Y-97113565D01*
X103022752Y-97113568D01*
X103116115Y-97400911D01*
X103116118Y-97400919D01*
X103117078Y-97403873D01*
X103248365Y-97682871D01*
X103250026Y-97685488D01*
X103411920Y-97940595D01*
X103411925Y-97940602D01*
X103413584Y-97943216D01*
X103610131Y-98180799D01*
X103834904Y-98391876D01*
X104084360Y-98573116D01*
X104354565Y-98721663D01*
X104641257Y-98835172D01*
X104939914Y-98911854D01*
X105245828Y-98950500D01*
X105248933Y-98950500D01*
X105551067Y-98950500D01*
X105554172Y-98950500D01*
X105860086Y-98911854D01*
X106158743Y-98835172D01*
X106445435Y-98721663D01*
X106715640Y-98573116D01*
X106965096Y-98391876D01*
X107189869Y-98180799D01*
X107386416Y-97943216D01*
X107551635Y-97682871D01*
X107682922Y-97403873D01*
X107778206Y-97110619D01*
X107835984Y-96807736D01*
X107855345Y-96500000D01*
X107835984Y-96192264D01*
X107778206Y-95889381D01*
X107682922Y-95596127D01*
X107551635Y-95317129D01*
X107396944Y-95073373D01*
X107388079Y-95059404D01*
X107388076Y-95059400D01*
X107386416Y-95056784D01*
X107189869Y-94819201D01*
X107026010Y-94665326D01*
X106967369Y-94610258D01*
X106967364Y-94610254D01*
X106965096Y-94608124D01*
X106852925Y-94526627D01*
X106841571Y-94518378D01*
X110199497Y-94518378D01*
X110199500Y-94518417D01*
X110199499Y-98045763D01*
X110204715Y-98056593D01*
X110212035Y-98077514D01*
X110214709Y-98089229D01*
X110214710Y-98089231D01*
X110222205Y-98098629D01*
X110233997Y-98117396D01*
X110239211Y-98128224D01*
X110248604Y-98135714D01*
X110264281Y-98151390D01*
X110271776Y-98160788D01*
X110282599Y-98166000D01*
X110282601Y-98166001D01*
X110301372Y-98177796D01*
X110310769Y-98185290D01*
X110322476Y-98187962D01*
X110322481Y-98187963D01*
X110343405Y-98195283D01*
X110354237Y-98200500D01*
X110354238Y-98200500D01*
X113945762Y-98200500D01*
X113945763Y-98200500D01*
X113956592Y-98195284D01*
X113977511Y-98187964D01*
X113989231Y-98185290D01*
X113998628Y-98177795D01*
X114017401Y-98166000D01*
X114028222Y-98160789D01*
X114028222Y-98160788D01*
X114028224Y-98160788D01*
X114035719Y-98151388D01*
X114051388Y-98135719D01*
X114060788Y-98128224D01*
X114065999Y-98117401D01*
X114077797Y-98098626D01*
X114085290Y-98089231D01*
X114087964Y-98077511D01*
X114095284Y-98056592D01*
X114100500Y-98045763D01*
X114100500Y-97954237D01*
X114100500Y-94477410D01*
X114100500Y-94454237D01*
X114095283Y-94443404D01*
X114087963Y-94422481D01*
X114085290Y-94410769D01*
X114077796Y-94401372D01*
X114066001Y-94382601D01*
X114060788Y-94371776D01*
X114051390Y-94364281D01*
X114035714Y-94348604D01*
X114028224Y-94339211D01*
X114017396Y-94333997D01*
X113998629Y-94322205D01*
X113989231Y-94314710D01*
X113989229Y-94314709D01*
X113977514Y-94312035D01*
X113956593Y-94304715D01*
X113945763Y-94299500D01*
X113922590Y-94299500D01*
X110445763Y-94299500D01*
X110354237Y-94299500D01*
X110343404Y-94304716D01*
X110322490Y-94312034D01*
X110310768Y-94314710D01*
X110301365Y-94322208D01*
X110282603Y-94333997D01*
X110271775Y-94339212D01*
X110264279Y-94348611D01*
X110248611Y-94364279D01*
X110239212Y-94371775D01*
X110233997Y-94382603D01*
X110222208Y-94401365D01*
X110214710Y-94410768D01*
X110212034Y-94422490D01*
X110204716Y-94443404D01*
X110199499Y-94454236D01*
X110199497Y-94518378D01*
X106841571Y-94518378D01*
X106718154Y-94428710D01*
X106718148Y-94428706D01*
X106715640Y-94426884D01*
X106712912Y-94425384D01*
X106448157Y-94279833D01*
X106448151Y-94279830D01*
X106445435Y-94278337D01*
X106442554Y-94277196D01*
X106442547Y-94277193D01*
X106161632Y-94165972D01*
X106161634Y-94165972D01*
X106158743Y-94164828D01*
X106155735Y-94164055D01*
X106155733Y-94164055D01*
X105863093Y-94088918D01*
X105863092Y-94088917D01*
X105860086Y-94088146D01*
X105857005Y-94087756D01*
X105857001Y-94087756D01*
X105557255Y-94049889D01*
X105557247Y-94049888D01*
X105554172Y-94049500D01*
X105245828Y-94049500D01*
X105242753Y-94049888D01*
X105242744Y-94049889D01*
X104942998Y-94087756D01*
X104942991Y-94087757D01*
X104939914Y-94088146D01*
X104936910Y-94088917D01*
X104936906Y-94088918D01*
X104644266Y-94164055D01*
X104644259Y-94164057D01*
X104641257Y-94164828D01*
X104638370Y-94165970D01*
X104638367Y-94165972D01*
X104357452Y-94277193D01*
X104357439Y-94277199D01*
X104354565Y-94278337D01*
X104351854Y-94279827D01*
X104351842Y-94279833D01*
X104087087Y-94425384D01*
X104087077Y-94425390D01*
X104084360Y-94426884D01*
X104081858Y-94428701D01*
X104081845Y-94428710D01*
X103837423Y-94606293D01*
X103837414Y-94606299D01*
X103834904Y-94608124D01*
X103832642Y-94610247D01*
X103832630Y-94610258D01*
X103630580Y-94799998D01*
X103610131Y-94819201D01*
X103608154Y-94821590D01*
X103608149Y-94821596D01*
X103415564Y-95054390D01*
X103415560Y-95054394D01*
X103413584Y-95056784D01*
X103411930Y-95059389D01*
X103411920Y-95059404D01*
X103259432Y-95299690D01*
X103248365Y-95317129D01*
X103247047Y-95319928D01*
X103247043Y-95319937D01*
X103118405Y-95593306D01*
X103117078Y-95596127D01*
X103116120Y-95599075D01*
X103116115Y-95599088D01*
X103022752Y-95886431D01*
X103022750Y-95886438D01*
X103021794Y-95889381D01*
X103021213Y-95892424D01*
X103021211Y-95892434D01*
X102964600Y-96189198D01*
X102964598Y-96189211D01*
X102964016Y-96192264D01*
X102963820Y-96195366D01*
X102963820Y-96195373D01*
X102944850Y-96496900D01*
X102944655Y-96500000D01*
X100917824Y-96500000D01*
X101021917Y-96349195D01*
X101251639Y-95951305D01*
X101448600Y-95536219D01*
X101611521Y-95106631D01*
X101739346Y-94665326D01*
X101831247Y-94215167D01*
X101886627Y-93759072D01*
X101905127Y-93300000D01*
X101899082Y-93149999D01*
X114454352Y-93149999D01*
X114474834Y-93292455D01*
X114474835Y-93292457D01*
X114534623Y-93423373D01*
X114587736Y-93484669D01*
X114628874Y-93532145D01*
X114749945Y-93609952D01*
X114749947Y-93609953D01*
X114888039Y-93650500D01*
X115031961Y-93650500D01*
X115170053Y-93609953D01*
X115291128Y-93532143D01*
X115297389Y-93524917D01*
X115332265Y-93484669D01*
X115384661Y-93453073D01*
X115407084Y-93450500D01*
X120584521Y-93450500D01*
X120642712Y-93469407D01*
X120654525Y-93479496D01*
X122569453Y-95394424D01*
X122597230Y-95448941D01*
X122597442Y-95478516D01*
X122594353Y-95500000D01*
X122614834Y-95642455D01*
X122614835Y-95642457D01*
X122674623Y-95773373D01*
X122686913Y-95787556D01*
X122768874Y-95882145D01*
X122861938Y-95941953D01*
X122900669Y-95989319D01*
X122907415Y-96025237D01*
X122907414Y-99592749D01*
X122904817Y-99608672D01*
X122907309Y-99662556D01*
X122907415Y-99667128D01*
X122907415Y-99685760D01*
X122907436Y-99685873D01*
X122909016Y-99699493D01*
X122910329Y-99727906D01*
X122914299Y-99736897D01*
X122921047Y-99758688D01*
X122922853Y-99768347D01*
X122937826Y-99792531D01*
X122944215Y-99804651D01*
X122955709Y-99830680D01*
X122955710Y-99830681D01*
X122962658Y-99837630D01*
X122976825Y-99855515D01*
X122981996Y-99863868D01*
X123004687Y-99881002D01*
X123015032Y-99890003D01*
X126072622Y-102947594D01*
X126100399Y-103002111D01*
X126090828Y-103062543D01*
X126047563Y-103105808D01*
X125987131Y-103115379D01*
X125984427Y-103114912D01*
X125901978Y-103099500D01*
X125901976Y-103099500D01*
X125698024Y-103099500D01*
X125698022Y-103099500D01*
X125497546Y-103136974D01*
X125307360Y-103210653D01*
X125133961Y-103318017D01*
X125133958Y-103318019D01*
X125133959Y-103318019D01*
X124983236Y-103455421D01*
X124947251Y-103503073D01*
X124860325Y-103618181D01*
X124769419Y-103800747D01*
X124769418Y-103800750D01*
X124713603Y-103996917D01*
X124694785Y-104200000D01*
X124713603Y-104403083D01*
X124759508Y-104564422D01*
X124769419Y-104599252D01*
X124860325Y-104781818D01*
X124860326Y-104781819D01*
X124860327Y-104781821D01*
X124983236Y-104944579D01*
X125133959Y-105081981D01*
X125307363Y-105189348D01*
X125457254Y-105247415D01*
X125497546Y-105263025D01*
X125698022Y-105300500D01*
X125698024Y-105300500D01*
X125901978Y-105300500D01*
X126102453Y-105263025D01*
X126110383Y-105259953D01*
X126292637Y-105189348D01*
X126466041Y-105081981D01*
X126616764Y-104944579D01*
X126739673Y-104781821D01*
X126830582Y-104599250D01*
X126886397Y-104403083D01*
X126905215Y-104200000D01*
X126886397Y-103996917D01*
X126830582Y-103800750D01*
X126752344Y-103643627D01*
X126743332Y-103583110D01*
X126771612Y-103528852D01*
X126826383Y-103501580D01*
X126840966Y-103500500D01*
X128652916Y-103500500D01*
X128711107Y-103519407D01*
X128727735Y-103534669D01*
X128768871Y-103582143D01*
X128889945Y-103659952D01*
X128889947Y-103659953D01*
X129028039Y-103700500D01*
X129171961Y-103700500D01*
X129310053Y-103659953D01*
X129431128Y-103582143D01*
X129472265Y-103534669D01*
X129524661Y-103503073D01*
X129547084Y-103500500D01*
X129934835Y-103500500D01*
X129950755Y-103503097D01*
X129957764Y-103502772D01*
X129957765Y-103502773D01*
X130004641Y-103500606D01*
X130009214Y-103500500D01*
X130027844Y-103500500D01*
X130027951Y-103500480D01*
X130041571Y-103498898D01*
X130069992Y-103497585D01*
X130078982Y-103493615D01*
X130100772Y-103486866D01*
X130110433Y-103485061D01*
X130134623Y-103470082D01*
X130146722Y-103463704D01*
X130172765Y-103452206D01*
X130179710Y-103445259D01*
X130197597Y-103431091D01*
X130205952Y-103425919D01*
X130223095Y-103403216D01*
X130232090Y-103392880D01*
X131145476Y-102479496D01*
X131199992Y-102451719D01*
X131215479Y-102450500D01*
X134434835Y-102450500D01*
X134450755Y-102453097D01*
X134457764Y-102452772D01*
X134457765Y-102452773D01*
X134504641Y-102450606D01*
X134509214Y-102450500D01*
X134527844Y-102450500D01*
X134527951Y-102450480D01*
X134541571Y-102448898D01*
X134569992Y-102447585D01*
X134578982Y-102443615D01*
X134600772Y-102436866D01*
X134610433Y-102435061D01*
X134634623Y-102420082D01*
X134646722Y-102413704D01*
X134672765Y-102402206D01*
X134679710Y-102395259D01*
X134697597Y-102381091D01*
X134705952Y-102375919D01*
X134723095Y-102353216D01*
X134732082Y-102342887D01*
X134807649Y-102267320D01*
X134849758Y-102242337D01*
X134960053Y-102209953D01*
X134960053Y-102209952D01*
X134972610Y-102206266D01*
X135033770Y-102208014D01*
X135082222Y-102245377D01*
X135099500Y-102301256D01*
X135099500Y-103884521D01*
X135080593Y-103942712D01*
X135070504Y-103954524D01*
X134754523Y-104270504D01*
X134700008Y-104298281D01*
X134684521Y-104299500D01*
X134578039Y-104299500D01*
X134439945Y-104340047D01*
X134318874Y-104417854D01*
X134224622Y-104526628D01*
X134164834Y-104657544D01*
X134144352Y-104800000D01*
X134164834Y-104942455D01*
X134164835Y-104942457D01*
X134224623Y-105073373D01*
X134282396Y-105140047D01*
X134318874Y-105182145D01*
X134439945Y-105259952D01*
X134439947Y-105259953D01*
X134578039Y-105300500D01*
X134721961Y-105300500D01*
X134860053Y-105259953D01*
X134981128Y-105182143D01*
X135075377Y-105073373D01*
X135135165Y-104942457D01*
X135155647Y-104800000D01*
X135152558Y-104778516D01*
X135162991Y-104718228D01*
X135180543Y-104694426D01*
X135566405Y-104308564D01*
X135579496Y-104299147D01*
X135584225Y-104293959D01*
X135584228Y-104293958D01*
X135615877Y-104259239D01*
X135618994Y-104255975D01*
X135632174Y-104242797D01*
X135632238Y-104242702D01*
X135640745Y-104231961D01*
X135659916Y-104210933D01*
X135663466Y-104201766D01*
X135674104Y-104181585D01*
X135679656Y-104173481D01*
X135686169Y-104145785D01*
X135690221Y-104132702D01*
X135700500Y-104106173D01*
X135700500Y-104096347D01*
X135703130Y-104073679D01*
X135705379Y-104064119D01*
X135701449Y-104035946D01*
X135700500Y-104022268D01*
X135700500Y-101065166D01*
X135703097Y-101049246D01*
X135700606Y-100995357D01*
X135700500Y-100990785D01*
X135700500Y-100972156D01*
X135700480Y-100972050D01*
X135698898Y-100958430D01*
X135697585Y-100930008D01*
X135693612Y-100921012D01*
X135686866Y-100899223D01*
X135685061Y-100889567D01*
X135670088Y-100865384D01*
X135663696Y-100853257D01*
X135656905Y-100837877D01*
X135652206Y-100827235D01*
X135652205Y-100827234D01*
X135652205Y-100827233D01*
X135645256Y-100820284D01*
X135631090Y-100802399D01*
X135625919Y-100794048D01*
X135603221Y-100776907D01*
X135592879Y-100767908D01*
X134258566Y-99433595D01*
X134249145Y-99420501D01*
X134209273Y-99384152D01*
X134205967Y-99380995D01*
X134192796Y-99367825D01*
X134192697Y-99367757D01*
X134181954Y-99359247D01*
X134160934Y-99340085D01*
X134160933Y-99340084D01*
X134151762Y-99336531D01*
X134131587Y-99325896D01*
X134123481Y-99320344D01*
X134095797Y-99313832D01*
X134082704Y-99309777D01*
X134056175Y-99299500D01*
X134056173Y-99299500D01*
X134046348Y-99299500D01*
X134023682Y-99296870D01*
X134014119Y-99294621D01*
X134014118Y-99294621D01*
X133985947Y-99298551D01*
X133972269Y-99299500D01*
X129147083Y-99299500D01*
X129088892Y-99280593D01*
X129072265Y-99265332D01*
X129031128Y-99217857D01*
X129024680Y-99210415D01*
X129000863Y-99154056D01*
X129000500Y-99145585D01*
X129000500Y-96215166D01*
X129003097Y-96199246D01*
X129000606Y-96145357D01*
X129000500Y-96140785D01*
X129000500Y-96122156D01*
X129000480Y-96122050D01*
X128998898Y-96108430D01*
X128997585Y-96080008D01*
X128993612Y-96071012D01*
X128986866Y-96049223D01*
X128985061Y-96039567D01*
X128976188Y-96025237D01*
X128970088Y-96015384D01*
X128963696Y-96003257D01*
X128952205Y-95977233D01*
X128945256Y-95970284D01*
X128931090Y-95952399D01*
X128925919Y-95944048D01*
X128903221Y-95926907D01*
X128892879Y-95917908D01*
X127880546Y-94905575D01*
X127852769Y-94851058D01*
X127852558Y-94821480D01*
X127855647Y-94799998D01*
X127835165Y-94657544D01*
X127813570Y-94610258D01*
X127775377Y-94526627D01*
X127681128Y-94417857D01*
X127681127Y-94417856D01*
X127674680Y-94410416D01*
X127650862Y-94354057D01*
X127650499Y-94345607D01*
X127650499Y-91615477D01*
X127669406Y-91557287D01*
X127679495Y-91545474D01*
X127900922Y-91324047D01*
X128266405Y-90958564D01*
X128279496Y-90949147D01*
X128284225Y-90943959D01*
X128284228Y-90943958D01*
X128315877Y-90909239D01*
X128318994Y-90905975D01*
X128332174Y-90892797D01*
X128332238Y-90892702D01*
X128340745Y-90881961D01*
X128359916Y-90860933D01*
X128363466Y-90851766D01*
X128374104Y-90831585D01*
X128379656Y-90823481D01*
X128386169Y-90795785D01*
X128390221Y-90782702D01*
X128400500Y-90756173D01*
X128400500Y-90746342D01*
X128403128Y-90723685D01*
X128405379Y-90714119D01*
X128401448Y-90685951D01*
X128400499Y-90672271D01*
X128400499Y-90604415D01*
X128419406Y-90546224D01*
X128424680Y-90539584D01*
X128440407Y-90521434D01*
X128525377Y-90423373D01*
X128585165Y-90292457D01*
X128605647Y-90150000D01*
X128585165Y-90007543D01*
X128525377Y-89876627D01*
X128431128Y-89767857D01*
X128431127Y-89767856D01*
X128431125Y-89767854D01*
X128310054Y-89690047D01*
X128171961Y-89649500D01*
X128028039Y-89649500D01*
X127889945Y-89690047D01*
X127803023Y-89745908D01*
X127743848Y-89761463D01*
X127686831Y-89739264D01*
X127653752Y-89687791D01*
X127650500Y-89662624D01*
X127650500Y-88649500D01*
X127669407Y-88591309D01*
X127718907Y-88555345D01*
X127749500Y-88550500D01*
X128269747Y-88550500D01*
X128269748Y-88550500D01*
X128328231Y-88538867D01*
X128394552Y-88494552D01*
X128438867Y-88428231D01*
X128450500Y-88369748D01*
X128450500Y-87500000D01*
X131424416Y-87500000D01*
X131444699Y-87705933D01*
X131504767Y-87903952D01*
X131504768Y-87903954D01*
X131602315Y-88086450D01*
X131733590Y-88246410D01*
X131893550Y-88377685D01*
X132076046Y-88475232D01*
X132274066Y-88535299D01*
X132274066Y-88535300D01*
X132479999Y-88555583D01*
X132479999Y-88555582D01*
X132480000Y-88555583D01*
X132685934Y-88535300D01*
X132883954Y-88475232D01*
X133066450Y-88377685D01*
X133226410Y-88246410D01*
X133357685Y-88086450D01*
X133455232Y-87903954D01*
X133515300Y-87705934D01*
X133535583Y-87500000D01*
X133535583Y-87499999D01*
X133964416Y-87499999D01*
X133984699Y-87705933D01*
X134044767Y-87903952D01*
X134044768Y-87903954D01*
X134142315Y-88086450D01*
X134273590Y-88246410D01*
X134433550Y-88377685D01*
X134616046Y-88475232D01*
X134814066Y-88535300D01*
X135020000Y-88555583D01*
X135225934Y-88535300D01*
X135423954Y-88475232D01*
X135606450Y-88377685D01*
X135766410Y-88246410D01*
X135897685Y-88086450D01*
X135995232Y-87903954D01*
X136055300Y-87705934D01*
X136075583Y-87500000D01*
X136055300Y-87294066D01*
X135995232Y-87096046D01*
X135897685Y-86913550D01*
X135766410Y-86753590D01*
X135606450Y-86622315D01*
X135423954Y-86524768D01*
X135423953Y-86524767D01*
X135423952Y-86524767D01*
X135225933Y-86464699D01*
X135019999Y-86444416D01*
X134814066Y-86464699D01*
X134616047Y-86524767D01*
X134433549Y-86622315D01*
X134273590Y-86753590D01*
X134142315Y-86913549D01*
X134044767Y-87096047D01*
X133984699Y-87294066D01*
X133964416Y-87499999D01*
X133535583Y-87499999D01*
X133515300Y-87294066D01*
X133455232Y-87096046D01*
X133357685Y-86913550D01*
X133226410Y-86753590D01*
X133066450Y-86622315D01*
X132883954Y-86524768D01*
X132883953Y-86524767D01*
X132883952Y-86524767D01*
X132685933Y-86464699D01*
X132480000Y-86444416D01*
X132274066Y-86464699D01*
X132076047Y-86524767D01*
X131893549Y-86622315D01*
X131733590Y-86753590D01*
X131602315Y-86913549D01*
X131504767Y-87096047D01*
X131444699Y-87294066D01*
X131424416Y-87500000D01*
X128450500Y-87500000D01*
X128450500Y-86630252D01*
X128438867Y-86571769D01*
X128424162Y-86549762D01*
X128394552Y-86505447D01*
X128328231Y-86461133D01*
X128293562Y-86454237D01*
X128269748Y-86449500D01*
X126530252Y-86449500D01*
X126506438Y-86454237D01*
X126471768Y-86461133D01*
X126405447Y-86505447D01*
X126361133Y-86571768D01*
X126361132Y-86571769D01*
X126361133Y-86571769D01*
X126349500Y-86630252D01*
X126349500Y-88369748D01*
X126361133Y-88428230D01*
X126361133Y-88428231D01*
X126405447Y-88494552D01*
X126449762Y-88524162D01*
X126471769Y-88538867D01*
X126530252Y-88550500D01*
X126950500Y-88550500D01*
X127008691Y-88569407D01*
X127044655Y-88618907D01*
X127049500Y-88649500D01*
X127049500Y-91403653D01*
X127046870Y-91426319D01*
X127044621Y-91435879D01*
X127048551Y-91464053D01*
X127049500Y-91477730D01*
X127049499Y-94345585D01*
X127030592Y-94403776D01*
X127025319Y-94410415D01*
X126924623Y-94526626D01*
X126864834Y-94657544D01*
X126844352Y-94800000D01*
X126864834Y-94942455D01*
X126918244Y-95059404D01*
X126924623Y-95073373D01*
X127018872Y-95182143D01*
X127018874Y-95182145D01*
X127139945Y-95259952D01*
X127139947Y-95259953D01*
X127278039Y-95300500D01*
X127384521Y-95300500D01*
X127442712Y-95319407D01*
X127454525Y-95329496D01*
X128370503Y-96245475D01*
X128398280Y-96299992D01*
X128399499Y-96315479D01*
X128399500Y-99145585D01*
X128380593Y-99203776D01*
X128375320Y-99210416D01*
X128274622Y-99326628D01*
X128214834Y-99457544D01*
X128194352Y-99600000D01*
X128214834Y-99742455D01*
X128258300Y-99837630D01*
X128274623Y-99873373D01*
X128327736Y-99934669D01*
X128368874Y-99982145D01*
X128489945Y-100059952D01*
X128489947Y-100059953D01*
X128628039Y-100100500D01*
X128771961Y-100100500D01*
X128910053Y-100059953D01*
X129031128Y-99982143D01*
X129032614Y-99980428D01*
X129072265Y-99934669D01*
X129124661Y-99903073D01*
X129147084Y-99900500D01*
X133834521Y-99900500D01*
X133892712Y-99919407D01*
X133904525Y-99929496D01*
X135070504Y-101095475D01*
X135098281Y-101149992D01*
X135099500Y-101165479D01*
X135099500Y-101198743D01*
X135080593Y-101256934D01*
X135031093Y-101292898D01*
X134972609Y-101293733D01*
X134821961Y-101249500D01*
X134678039Y-101249500D01*
X134539945Y-101290047D01*
X134418874Y-101367854D01*
X134324622Y-101476628D01*
X134264834Y-101607544D01*
X134242327Y-101764089D01*
X134237723Y-101763427D01*
X134231976Y-101796681D01*
X134188107Y-101839333D01*
X134144407Y-101849500D01*
X131115165Y-101849500D01*
X131099244Y-101846902D01*
X131045358Y-101849394D01*
X131040786Y-101849500D01*
X131022154Y-101849500D01*
X131022031Y-101849523D01*
X131008420Y-101851101D01*
X130980008Y-101852414D01*
X130971015Y-101856385D01*
X130949228Y-101863132D01*
X130939566Y-101864938D01*
X130915381Y-101879912D01*
X130903261Y-101886301D01*
X130877234Y-101897794D01*
X130870285Y-101904743D01*
X130852408Y-101918904D01*
X130844047Y-101924081D01*
X130826907Y-101946777D01*
X130817910Y-101957116D01*
X129904525Y-102870503D01*
X129850008Y-102898281D01*
X129834521Y-102899500D01*
X129547084Y-102899500D01*
X129488893Y-102880593D01*
X129472265Y-102865331D01*
X129431128Y-102817856D01*
X129310054Y-102740047D01*
X129171961Y-102699500D01*
X129028039Y-102699500D01*
X128889945Y-102740047D01*
X128768871Y-102817856D01*
X128727735Y-102865331D01*
X128675339Y-102896927D01*
X128652916Y-102899500D01*
X126915479Y-102899500D01*
X126857288Y-102880593D01*
X126845475Y-102870504D01*
X123537410Y-99562439D01*
X123509633Y-99507922D01*
X123508414Y-99492447D01*
X123508414Y-95829874D01*
X123522163Y-95787556D01*
X123519464Y-95786323D01*
X123585165Y-95642457D01*
X123600181Y-95538015D01*
X123605647Y-95500000D01*
X123585165Y-95357543D01*
X123525377Y-95226627D01*
X123431128Y-95117857D01*
X123431127Y-95117856D01*
X123431125Y-95117854D01*
X123310054Y-95040047D01*
X123171961Y-94999500D01*
X123065479Y-94999500D01*
X123007288Y-94980593D01*
X122995475Y-94970504D01*
X121008566Y-92983595D01*
X120999145Y-92970501D01*
X120959273Y-92934152D01*
X120955967Y-92930995D01*
X120942796Y-92917825D01*
X120942697Y-92917757D01*
X120931954Y-92909247D01*
X120910934Y-92890085D01*
X120910933Y-92890084D01*
X120901762Y-92886531D01*
X120881587Y-92875896D01*
X120873481Y-92870344D01*
X120845797Y-92863832D01*
X120832704Y-92859777D01*
X120806175Y-92849500D01*
X120806173Y-92849500D01*
X120796348Y-92849500D01*
X120773682Y-92846870D01*
X120764119Y-92844621D01*
X120764118Y-92844621D01*
X120735947Y-92848551D01*
X120722269Y-92849500D01*
X115407084Y-92849500D01*
X115348893Y-92830593D01*
X115332265Y-92815331D01*
X115291128Y-92767856D01*
X115170054Y-92690047D01*
X115031961Y-92649500D01*
X114888039Y-92649500D01*
X114749945Y-92690047D01*
X114628874Y-92767854D01*
X114534622Y-92876628D01*
X114474834Y-93007544D01*
X114454352Y-93149999D01*
X101899082Y-93149999D01*
X101886627Y-92840928D01*
X101831247Y-92384833D01*
X101739346Y-91934674D01*
X101611521Y-91493369D01*
X101448600Y-91063781D01*
X101251639Y-90648695D01*
X101021917Y-90250805D01*
X100769619Y-89885289D01*
X100762061Y-89874339D01*
X100762059Y-89874337D01*
X100760922Y-89872689D01*
X100470349Y-89516801D01*
X100152080Y-89185448D01*
X100150588Y-89184126D01*
X99809667Y-88882096D01*
X99809660Y-88882090D01*
X99808181Y-88880780D01*
X99806599Y-88879591D01*
X99806589Y-88879583D01*
X99442484Y-88605976D01*
X99442470Y-88605966D01*
X99440882Y-88604773D01*
X99439190Y-88603703D01*
X99054250Y-88360281D01*
X99054247Y-88360279D01*
X99052564Y-88359215D01*
X99050799Y-88358289D01*
X99050791Y-88358284D01*
X98647526Y-88146635D01*
X98647521Y-88146632D01*
X98645746Y-88145701D01*
X98643909Y-88144918D01*
X98643902Y-88144915D01*
X98224905Y-87966397D01*
X98224893Y-87966392D01*
X98223066Y-87965614D01*
X98221181Y-87964984D01*
X98221166Y-87964979D01*
X97789167Y-87820756D01*
X97789152Y-87820751D01*
X97787266Y-87820122D01*
X97785331Y-87819645D01*
X97785317Y-87819641D01*
X97343104Y-87710646D01*
X97343099Y-87710645D01*
X97341172Y-87710170D01*
X97339223Y-87709853D01*
X97339212Y-87709851D01*
X96889636Y-87636788D01*
X96889627Y-87636786D01*
X96887677Y-87636470D01*
X96885700Y-87636310D01*
X96885697Y-87636310D01*
X96491534Y-87604489D01*
X96435053Y-87580960D01*
X96403189Y-87528727D01*
X96400500Y-87505810D01*
X96400500Y-86199500D01*
X96419407Y-86141309D01*
X96468907Y-86105345D01*
X96499500Y-86100500D01*
X105859722Y-86100500D01*
X105917913Y-86119407D01*
G37*
%TD.AperFunction*%
%TD*%
M02*
