%TF.GenerationSoftware,KiCad,Pcbnew,7.0.2*%
%TF.CreationDate,2023-08-30T02:12:12+03:00*%
%TF.ProjectId,PCBTRIGGERASSEMBLY,50434254-5249-4474-9745-52415353454d,rev?*%
%TF.SameCoordinates,Original*%
%TF.FileFunction,Paste,Top*%
%TF.FilePolarity,Positive*%
%FSLAX46Y46*%
G04 Gerber Fmt 4.6, Leading zero omitted, Abs format (unit mm)*
G04 Created by KiCad (PCBNEW 7.0.2) date 2023-08-30 02:12:12*
%MOMM*%
%LPD*%
G01*
G04 APERTURE LIST*
G04 Aperture macros list*
%AMRoundRect*
0 Rectangle with rounded corners*
0 $1 Rounding radius*
0 $2 $3 $4 $5 $6 $7 $8 $9 X,Y pos of 4 corners*
0 Add a 4 corners polygon primitive as box body*
4,1,4,$2,$3,$4,$5,$6,$7,$8,$9,$2,$3,0*
0 Add four circle primitives for the rounded corners*
1,1,$1+$1,$2,$3*
1,1,$1+$1,$4,$5*
1,1,$1+$1,$6,$7*
1,1,$1+$1,$8,$9*
0 Add four rect primitives between the rounded corners*
20,1,$1+$1,$2,$3,$4,$5,0*
20,1,$1+$1,$4,$5,$6,$7,0*
20,1,$1+$1,$6,$7,$8,$9,0*
20,1,$1+$1,$8,$9,$2,$3,0*%
%AMRotRect*
0 Rectangle, with rotation*
0 The origin of the aperture is its center*
0 $1 length*
0 $2 width*
0 $3 Rotation angle, in degrees counterclockwise*
0 Add horizontal line*
21,1,$1,$2,0,0,$3*%
G04 Aperture macros list end*
%ADD10R,0.800000X0.800000*%
%ADD11RoundRect,0.508000X0.508000X-1.992000X0.508000X1.992000X-0.508000X1.992000X-0.508000X-1.992000X0*%
%ADD12RoundRect,0.508000X-1.992000X-0.508000X1.992000X-0.508000X1.992000X0.508000X-1.992000X0.508000X0*%
%ADD13RoundRect,0.140000X0.170000X-0.140000X0.170000X0.140000X-0.170000X0.140000X-0.170000X-0.140000X0*%
%ADD14RoundRect,0.135000X-0.135000X-0.185000X0.135000X-0.185000X0.135000X0.185000X-0.135000X0.185000X0*%
%ADD15RoundRect,0.135000X0.185000X-0.135000X0.185000X0.135000X-0.185000X0.135000X-0.185000X-0.135000X0*%
%ADD16R,0.610000X1.270000*%
%ADD17R,3.910000X3.810000*%
%ADD18R,0.610000X1.020000*%
%ADD19RoundRect,0.225000X0.225000X0.375000X-0.225000X0.375000X-0.225000X-0.375000X0.225000X-0.375000X0*%
%ADD20RoundRect,0.140000X-0.140000X-0.170000X0.140000X-0.170000X0.140000X0.170000X-0.140000X0.170000X0*%
%ADD21RotRect,1.500000X1.500000X75.000000*%
%ADD22RotRect,0.900000X0.900000X75.000000*%
%ADD23R,0.700000X1.525000*%
%ADD24RoundRect,0.150000X-0.150000X0.587500X-0.150000X-0.587500X0.150000X-0.587500X0.150000X0.587500X0*%
%ADD25RoundRect,0.135000X-0.185000X0.135000X-0.185000X-0.135000X0.185000X-0.135000X0.185000X0.135000X0*%
%ADD26RoundRect,0.140000X-0.170000X0.140000X-0.170000X-0.140000X0.170000X-0.140000X0.170000X0.140000X0*%
%ADD27R,0.300000X0.950000*%
%ADD28R,0.900000X1.400000*%
%ADD29RoundRect,0.218750X-0.218750X-0.381250X0.218750X-0.381250X0.218750X0.381250X-0.218750X0.381250X0*%
%ADD30RoundRect,0.508000X1.992000X0.508000X-1.992000X0.508000X-1.992000X-0.508000X1.992000X-0.508000X0*%
%ADD31RoundRect,0.135000X0.135000X0.185000X-0.135000X0.185000X-0.135000X-0.185000X0.135000X-0.185000X0*%
%ADD32R,0.800000X0.200000*%
%ADD33R,0.200000X0.800000*%
%ADD34R,1.800000X1.800000*%
%ADD35RotRect,1.500000X1.500000X255.000000*%
%ADD36RotRect,0.900000X0.900000X255.000000*%
%ADD37R,1.200000X0.550000*%
G04 APERTURE END LIST*
D10*
%TO.C,Q4*%
X127375000Y-113200000D03*
X125725000Y-113200000D03*
%TD*%
D11*
%TO.C,U2*%
X109000000Y-97800000D03*
%TD*%
D12*
%TO.C,U4*%
X109750000Y-110000000D03*
%TD*%
D13*
%TO.C,C2*%
X129200000Y-94880000D03*
X129200000Y-93920000D03*
%TD*%
D14*
%TO.C,R15*%
X123940000Y-91150000D03*
X124960000Y-91150000D03*
%TD*%
D15*
%TO.C,R12*%
X126450000Y-94660000D03*
X126450000Y-93640000D03*
%TD*%
D16*
%TO.C,Q8*%
X106105000Y-100830000D03*
X104835000Y-100830000D03*
X103565000Y-100830000D03*
X102295000Y-100830000D03*
D17*
X104200000Y-104190000D03*
D18*
X106105000Y-106295000D03*
X104835000Y-106295000D03*
X103565000Y-106295000D03*
X102295000Y-106295000D03*
%TD*%
D19*
%TO.C,D1*%
X98850000Y-104700000D03*
X95550000Y-104700000D03*
%TD*%
D20*
%TO.C,C1*%
X129730000Y-107150000D03*
X130690000Y-107150000D03*
%TD*%
D15*
%TO.C,R7*%
X131200000Y-104770000D03*
X131200000Y-103750000D03*
%TD*%
D21*
%TO.C,Q2*%
X94979630Y-100087067D03*
X98360370Y-100992933D03*
D22*
X96501768Y-101167852D03*
%TD*%
D23*
%TO.C,IC1*%
X102390000Y-113600000D03*
X103660000Y-113600000D03*
X104930000Y-113600000D03*
X106200000Y-113600000D03*
X106200000Y-108176000D03*
X104930000Y-108176000D03*
X103660000Y-108176000D03*
X102390000Y-108176000D03*
%TD*%
D14*
%TO.C,R3*%
X129700000Y-109250000D03*
X130720000Y-109250000D03*
%TD*%
D24*
%TO.C,Q7*%
X119050000Y-92530000D03*
X117150000Y-92530000D03*
X118100000Y-94405000D03*
%TD*%
D14*
%TO.C,R1*%
X129700000Y-108200000D03*
X130720000Y-108200000D03*
%TD*%
D25*
%TO.C,R8*%
X115800000Y-93990000D03*
X115800000Y-95010000D03*
%TD*%
D20*
%TO.C,C6*%
X134720000Y-100965000D03*
X135680000Y-100965000D03*
%TD*%
D26*
%TO.C,C14*%
X128700000Y-100470000D03*
X128700000Y-101430000D03*
%TD*%
D13*
%TO.C,C3*%
X128200000Y-94880000D03*
X128200000Y-93920000D03*
%TD*%
D15*
%TO.C,R5*%
X128100000Y-92900000D03*
X128100000Y-91880000D03*
%TD*%
D25*
%TO.C,R11*%
X131600000Y-90290000D03*
X131600000Y-91310000D03*
%TD*%
%TO.C,R14*%
X133400000Y-103750000D03*
X133400000Y-104770000D03*
%TD*%
D15*
%TO.C,R2*%
X132800000Y-91310000D03*
X132800000Y-90290000D03*
%TD*%
D27*
%TO.C,IC2*%
X133300000Y-100900000D03*
X132800000Y-100900000D03*
X132300000Y-100900000D03*
X132300000Y-102400000D03*
X132800000Y-102400000D03*
X133300000Y-102400000D03*
%TD*%
D28*
%TO.C,LED2*%
X123300000Y-113300000D03*
X121300000Y-113300000D03*
%TD*%
D15*
%TO.C,R18*%
X132300000Y-104770000D03*
X132300000Y-103750000D03*
%TD*%
D20*
%TO.C,C5*%
X134720000Y-99850000D03*
X135680000Y-99850000D03*
%TD*%
D13*
%TO.C,C4*%
X129250000Y-92870000D03*
X129250000Y-91910000D03*
%TD*%
D26*
%TO.C,C16*%
X130900000Y-100470000D03*
X130900000Y-101430000D03*
%TD*%
D29*
%TO.C,L1*%
X131137500Y-99050000D03*
X133262500Y-99050000D03*
%TD*%
D15*
%TO.C,R13*%
X120750000Y-93560000D03*
X120750000Y-92540000D03*
%TD*%
D30*
%TO.C,U3*%
X98650000Y-107250000D03*
%TD*%
D25*
%TO.C,R4*%
X130000000Y-103750000D03*
X130000000Y-104770000D03*
%TD*%
D31*
%TO.C,R9*%
X122860000Y-91160000D03*
X121840000Y-91160000D03*
%TD*%
D32*
%TO.C,IC3*%
X130550000Y-93600000D03*
X130550000Y-94000000D03*
X130550000Y-94400000D03*
X130550000Y-94800000D03*
X130550000Y-95200000D03*
D33*
X131250000Y-95900000D03*
X131650000Y-95900000D03*
X132050000Y-95900000D03*
X132450000Y-95900000D03*
X132850000Y-95900000D03*
D32*
X133550000Y-95200000D03*
X133550000Y-94800000D03*
X133550000Y-94400000D03*
X133550000Y-94000000D03*
X133550000Y-93600000D03*
D33*
X132850000Y-92900000D03*
X132450000Y-92900000D03*
X132050000Y-92900000D03*
X131650000Y-92900000D03*
X131250000Y-92900000D03*
D34*
X132050000Y-94400000D03*
%TD*%
D35*
%TO.C,LED4*%
X103522138Y-88280785D03*
X100141398Y-87374919D03*
D36*
X102000000Y-87200000D03*
%TD*%
D31*
%TO.C,R6*%
X107460000Y-88000000D03*
X106440000Y-88000000D03*
%TD*%
D37*
%TO.C,IC4*%
X124750000Y-94550000D03*
X124750000Y-93600000D03*
X124750000Y-92650000D03*
X122250000Y-92650000D03*
X122250000Y-93600000D03*
X122250000Y-94550000D03*
%TD*%
D26*
%TO.C,C15*%
X129800000Y-100470000D03*
X129800000Y-101430000D03*
%TD*%
M02*
