%TF.GenerationSoftware,KiCad,Pcbnew,7.0.2*%
%TF.CreationDate,2023-08-30T02:12:11+03:00*%
%TF.ProjectId,PCBTRIGGERASSEMBLY,50434254-5249-4474-9745-52415353454d,rev?*%
%TF.SameCoordinates,Original*%
%TF.FileFunction,Copper,L1,Top*%
%TF.FilePolarity,Positive*%
%FSLAX46Y46*%
G04 Gerber Fmt 4.6, Leading zero omitted, Abs format (unit mm)*
G04 Created by KiCad (PCBNEW 7.0.2) date 2023-08-30 02:12:11*
%MOMM*%
%LPD*%
G01*
G04 APERTURE LIST*
G04 Aperture macros list*
%AMRoundRect*
0 Rectangle with rounded corners*
0 $1 Rounding radius*
0 $2 $3 $4 $5 $6 $7 $8 $9 X,Y pos of 4 corners*
0 Add a 4 corners polygon primitive as box body*
4,1,4,$2,$3,$4,$5,$6,$7,$8,$9,$2,$3,0*
0 Add four circle primitives for the rounded corners*
1,1,$1+$1,$2,$3*
1,1,$1+$1,$4,$5*
1,1,$1+$1,$6,$7*
1,1,$1+$1,$8,$9*
0 Add four rect primitives between the rounded corners*
20,1,$1+$1,$2,$3,$4,$5,0*
20,1,$1+$1,$4,$5,$6,$7,0*
20,1,$1+$1,$6,$7,$8,$9,0*
20,1,$1+$1,$8,$9,$2,$3,0*%
%AMRotRect*
0 Rectangle, with rotation*
0 The origin of the aperture is its center*
0 $1 length*
0 $2 width*
0 $3 Rotation angle, in degrees counterclockwise*
0 Add horizontal line*
21,1,$1,$2,0,0,$3*%
G04 Aperture macros list end*
%TA.AperFunction,SMDPad,CuDef*%
%ADD10R,0.800000X0.800000*%
%TD*%
%TA.AperFunction,SMDPad,CuDef*%
%ADD11RoundRect,0.508000X0.508000X-1.992000X0.508000X1.992000X-0.508000X1.992000X-0.508000X-1.992000X0*%
%TD*%
%TA.AperFunction,SMDPad,CuDef*%
%ADD12RoundRect,0.508000X-1.992000X-0.508000X1.992000X-0.508000X1.992000X0.508000X-1.992000X0.508000X0*%
%TD*%
%TA.AperFunction,SMDPad,CuDef*%
%ADD13RoundRect,0.140000X0.170000X-0.140000X0.170000X0.140000X-0.170000X0.140000X-0.170000X-0.140000X0*%
%TD*%
%TA.AperFunction,SMDPad,CuDef*%
%ADD14RoundRect,0.135000X-0.135000X-0.185000X0.135000X-0.185000X0.135000X0.185000X-0.135000X0.185000X0*%
%TD*%
%TA.AperFunction,SMDPad,CuDef*%
%ADD15RoundRect,0.135000X0.185000X-0.135000X0.185000X0.135000X-0.185000X0.135000X-0.185000X-0.135000X0*%
%TD*%
%TA.AperFunction,SMDPad,CuDef*%
%ADD16R,0.610000X1.270000*%
%TD*%
%TA.AperFunction,SMDPad,CuDef*%
%ADD17R,3.910000X3.810000*%
%TD*%
%TA.AperFunction,SMDPad,CuDef*%
%ADD18R,0.610000X1.020000*%
%TD*%
%TA.AperFunction,SMDPad,CuDef*%
%ADD19RoundRect,0.225000X0.225000X0.375000X-0.225000X0.375000X-0.225000X-0.375000X0.225000X-0.375000X0*%
%TD*%
%TA.AperFunction,SMDPad,CuDef*%
%ADD20RoundRect,0.140000X-0.140000X-0.170000X0.140000X-0.170000X0.140000X0.170000X-0.140000X0.170000X0*%
%TD*%
%TA.AperFunction,SMDPad,CuDef*%
%ADD21RotRect,1.500000X1.500000X75.000000*%
%TD*%
%TA.AperFunction,SMDPad,CuDef*%
%ADD22RotRect,0.900000X0.900000X75.000000*%
%TD*%
%TA.AperFunction,SMDPad,CuDef*%
%ADD23R,0.700000X1.525000*%
%TD*%
%TA.AperFunction,SMDPad,CuDef*%
%ADD24RoundRect,0.150000X-0.150000X0.587500X-0.150000X-0.587500X0.150000X-0.587500X0.150000X0.587500X0*%
%TD*%
%TA.AperFunction,ComponentPad*%
%ADD25R,1.700000X1.700000*%
%TD*%
%TA.AperFunction,ComponentPad*%
%ADD26O,1.700000X1.700000*%
%TD*%
%TA.AperFunction,SMDPad,CuDef*%
%ADD27RoundRect,0.135000X-0.185000X0.135000X-0.185000X-0.135000X0.185000X-0.135000X0.185000X0.135000X0*%
%TD*%
%TA.AperFunction,SMDPad,CuDef*%
%ADD28RoundRect,0.140000X-0.170000X0.140000X-0.170000X-0.140000X0.170000X-0.140000X0.170000X0.140000X0*%
%TD*%
%TA.AperFunction,SMDPad,CuDef*%
%ADD29R,0.300000X0.950000*%
%TD*%
%TA.AperFunction,SMDPad,CuDef*%
%ADD30R,0.900000X1.400000*%
%TD*%
%TA.AperFunction,SMDPad,CuDef*%
%ADD31RoundRect,0.218750X-0.218750X-0.381250X0.218750X-0.381250X0.218750X0.381250X-0.218750X0.381250X0*%
%TD*%
%TA.AperFunction,SMDPad,CuDef*%
%ADD32RoundRect,0.508000X1.992000X0.508000X-1.992000X0.508000X-1.992000X-0.508000X1.992000X-0.508000X0*%
%TD*%
%TA.AperFunction,SMDPad,CuDef*%
%ADD33RoundRect,0.135000X0.135000X0.185000X-0.135000X0.185000X-0.135000X-0.185000X0.135000X-0.185000X0*%
%TD*%
%TA.AperFunction,ComponentPad*%
%ADD34R,1.800000X1.800000*%
%TD*%
%TA.AperFunction,ComponentPad*%
%ADD35C,1.800000*%
%TD*%
%TA.AperFunction,SMDPad,CuDef*%
%ADD36R,0.800000X0.200000*%
%TD*%
%TA.AperFunction,SMDPad,CuDef*%
%ADD37R,0.200000X0.800000*%
%TD*%
%TA.AperFunction,SMDPad,CuDef*%
%ADD38R,1.800000X1.800000*%
%TD*%
%TA.AperFunction,SMDPad,CuDef*%
%ADD39RotRect,1.500000X1.500000X255.000000*%
%TD*%
%TA.AperFunction,SMDPad,CuDef*%
%ADD40RotRect,0.900000X0.900000X255.000000*%
%TD*%
%TA.AperFunction,SMDPad,CuDef*%
%ADD41R,1.200000X0.550000*%
%TD*%
%TA.AperFunction,ViaPad*%
%ADD42C,0.600000*%
%TD*%
%TA.AperFunction,Conductor*%
%ADD43C,0.200000*%
%TD*%
G04 APERTURE END LIST*
D10*
%TO.P,Q4,1,C*%
%TO.N,GND*%
X127375000Y-113200000D03*
%TO.P,Q4,2,E*%
X125725000Y-113200000D03*
%TD*%
D11*
%TO.P,U2,1,Con*%
%TO.N,+12V*%
X109000000Y-97800000D03*
%TD*%
D12*
%TO.P,U4,1,Con*%
%TO.N,GND*%
X109750000Y-110000000D03*
%TD*%
D13*
%TO.P,C2,1*%
%TO.N,+3.3V*%
X129200000Y-94880000D03*
%TO.P,C2,2*%
%TO.N,GND*%
X129200000Y-93920000D03*
%TD*%
D14*
%TO.P,R15,1*%
%TO.N,Net-(IC4-C2)*%
X123940000Y-91150000D03*
%TO.P,R15,2*%
%TO.N,GND*%
X124960000Y-91150000D03*
%TD*%
D15*
%TO.P,R12,1*%
%TO.N,/NMOS*%
X126450000Y-94660000D03*
%TO.P,R12,2*%
%TO.N,Net-(IC4-B1)*%
X126450000Y-93640000D03*
%TD*%
D16*
%TO.P,Q8,1,S*%
%TO.N,+12V*%
X106105000Y-100830000D03*
%TO.P,Q8,2,S*%
X104835000Y-100830000D03*
%TO.P,Q8,3,S*%
X103565000Y-100830000D03*
%TO.P,Q8,4,G*%
%TO.N,Net-(Q7-D)*%
X102295000Y-100830000D03*
D17*
%TO.P,Q8,5,D*%
%TO.N,/pwr_motor*%
X104200000Y-104190000D03*
D18*
X106105000Y-106295000D03*
X104835000Y-106295000D03*
X103565000Y-106295000D03*
X102295000Y-106295000D03*
%TD*%
D19*
%TO.P,D1,1,K*%
%TO.N,/pwr_motor*%
X98850000Y-104700000D03*
%TO.P,D1,2,A*%
%TO.N,GND*%
X95550000Y-104700000D03*
%TD*%
D20*
%TO.P,C1,1*%
%TO.N,/Semi_Auto*%
X129730000Y-107150000D03*
%TO.P,C1,2*%
%TO.N,GND*%
X130690000Y-107150000D03*
%TD*%
D15*
%TO.P,R7,1*%
%TO.N,GND*%
X131200000Y-104770000D03*
%TO.P,R7,2*%
%TO.N,Net-(IC2-EN)*%
X131200000Y-103750000D03*
%TD*%
D21*
%TO.P,Q2,1,C*%
%TO.N,/V_Cycle*%
X94979630Y-100087067D03*
%TO.P,Q2,2,E*%
%TO.N,GND*%
X98360370Y-100992933D03*
D22*
%TO.P,Q2,3*%
%TO.N,N/C*%
X96501768Y-101167852D03*
%TD*%
D23*
%TO.P,IC1,1,S_1*%
%TO.N,GND*%
X102390000Y-113600000D03*
%TO.P,IC1,2,S_2*%
X103660000Y-113600000D03*
%TO.P,IC1,3,S_3*%
X104930000Y-113600000D03*
%TO.P,IC1,4,G*%
%TO.N,Net-(IC1-G)*%
X106200000Y-113600000D03*
%TO.P,IC1,5,D_1*%
%TO.N,/pwr_motor*%
X106200000Y-108176000D03*
%TO.P,IC1,6,D_2*%
X104930000Y-108176000D03*
%TO.P,IC1,7,D_3*%
X103660000Y-108176000D03*
%TO.P,IC1,8,D_4*%
X102390000Y-108176000D03*
%TD*%
D14*
%TO.P,R3,1*%
%TO.N,Net-(LED1-Pad2)*%
X129700000Y-109250000D03*
%TO.P,R3,2*%
%TO.N,+3.3V*%
X130720000Y-109250000D03*
%TD*%
D24*
%TO.P,Q7,1,G*%
%TO.N,/ACTIVE_BREAK*%
X119050000Y-92530000D03*
%TO.P,Q7,2,S*%
%TO.N,GND*%
X117150000Y-92530000D03*
%TO.P,Q7,3,D*%
%TO.N,Net-(Q7-D)*%
X118100000Y-94405000D03*
%TD*%
D14*
%TO.P,R1,1*%
%TO.N,/Semi_Auto*%
X129700000Y-108200000D03*
%TO.P,R1,2*%
%TO.N,+3.3V*%
X130720000Y-108200000D03*
%TD*%
D25*
%TO.P,J4,1,Pin_1*%
%TO.N,+3.3V*%
X127400000Y-87500000D03*
D26*
%TO.P,J4,2,Pin_2*%
%TO.N,GND*%
X129940000Y-87500000D03*
%TO.P,J4,3,Pin_3*%
%TO.N,/updiTx*%
X132480000Y-87500000D03*
%TO.P,J4,4,Pin_4*%
%TO.N,/updiRx*%
X135020000Y-87500000D03*
%TD*%
D27*
%TO.P,R8,1*%
%TO.N,+12V*%
X115800000Y-93990000D03*
%TO.P,R8,2*%
%TO.N,Net-(Q7-D)*%
X115800000Y-95010000D03*
%TD*%
D20*
%TO.P,C6,1*%
%TO.N,+12V*%
X134720000Y-100965000D03*
%TO.P,C6,2*%
%TO.N,GND*%
X135680000Y-100965000D03*
%TD*%
D28*
%TO.P,C14,1*%
%TO.N,+3.3V*%
X128700000Y-100470000D03*
%TO.P,C14,2*%
%TO.N,GND*%
X128700000Y-101430000D03*
%TD*%
D13*
%TO.P,C3,1*%
%TO.N,+3.3V*%
X128200000Y-94880000D03*
%TO.P,C3,2*%
%TO.N,GND*%
X128200000Y-93920000D03*
%TD*%
D15*
%TO.P,R5,1*%
%TO.N,/V_Cycle*%
X128100000Y-92900000D03*
%TO.P,R5,2*%
%TO.N,+3.3V*%
X128100000Y-91880000D03*
%TD*%
D27*
%TO.P,R11,1*%
%TO.N,+3.3V*%
X131600000Y-90290000D03*
%TO.P,R11,2*%
%TO.N,/updiRx*%
X131600000Y-91310000D03*
%TD*%
%TO.P,R14,1*%
%TO.N,Net-(IC2-FB)*%
X133400000Y-103750000D03*
%TO.P,R14,2*%
%TO.N,+3.3V*%
X133400000Y-104770000D03*
%TD*%
D15*
%TO.P,R2,1*%
%TO.N,/updiRx*%
X132800000Y-91310000D03*
%TO.P,R2,2*%
%TO.N,/updiTx*%
X132800000Y-90290000D03*
%TD*%
D29*
%TO.P,IC2,1,VIN*%
%TO.N,+12V*%
X133300000Y-100900000D03*
%TO.P,IC2,2,SW*%
%TO.N,Net-(IC2-SW)*%
X132800000Y-100900000D03*
%TO.P,IC2,3,GND*%
%TO.N,GND*%
X132300000Y-100900000D03*
%TO.P,IC2,4,AGND*%
X132300000Y-102400000D03*
%TO.P,IC2,5,EN*%
%TO.N,Net-(IC2-EN)*%
X132800000Y-102400000D03*
%TO.P,IC2,6,FB*%
%TO.N,Net-(IC2-FB)*%
X133300000Y-102400000D03*
%TD*%
D30*
%TO.P,LED2,1*%
%TO.N,GND*%
X123300000Y-113300000D03*
%TO.P,LED2,2*%
X121300000Y-113300000D03*
%TD*%
D15*
%TO.P,R18,1*%
%TO.N,GND*%
X132300000Y-104770000D03*
%TO.P,R18,2*%
%TO.N,Net-(IC2-FB)*%
X132300000Y-103750000D03*
%TD*%
D20*
%TO.P,C5,1*%
%TO.N,+12V*%
X134720000Y-99850000D03*
%TO.P,C5,2*%
%TO.N,GND*%
X135680000Y-99850000D03*
%TD*%
D13*
%TO.P,C4,1*%
%TO.N,/V_Cycle*%
X129250000Y-92870000D03*
%TO.P,C4,2*%
%TO.N,GND*%
X129250000Y-91910000D03*
%TD*%
D28*
%TO.P,C16,1*%
%TO.N,+3.3V*%
X130900000Y-100470000D03*
%TO.P,C16,2*%
%TO.N,GND*%
X130900000Y-101430000D03*
%TD*%
D31*
%TO.P,L1,1,1*%
%TO.N,+3.3V*%
X131137500Y-99050000D03*
%TO.P,L1,2,2*%
%TO.N,Net-(IC2-SW)*%
X133262500Y-99050000D03*
%TD*%
D15*
%TO.P,R13,1*%
%TO.N,Net-(IC4-B2)*%
X120750000Y-93560000D03*
%TO.P,R13,2*%
%TO.N,Net-(IC4-C1)*%
X120750000Y-92540000D03*
%TD*%
D32*
%TO.P,U3,1,Con*%
%TO.N,/pwr_motor*%
X98650000Y-107250000D03*
%TD*%
D27*
%TO.P,R4,1*%
%TO.N,Net-(IC2-EN)*%
X130000000Y-103750000D03*
%TO.P,R4,2*%
%TO.N,+12V*%
X130000000Y-104770000D03*
%TD*%
D33*
%TO.P,R9,1*%
%TO.N,Net-(IC4-C2)*%
X122860000Y-91160000D03*
%TO.P,R9,2*%
%TO.N,Net-(IC1-G)*%
X121840000Y-91160000D03*
%TD*%
D34*
%TO.P,S1,1,COM*%
%TO.N,GND*%
X125800000Y-99120000D03*
D35*
%TO.P,S1,2,NO*%
%TO.N,/trigger*%
X125800000Y-104200000D03*
%TO.P,S1,3,NC*%
%TO.N,GND*%
X125800000Y-109280000D03*
%TD*%
D36*
%TO.P,IC3,1,PA2*%
%TO.N,unconnected-(IC3-PA2-Pad1)*%
X130550000Y-93600000D03*
%TO.P,IC3,2,PA3/EXTCLK*%
%TO.N,unconnected-(IC3-PA3{slash}EXTCLK-Pad2)*%
X130550000Y-94000000D03*
%TO.P,IC3,3,GND*%
%TO.N,GND*%
X130550000Y-94400000D03*
%TO.P,IC3,4,VDD*%
%TO.N,+3.3V*%
X130550000Y-94800000D03*
%TO.P,IC3,5,PA4*%
%TO.N,unconnected-(IC3-PA4-Pad5)*%
X130550000Y-95200000D03*
D37*
%TO.P,IC3,6,PA5*%
%TO.N,/NMOS*%
X131250000Y-95900000D03*
%TO.P,IC3,7,PA6*%
%TO.N,unconnected-(IC3-PA6-Pad7)*%
X131650000Y-95900000D03*
%TO.P,IC3,8,PA7*%
%TO.N,unconnected-(IC3-PA7-Pad8)*%
X132050000Y-95900000D03*
%TO.P,IC3,9,PB5*%
%TO.N,/ACTIVE_BREAK*%
X132450000Y-95900000D03*
%TO.P,IC3,10,PB4*%
%TO.N,unconnected-(IC3-PB4-Pad10)*%
X132850000Y-95900000D03*
D36*
%TO.P,IC3,11,PB3/TOCS1*%
%TO.N,/RX*%
X133550000Y-95200000D03*
%TO.P,IC3,12,PB2/TOSC2*%
%TO.N,/TX*%
X133550000Y-94800000D03*
%TO.P,IC3,13,PB1*%
%TO.N,unconnected-(IC3-PB1-Pad13)*%
X133550000Y-94400000D03*
%TO.P,IC3,14,PB0*%
%TO.N,/Semi_Auto*%
X133550000Y-94000000D03*
%TO.P,IC3,15,PC0*%
%TO.N,/trigger*%
X133550000Y-93600000D03*
D37*
%TO.P,IC3,16,PC1*%
%TO.N,unconnected-(IC3-PC1-Pad16)*%
X132850000Y-92900000D03*
%TO.P,IC3,17,PC2*%
%TO.N,unconnected-(IC3-PC2-Pad17)*%
X132450000Y-92900000D03*
%TO.P,IC3,18,PC3*%
%TO.N,unconnected-(IC3-PC3-Pad18)*%
X132050000Y-92900000D03*
%TO.P,IC3,19,PA0/~{RESET}/UPDI*%
%TO.N,/updiRx*%
X131650000Y-92900000D03*
%TO.P,IC3,20,PA1*%
%TO.N,/V_Cycle*%
X131250000Y-92900000D03*
D38*
%TO.P,IC3,21,EP*%
%TO.N,GND*%
X132050000Y-94400000D03*
%TD*%
D39*
%TO.P,LED4,1*%
%TO.N,GND*%
X103522138Y-88280785D03*
%TO.P,LED4,2*%
%TO.N,Net-(LED4-Pad2)*%
X100141398Y-87374919D03*
D40*
%TO.P,LED4,3*%
%TO.N,N/C*%
X102000000Y-87200000D03*
%TD*%
D33*
%TO.P,R6,1*%
%TO.N,+3.3V*%
X107460000Y-88000000D03*
%TO.P,R6,2*%
%TO.N,Net-(LED4-Pad2)*%
X106440000Y-88000000D03*
%TD*%
D41*
%TO.P,IC4,1,C1*%
%TO.N,Net-(IC4-C1)*%
X124750000Y-94550000D03*
%TO.P,IC4,2,B1*%
%TO.N,Net-(IC4-B1)*%
X124750000Y-93600000D03*
%TO.P,IC4,3,C2*%
%TO.N,Net-(IC4-C2)*%
X124750000Y-92650000D03*
%TO.P,IC4,4,E2*%
%TO.N,+12V*%
X122250000Y-92650000D03*
%TO.P,IC4,5,B2*%
%TO.N,Net-(IC4-B2)*%
X122250000Y-93600000D03*
%TO.P,IC4,6,E1*%
%TO.N,GND*%
X122250000Y-94550000D03*
%TD*%
D28*
%TO.P,C15,1*%
%TO.N,+3.3V*%
X129800000Y-100470000D03*
%TO.P,C15,2*%
%TO.N,GND*%
X129800000Y-101430000D03*
%TD*%
D42*
%TO.N,/Semi_Auto*%
X128900000Y-105600000D03*
%TO.N,GND*%
X99000000Y-102750000D03*
X115500000Y-99750000D03*
X126000000Y-92750000D03*
X131600000Y-94000000D03*
X114000000Y-107250000D03*
X96000000Y-102750000D03*
X117250000Y-88500000D03*
X107750000Y-92250000D03*
X125500000Y-95750000D03*
X93250000Y-104000000D03*
X133500000Y-92250000D03*
X114000000Y-104250000D03*
X102250000Y-89500000D03*
X103750000Y-92000000D03*
X110750000Y-92250000D03*
X112250000Y-92250000D03*
X103750000Y-90750000D03*
X131600000Y-94800000D03*
X130250000Y-92250000D03*
X126750000Y-92750000D03*
X97500000Y-102750000D03*
X115500000Y-105750000D03*
X114000000Y-99750000D03*
X115500000Y-107250000D03*
X121750000Y-95750000D03*
X117250000Y-87250000D03*
X103750000Y-89500000D03*
X113750000Y-92250000D03*
X105250000Y-89500000D03*
X106750000Y-89500000D03*
X109250000Y-92250000D03*
X132500000Y-94800000D03*
X114000000Y-101250000D03*
X132500000Y-94000000D03*
X115500000Y-102750000D03*
X118750000Y-87250000D03*
X114000000Y-102750000D03*
X115500000Y-104250000D03*
X118750000Y-88500000D03*
X93250000Y-102750000D03*
X126000000Y-91750000D03*
X115500000Y-101250000D03*
X114000000Y-105750000D03*
X94500000Y-102750000D03*
%TO.N,Net-(LED1-Pad2)*%
X129300000Y-111800000D03*
%TO.N,+12V*%
X129100000Y-103200000D03*
X123100000Y-95500000D03*
X134750000Y-101750000D03*
X114960000Y-93150000D03*
%TO.N,+3.3V*%
X128100000Y-90150000D03*
X127350000Y-94800000D03*
X128700000Y-99600000D03*
X134650000Y-104800000D03*
%TD*%
D43*
%TO.N,/Semi_Auto*%
X124200000Y-103600000D02*
X124200000Y-105100000D01*
X129700000Y-107180000D02*
X129730000Y-107150000D01*
X124200000Y-105100000D02*
X124700000Y-105600000D01*
X133550000Y-94000000D02*
X134200000Y-94000000D01*
X124700000Y-105600000D02*
X128900000Y-105600000D01*
X129400000Y-97300000D02*
X127400000Y-99300000D01*
X133700000Y-97300000D02*
X129400000Y-97300000D01*
X129730000Y-106430000D02*
X128900000Y-105600000D01*
X134200000Y-94000000D02*
X134700000Y-94500000D01*
X127400000Y-99300000D02*
X127400000Y-100400000D01*
X134700000Y-96300000D02*
X133700000Y-97300000D01*
X127400000Y-100400000D02*
X124200000Y-103600000D01*
X129730000Y-107150000D02*
X129730000Y-106430000D01*
X134700000Y-94500000D02*
X134700000Y-96300000D01*
X129700000Y-108200000D02*
X129700000Y-107180000D01*
%TO.N,Net-(LED1-Pad2)*%
X129700000Y-109250000D02*
X129700000Y-111400000D01*
X129700000Y-111400000D02*
X129300000Y-111800000D01*
%TO.N,Net-(LED4-Pad2)*%
X101167452Y-86348865D02*
X104788865Y-86348865D01*
X104788865Y-86348865D02*
X106440000Y-88000000D01*
X100141398Y-87374919D02*
X101167452Y-86348865D01*
%TO.N,/V_Cycle*%
X128100000Y-92900000D02*
X129220000Y-92900000D01*
X99925306Y-99474694D02*
X95592003Y-99474694D01*
X129250000Y-92870000D02*
X129280000Y-92900000D01*
X125730000Y-90530000D02*
X107154314Y-90530000D01*
X102250000Y-95434314D02*
X102250000Y-97150000D01*
X128100000Y-92900000D02*
X125730000Y-90530000D01*
X107154314Y-90530000D02*
X102250000Y-95434314D01*
X129280000Y-92900000D02*
X131250000Y-92900000D01*
X95592003Y-99474694D02*
X94979630Y-100087067D01*
X129220000Y-92900000D02*
X129250000Y-92870000D01*
X102250000Y-97150000D02*
X99925306Y-99474694D01*
%TO.N,+12V*%
X129100000Y-103200000D02*
X129100000Y-103870000D01*
X123100000Y-95500000D02*
X123150000Y-95450000D01*
X109000000Y-94000000D02*
X109850000Y-93150000D01*
X123150000Y-95450000D02*
X123150000Y-92900000D01*
X133365000Y-100965000D02*
X133300000Y-100900000D01*
X123150000Y-92900000D02*
X122900000Y-92650000D01*
X122900000Y-92650000D02*
X122250000Y-92650000D01*
X109850000Y-93150000D02*
X114960000Y-93150000D01*
X134750000Y-100995000D02*
X134720000Y-100965000D01*
X134720000Y-99850000D02*
X134720000Y-100965000D01*
X129100000Y-103870000D02*
X130000000Y-104770000D01*
X134750000Y-101750000D02*
X134750000Y-100995000D01*
X114960000Y-93150000D02*
X115800000Y-93990000D01*
X109000000Y-97800000D02*
X109000000Y-94000000D01*
X134720000Y-100965000D02*
X133365000Y-100965000D01*
%TO.N,/trigger*%
X127900000Y-99400000D02*
X129600000Y-97700000D01*
X134400000Y-93600000D02*
X133550000Y-93600000D01*
X134100000Y-97700000D02*
X135100000Y-96700000D01*
X127900000Y-100465686D02*
X127900000Y-99400000D01*
X135100000Y-96700000D02*
X135100000Y-94300000D01*
X129600000Y-97700000D02*
X134100000Y-97700000D01*
X135100000Y-94300000D02*
X134400000Y-93600000D01*
X125800000Y-104200000D02*
X125800000Y-102565686D01*
X125800000Y-102565686D02*
X127900000Y-100465686D01*
%TO.N,Net-(IC1-G)*%
X106200000Y-113600000D02*
X107650000Y-112150000D01*
X107650000Y-112150000D02*
X111250000Y-112150000D01*
X113250000Y-110150000D02*
X116600000Y-110150000D01*
X111250000Y-112150000D02*
X113250000Y-110150000D01*
X118450000Y-91756104D02*
X119056104Y-91150000D01*
X118800000Y-93731104D02*
X118450000Y-93381104D01*
X116600000Y-110150000D02*
X118800000Y-107950000D01*
X121830000Y-91150000D02*
X121840000Y-91160000D01*
X118800000Y-107950000D02*
X118800000Y-93731104D01*
X118450000Y-93381104D02*
X118450000Y-91756104D01*
X119056104Y-91150000D02*
X121830000Y-91150000D01*
%TO.N,/NMOS*%
X131250000Y-95900000D02*
X126990000Y-95900000D01*
X126990000Y-95900000D02*
X126450000Y-95360000D01*
X126450000Y-95360000D02*
X126450000Y-94660000D01*
%TO.N,/ACTIVE_BREAK*%
X119950000Y-95400000D02*
X119950000Y-92950000D01*
X132450000Y-95900000D02*
X132450000Y-96500000D01*
X132450000Y-96500000D02*
X132350000Y-96600000D01*
X132350000Y-96600000D02*
X121150000Y-96600000D01*
X121150000Y-96600000D02*
X119950000Y-95400000D01*
X119530000Y-92530000D02*
X119050000Y-92530000D01*
X119950000Y-92950000D02*
X119530000Y-92530000D01*
%TO.N,Net-(IC4-C1)*%
X123950000Y-94550000D02*
X124750000Y-94550000D01*
X123550000Y-92475000D02*
X123550000Y-94150000D01*
X120750000Y-92540000D02*
X120750000Y-92250000D01*
X120750000Y-92250000D02*
X121050000Y-91950000D01*
X123550000Y-94150000D02*
X123950000Y-94550000D01*
X121050000Y-91950000D02*
X123025000Y-91950000D01*
X123025000Y-91950000D02*
X123550000Y-92475000D01*
%TO.N,Net-(IC4-B1)*%
X124750000Y-93600000D02*
X126410000Y-93600000D01*
X126410000Y-93600000D02*
X126450000Y-93640000D01*
%TO.N,+3.3V*%
X128100000Y-90150000D02*
X128100000Y-91880000D01*
X131850000Y-108200000D02*
X133400000Y-106650000D01*
X133430000Y-104800000D02*
X133400000Y-104770000D01*
X131137500Y-100232500D02*
X130900000Y-100470000D01*
X128080000Y-90130000D02*
X109380000Y-90130000D01*
X128240000Y-90290000D02*
X131600000Y-90290000D01*
X133400000Y-106650000D02*
X133400000Y-104770000D01*
X127430000Y-94880000D02*
X128200000Y-94880000D01*
X129280000Y-94800000D02*
X129200000Y-94880000D01*
X131137500Y-99050000D02*
X131137500Y-100232500D01*
X107460000Y-88210000D02*
X107460000Y-88000000D01*
X128700000Y-100470000D02*
X128700000Y-99600000D01*
X128100000Y-90150000D02*
X128080000Y-90130000D01*
X129800000Y-100470000D02*
X130900000Y-100470000D01*
X127350000Y-94800000D02*
X127430000Y-94880000D01*
X128100000Y-90150000D02*
X128240000Y-90290000D01*
X128200000Y-94880000D02*
X129200000Y-94880000D01*
X134650000Y-104800000D02*
X133430000Y-104800000D01*
X130720000Y-108200000D02*
X131850000Y-108200000D01*
X128700000Y-100470000D02*
X129800000Y-100470000D01*
X109380000Y-90130000D02*
X107460000Y-88210000D01*
X130550000Y-94800000D02*
X129280000Y-94800000D01*
X130720000Y-108200000D02*
X130720000Y-109250000D01*
%TO.N,Net-(IC4-C2)*%
X123940000Y-91150000D02*
X122870000Y-91150000D01*
X122870000Y-91150000D02*
X122860000Y-91160000D01*
X124750000Y-92650000D02*
X124340000Y-92650000D01*
X124340000Y-92650000D02*
X123940000Y-92250000D01*
X123940000Y-92250000D02*
X123940000Y-91150000D01*
%TO.N,Net-(IC4-B2)*%
X122250000Y-93600000D02*
X120790000Y-93600000D01*
X120790000Y-93600000D02*
X120750000Y-93560000D01*
%TO.N,Net-(Q7-D)*%
X115800000Y-95010000D02*
X117495000Y-95010000D01*
X118100000Y-94405000D02*
X117900000Y-94205000D01*
X117600000Y-91100000D02*
X107150000Y-91100000D01*
X107150000Y-91100000D02*
X102750000Y-95500000D01*
X102750000Y-95500000D02*
X102750000Y-100375000D01*
X102750000Y-100375000D02*
X102295000Y-100830000D01*
X117900000Y-94205000D02*
X117900000Y-91400000D01*
X117495000Y-95010000D02*
X118100000Y-94405000D01*
X117900000Y-91400000D02*
X117600000Y-91100000D01*
%TO.N,/updiRx*%
X133890000Y-91310000D02*
X135020000Y-90180000D01*
X131650000Y-91360000D02*
X131650000Y-92900000D01*
X135020000Y-90180000D02*
X135020000Y-87500000D01*
X131600000Y-91310000D02*
X131650000Y-91360000D01*
X132800000Y-91310000D02*
X133890000Y-91310000D01*
X132800000Y-91310000D02*
X131600000Y-91310000D01*
%TO.N,/updiTx*%
X132800000Y-90290000D02*
X132800000Y-87820000D01*
X132800000Y-87820000D02*
X132480000Y-87500000D01*
%TO.N,Net-(IC2-FB)*%
X132300000Y-103750000D02*
X133400000Y-103750000D01*
X133300000Y-103650000D02*
X133400000Y-103750000D01*
X133300000Y-102400000D02*
X133300000Y-103650000D01*
%TO.N,Net-(IC2-SW)*%
X132800000Y-100200000D02*
X133262500Y-99737500D01*
X133262500Y-99737500D02*
X133262500Y-99050000D01*
X132800000Y-100900000D02*
X132800000Y-100200000D01*
%TO.N,Net-(IC2-EN)*%
X131200000Y-103750000D02*
X131250000Y-103750000D01*
X132800000Y-102980000D02*
X132800000Y-102400000D01*
X131250000Y-103750000D02*
X131820000Y-103180000D01*
X131820000Y-103180000D02*
X132600000Y-103180000D01*
X132600000Y-103180000D02*
X132800000Y-102980000D01*
X131200000Y-103750000D02*
X130000000Y-103750000D01*
%TD*%
%TA.AperFunction,Conductor*%
%TO.N,/pwr_motor*%
G36*
X103321887Y-102201262D02*
G01*
X103332821Y-102202834D01*
X103351362Y-102205500D01*
X103351363Y-102205500D01*
X106154138Y-102205500D01*
X106221177Y-102225185D01*
X106241819Y-102241819D01*
X106663681Y-102663681D01*
X106697166Y-102725004D01*
X106700000Y-102751362D01*
X106700000Y-109038000D01*
X106680315Y-109105039D01*
X106650400Y-109137200D01*
X106348426Y-109363681D01*
X106333067Y-109375200D01*
X106267625Y-109399676D01*
X106258667Y-109400000D01*
X102451362Y-109400000D01*
X102384323Y-109380315D01*
X102363681Y-109363681D01*
X101800000Y-108800000D01*
X101775110Y-108800000D01*
X101772920Y-108799500D01*
X101745763Y-108799500D01*
X101722590Y-108799500D01*
X96436794Y-108799500D01*
X96369755Y-108779815D01*
X96368011Y-108778674D01*
X95855217Y-108436811D01*
X95810356Y-108383246D01*
X95800000Y-108333637D01*
X95800000Y-106251361D01*
X95819685Y-106184322D01*
X95836314Y-106163685D01*
X96463681Y-105536318D01*
X96525004Y-105502834D01*
X96551362Y-105500000D01*
X97500000Y-105500000D01*
X97900000Y-105100000D01*
X97900000Y-104051361D01*
X97919685Y-103984323D01*
X97936319Y-103963681D01*
X98263681Y-103636319D01*
X98325004Y-103602834D01*
X98351362Y-103600000D01*
X100800000Y-103600000D01*
X101000000Y-103400000D01*
X101000000Y-102651360D01*
X101019685Y-102584322D01*
X101036314Y-102563685D01*
X101363681Y-102236318D01*
X101425004Y-102202834D01*
X101451362Y-102200000D01*
X103304240Y-102200000D01*
X103321887Y-102201262D01*
G37*
%TD.AperFunction*%
%TD*%
%TA.AperFunction,Conductor*%
%TO.N,+12V*%
G36*
X110142539Y-95119685D02*
G01*
X110188294Y-95172489D01*
X110199500Y-95224000D01*
X110199500Y-98045762D01*
X110203493Y-98054054D01*
X110212660Y-98080253D01*
X110214246Y-98087200D01*
X110214710Y-98089232D01*
X110220448Y-98096426D01*
X110235220Y-98119935D01*
X110239212Y-98128225D01*
X110246404Y-98133960D01*
X110266039Y-98153594D01*
X110271776Y-98160789D01*
X110280064Y-98164780D01*
X110303571Y-98179550D01*
X110310769Y-98185290D01*
X110319737Y-98187336D01*
X110345947Y-98196508D01*
X110354236Y-98200500D01*
X110476000Y-98200500D01*
X110543039Y-98220185D01*
X110588794Y-98272989D01*
X110600000Y-98324500D01*
X110600000Y-100348638D01*
X110580315Y-100415677D01*
X110563681Y-100436319D01*
X109036319Y-101963681D01*
X108974996Y-101997166D01*
X108948638Y-102000000D01*
X103351362Y-102000000D01*
X103284323Y-101980315D01*
X103263681Y-101963681D01*
X102936319Y-101636319D01*
X102902834Y-101574996D01*
X102900000Y-101548638D01*
X102900000Y-100704538D01*
X102919683Y-100637503D01*
X102932361Y-100621005D01*
X102934226Y-100618958D01*
X102934228Y-100618958D01*
X102965487Y-100584667D01*
X102969380Y-100580590D01*
X102982174Y-100567797D01*
X102982178Y-100567790D01*
X102982868Y-100567101D01*
X102991922Y-100555671D01*
X103009914Y-100535935D01*
X103009913Y-100535935D01*
X103009916Y-100535933D01*
X103012419Y-100529470D01*
X103025743Y-100504191D01*
X103029656Y-100498481D01*
X103035770Y-100472481D01*
X103040846Y-100456089D01*
X103050500Y-100431173D01*
X103050500Y-100424248D01*
X103053794Y-100395857D01*
X103055379Y-100389119D01*
X103051689Y-100362665D01*
X103050500Y-100345535D01*
X103050500Y-99900860D01*
X103070185Y-99833821D01*
X103086819Y-99813179D01*
X104175018Y-98724979D01*
X104236340Y-98691496D01*
X104306032Y-98696480D01*
X104322435Y-98704000D01*
X104348010Y-98718059D01*
X104354565Y-98721663D01*
X104641257Y-98835172D01*
X104939914Y-98911854D01*
X105245828Y-98950500D01*
X105249723Y-98950500D01*
X105550277Y-98950500D01*
X105554172Y-98950500D01*
X105860086Y-98911854D01*
X106158743Y-98835172D01*
X106445435Y-98721663D01*
X106715640Y-98573116D01*
X106965096Y-98391876D01*
X107189869Y-98180799D01*
X107386416Y-97943216D01*
X107551635Y-97682871D01*
X107682922Y-97403873D01*
X107778206Y-97110619D01*
X107835984Y-96807736D01*
X107855345Y-96500000D01*
X107835984Y-96192264D01*
X107778206Y-95889381D01*
X107682922Y-95596127D01*
X107607154Y-95435113D01*
X107598736Y-95417223D01*
X107588004Y-95348182D01*
X107616300Y-95284299D01*
X107623236Y-95276763D01*
X107763682Y-95136316D01*
X107825004Y-95102834D01*
X107851362Y-95100000D01*
X110075500Y-95100000D01*
X110142539Y-95119685D01*
G37*
%TD.AperFunction*%
%TD*%
%TA.AperFunction,Conductor*%
%TO.N,GND*%
G36*
X99507915Y-86119407D02*
G01*
X99543879Y-86168907D01*
X99543879Y-86230093D01*
X99514999Y-86273933D01*
X99508855Y-86279320D01*
X99508854Y-86279321D01*
X99485844Y-86299500D01*
X99448882Y-86331914D01*
X99422511Y-86385389D01*
X99137115Y-87450504D01*
X99027096Y-87861103D01*
X99024060Y-87872432D01*
X99020160Y-87931932D01*
X99045800Y-88007463D01*
X99098391Y-88067433D01*
X99151868Y-88093805D01*
X99151870Y-88093805D01*
X99151871Y-88093806D01*
X100638910Y-88492257D01*
X100698411Y-88496157D01*
X100773942Y-88470517D01*
X100833912Y-88417925D01*
X100860285Y-88364446D01*
X101068780Y-87586329D01*
X101102103Y-87535018D01*
X101159225Y-87513091D01*
X101218325Y-87528927D01*
X101256830Y-87576476D01*
X101258152Y-87580132D01*
X101271548Y-87619598D01*
X101271825Y-87620412D01*
X101309594Y-87663479D01*
X101324418Y-87680383D01*
X101377893Y-87706754D01*
X101377895Y-87706754D01*
X101377896Y-87706755D01*
X102285380Y-87949914D01*
X102344881Y-87953814D01*
X102420412Y-87928175D01*
X102480382Y-87875583D01*
X102506755Y-87822104D01*
X102749914Y-86914620D01*
X102753814Y-86855119D01*
X102728377Y-86780185D01*
X102727577Y-86719008D01*
X102762890Y-86669041D01*
X102820828Y-86649373D01*
X102822124Y-86649365D01*
X104623386Y-86649365D01*
X104681577Y-86668272D01*
X104693390Y-86678361D01*
X105940504Y-87925475D01*
X105968281Y-87979992D01*
X105969500Y-87995479D01*
X105969500Y-88224316D01*
X105969923Y-88227529D01*
X105975932Y-88273174D01*
X106025933Y-88380401D01*
X106025934Y-88380402D01*
X106025935Y-88380404D01*
X106109596Y-88464065D01*
X106109597Y-88464065D01*
X106109598Y-88464066D01*
X106155132Y-88485299D01*
X106216827Y-88514068D01*
X106265684Y-88520500D01*
X106268925Y-88520500D01*
X106611075Y-88520500D01*
X106614316Y-88520500D01*
X106663173Y-88514068D01*
X106770404Y-88464065D01*
X106854065Y-88380404D01*
X106860275Y-88367085D01*
X106902000Y-88322338D01*
X106962061Y-88310662D01*
X107017514Y-88336518D01*
X107039723Y-88367083D01*
X107045171Y-88378765D01*
X107045935Y-88380404D01*
X107129596Y-88464065D01*
X107129597Y-88464065D01*
X107129598Y-88464066D01*
X107175132Y-88485299D01*
X107236827Y-88514068D01*
X107285684Y-88520500D01*
X107304521Y-88520500D01*
X107362712Y-88539407D01*
X107374525Y-88549496D01*
X108885525Y-90060496D01*
X108913302Y-90115013D01*
X108903731Y-90175445D01*
X108860466Y-90218710D01*
X108815521Y-90229500D01*
X107219479Y-90229500D01*
X107203558Y-90226902D01*
X107149672Y-90229394D01*
X107145100Y-90229500D01*
X107126468Y-90229500D01*
X107126345Y-90229523D01*
X107112734Y-90231101D01*
X107084321Y-90232414D01*
X107075323Y-90236387D01*
X107053538Y-90243133D01*
X107049025Y-90243977D01*
X107043879Y-90244939D01*
X107019701Y-90259909D01*
X107007579Y-90266299D01*
X106981546Y-90277794D01*
X106974593Y-90284747D01*
X106956716Y-90298907D01*
X106948363Y-90304079D01*
X106931224Y-90326774D01*
X106922226Y-90337114D01*
X102083589Y-95175752D01*
X102070497Y-95185173D01*
X102034141Y-95225051D01*
X102030989Y-95228352D01*
X102017825Y-95241517D01*
X102017754Y-95241621D01*
X102009256Y-95252348D01*
X101990083Y-95273381D01*
X101986530Y-95282552D01*
X101975895Y-95302728D01*
X101970343Y-95310833D01*
X101963830Y-95338521D01*
X101959777Y-95351610D01*
X101949500Y-95378140D01*
X101949500Y-95387967D01*
X101946870Y-95410633D01*
X101944621Y-95420193D01*
X101948551Y-95448367D01*
X101949500Y-95462044D01*
X101949500Y-96984520D01*
X101930593Y-97042711D01*
X101920504Y-97054524D01*
X99829831Y-99145198D01*
X99775314Y-99172975D01*
X99759827Y-99174194D01*
X96734795Y-99174194D01*
X96676604Y-99155287D01*
X96640640Y-99105787D01*
X96640640Y-99044601D01*
X96676604Y-98995101D01*
X96726829Y-98976515D01*
X96887677Y-98963530D01*
X97341172Y-98889830D01*
X97787266Y-98779878D01*
X98223066Y-98634386D01*
X98645746Y-98454299D01*
X99052563Y-98240785D01*
X99440882Y-97995227D01*
X99808181Y-97719220D01*
X100152080Y-97414552D01*
X100470349Y-97083199D01*
X100760922Y-96727311D01*
X101021917Y-96349195D01*
X101251639Y-95951305D01*
X101448600Y-95536219D01*
X101611521Y-95106631D01*
X101739346Y-94665326D01*
X101831247Y-94215167D01*
X101886627Y-93759072D01*
X101905127Y-93300000D01*
X101886627Y-92840928D01*
X101831247Y-92384833D01*
X101739346Y-91934674D01*
X101611521Y-91493369D01*
X101448600Y-91063781D01*
X101251639Y-90648695D01*
X101235303Y-90620401D01*
X101124883Y-90429147D01*
X101021917Y-90250805D01*
X100760922Y-89872689D01*
X100657290Y-89745763D01*
X100471614Y-89518350D01*
X100471610Y-89518345D01*
X100470349Y-89516801D01*
X100152080Y-89185448D01*
X100150588Y-89184126D01*
X99809667Y-88882096D01*
X99809660Y-88882090D01*
X99808181Y-88880780D01*
X99806599Y-88879591D01*
X99806589Y-88879583D01*
X99442484Y-88605976D01*
X99442470Y-88605966D01*
X99440882Y-88604773D01*
X99390996Y-88573227D01*
X99054250Y-88360281D01*
X99054247Y-88360279D01*
X99052564Y-88359215D01*
X99050799Y-88358289D01*
X99050791Y-88358284D01*
X98647526Y-88146635D01*
X98647521Y-88146632D01*
X98645746Y-88145701D01*
X98643909Y-88144918D01*
X98643902Y-88144915D01*
X98224905Y-87966397D01*
X98224893Y-87966392D01*
X98223066Y-87965614D01*
X98221181Y-87964984D01*
X98221166Y-87964979D01*
X97789167Y-87820756D01*
X97789152Y-87820751D01*
X97787266Y-87820122D01*
X97785331Y-87819645D01*
X97785317Y-87819641D01*
X97343104Y-87710646D01*
X97343099Y-87710645D01*
X97341172Y-87710170D01*
X97339223Y-87709853D01*
X97339212Y-87709851D01*
X96889636Y-87636788D01*
X96889627Y-87636786D01*
X96887677Y-87636470D01*
X96885700Y-87636310D01*
X96885697Y-87636310D01*
X96491534Y-87604489D01*
X96435053Y-87580960D01*
X96403189Y-87528727D01*
X96400500Y-87505810D01*
X96400500Y-86199500D01*
X96419407Y-86141309D01*
X96468907Y-86105345D01*
X96499500Y-86100500D01*
X99449724Y-86100500D01*
X99507915Y-86119407D01*
G37*
%TD.AperFunction*%
%TA.AperFunction,Conductor*%
G36*
X117492713Y-91419407D02*
G01*
X117504525Y-91429496D01*
X117570503Y-91495473D01*
X117598281Y-91549989D01*
X117599500Y-91565477D01*
X117599500Y-93784240D01*
X117599499Y-94139840D01*
X117596902Y-94155764D01*
X117599394Y-94209640D01*
X117599500Y-94214213D01*
X117599500Y-94439521D01*
X117580593Y-94497712D01*
X117570504Y-94509525D01*
X117399525Y-94680504D01*
X117345008Y-94708281D01*
X117329521Y-94709500D01*
X116334977Y-94709500D01*
X116276786Y-94690593D01*
X116264974Y-94680504D01*
X116180405Y-94595936D01*
X116180404Y-94595935D01*
X116167083Y-94589723D01*
X116122337Y-94547997D01*
X116110662Y-94487936D01*
X116136520Y-94432483D01*
X116167081Y-94410277D01*
X116180404Y-94404065D01*
X116264065Y-94320404D01*
X116314068Y-94213173D01*
X116320500Y-94164316D01*
X116320500Y-93815684D01*
X116314068Y-93766827D01*
X116264065Y-93659596D01*
X116180404Y-93575935D01*
X116180402Y-93575934D01*
X116180401Y-93575933D01*
X116073174Y-93525932D01*
X116027529Y-93519923D01*
X116024316Y-93519500D01*
X116021075Y-93519500D01*
X115795479Y-93519500D01*
X115737288Y-93500593D01*
X115725476Y-93490504D01*
X115615967Y-93380995D01*
X115490546Y-93255575D01*
X115462769Y-93201059D01*
X115462558Y-93171481D01*
X115462843Y-93169500D01*
X115465647Y-93150000D01*
X115465062Y-93145934D01*
X115445165Y-93007544D01*
X115443196Y-93003231D01*
X115385377Y-92876627D01*
X115291128Y-92767857D01*
X115291127Y-92767856D01*
X115291125Y-92767854D01*
X115170054Y-92690047D01*
X115031961Y-92649500D01*
X114888039Y-92649500D01*
X114749945Y-92690047D01*
X114628871Y-92767856D01*
X114587735Y-92815331D01*
X114535339Y-92846927D01*
X114512916Y-92849500D01*
X109915169Y-92849500D01*
X109899242Y-92846901D01*
X109845338Y-92849394D01*
X109840766Y-92849500D01*
X109822153Y-92849500D01*
X109822030Y-92849523D01*
X109808433Y-92851099D01*
X109780009Y-92852413D01*
X109771010Y-92856387D01*
X109749219Y-92863134D01*
X109739566Y-92864938D01*
X109715383Y-92879911D01*
X109703261Y-92886301D01*
X109677234Y-92897794D01*
X109670285Y-92904743D01*
X109652408Y-92918904D01*
X109644047Y-92924081D01*
X109626907Y-92946777D01*
X109617910Y-92957117D01*
X108833589Y-93741438D01*
X108820497Y-93750859D01*
X108784141Y-93790737D01*
X108780989Y-93794038D01*
X108767825Y-93807203D01*
X108767754Y-93807307D01*
X108759256Y-93818034D01*
X108740083Y-93839067D01*
X108736530Y-93848238D01*
X108725895Y-93868414D01*
X108720343Y-93876519D01*
X108713830Y-93904207D01*
X108709777Y-93917296D01*
X108699500Y-93943826D01*
X108699500Y-93953653D01*
X108696870Y-93976319D01*
X108694621Y-93985879D01*
X108698551Y-94014053D01*
X108699500Y-94027730D01*
X108699500Y-94795500D01*
X108680593Y-94853691D01*
X108631093Y-94889655D01*
X108600500Y-94894500D01*
X107851362Y-94894500D01*
X107850092Y-94894568D01*
X107850057Y-94894569D01*
X107830709Y-94895607D01*
X107830692Y-94895608D01*
X107829393Y-94895678D01*
X107828114Y-94895815D01*
X107828058Y-94895820D01*
X107803036Y-94898511D01*
X107726522Y-94922468D01*
X107665207Y-94955946D01*
X107618373Y-94991004D01*
X107618371Y-94991005D01*
X107618371Y-94991006D01*
X107549982Y-95059396D01*
X107538169Y-95071209D01*
X107483652Y-95098986D01*
X107423220Y-95089415D01*
X107388074Y-95059397D01*
X107386416Y-95056784D01*
X107189869Y-94819201D01*
X107051780Y-94689526D01*
X106967369Y-94610258D01*
X106967364Y-94610254D01*
X106965096Y-94608124D01*
X106948319Y-94595935D01*
X106718154Y-94428710D01*
X106718148Y-94428706D01*
X106715640Y-94426884D01*
X106712912Y-94425384D01*
X106448157Y-94279833D01*
X106448151Y-94279830D01*
X106445435Y-94278337D01*
X106442554Y-94277196D01*
X106442547Y-94277193D01*
X106192595Y-94178231D01*
X106158743Y-94164828D01*
X106155735Y-94164055D01*
X106155733Y-94164055D01*
X105863093Y-94088918D01*
X105863092Y-94088917D01*
X105860086Y-94088146D01*
X105857005Y-94087756D01*
X105857001Y-94087756D01*
X105557255Y-94049889D01*
X105557247Y-94049888D01*
X105554172Y-94049500D01*
X105245828Y-94049500D01*
X105242753Y-94049888D01*
X105242744Y-94049889D01*
X104942998Y-94087756D01*
X104942991Y-94087757D01*
X104939914Y-94088146D01*
X104936910Y-94088917D01*
X104936906Y-94088918D01*
X104815362Y-94120125D01*
X104754297Y-94116283D01*
X104707153Y-94077282D01*
X104691937Y-94018018D01*
X104714461Y-93961130D01*
X104720726Y-93954243D01*
X107245474Y-91429496D01*
X107299992Y-91401719D01*
X107315479Y-91400500D01*
X117434522Y-91400500D01*
X117492713Y-91419407D01*
G37*
%TD.AperFunction*%
%TA.AperFunction,Conductor*%
G36*
X114571107Y-93469407D02*
G01*
X114587735Y-93484669D01*
X114628871Y-93532143D01*
X114749945Y-93609952D01*
X114749947Y-93609953D01*
X114888039Y-93650500D01*
X114994521Y-93650500D01*
X115052712Y-93669407D01*
X115064525Y-93679496D01*
X115250504Y-93865475D01*
X115278281Y-93919992D01*
X115279499Y-93935478D01*
X115279500Y-94164316D01*
X115279923Y-94167529D01*
X115285932Y-94213174D01*
X115335933Y-94320401D01*
X115335934Y-94320402D01*
X115335935Y-94320404D01*
X115419596Y-94404065D01*
X115419597Y-94404065D01*
X115419598Y-94404066D01*
X115432915Y-94410276D01*
X115477663Y-94452004D01*
X115489337Y-94512066D01*
X115463479Y-94567518D01*
X115432915Y-94589724D01*
X115419598Y-94595933D01*
X115335933Y-94679598D01*
X115285932Y-94786825D01*
X115280107Y-94831075D01*
X115279500Y-94835684D01*
X115279500Y-95184316D01*
X115279923Y-95187529D01*
X115285932Y-95233174D01*
X115335933Y-95340401D01*
X115335934Y-95340402D01*
X115335935Y-95340404D01*
X115419596Y-95424065D01*
X115419597Y-95424065D01*
X115419598Y-95424066D01*
X115443288Y-95435113D01*
X115526827Y-95474068D01*
X115575684Y-95480500D01*
X115578925Y-95480500D01*
X116021075Y-95480500D01*
X116024316Y-95480500D01*
X116073173Y-95474068D01*
X116180404Y-95424065D01*
X116239828Y-95364641D01*
X116264974Y-95339496D01*
X116319490Y-95311719D01*
X116334977Y-95310500D01*
X117429835Y-95310500D01*
X117445755Y-95313097D01*
X117452764Y-95312772D01*
X117452765Y-95312773D01*
X117499641Y-95310606D01*
X117504214Y-95310500D01*
X117522844Y-95310500D01*
X117522951Y-95310480D01*
X117536571Y-95308898D01*
X117564992Y-95307585D01*
X117573982Y-95303615D01*
X117595772Y-95296866D01*
X117605433Y-95295061D01*
X117629623Y-95280082D01*
X117641728Y-95273701D01*
X117644759Y-95272363D01*
X117705627Y-95266158D01*
X117727024Y-95277818D01*
X117728675Y-95274442D01*
X117743516Y-95281697D01*
X117743517Y-95281698D01*
X117848607Y-95333073D01*
X117916740Y-95343000D01*
X117916743Y-95343000D01*
X118283257Y-95343000D01*
X118283260Y-95343000D01*
X118351393Y-95333073D01*
X118357018Y-95330322D01*
X118417598Y-95321750D01*
X118471649Y-95350423D01*
X118498523Y-95405391D01*
X118499500Y-95419262D01*
X118499500Y-107784520D01*
X118480593Y-107842711D01*
X118470504Y-107854524D01*
X116504525Y-109820504D01*
X116450008Y-109848281D01*
X116434521Y-109849500D01*
X113315165Y-109849500D01*
X113299244Y-109846902D01*
X113245358Y-109849394D01*
X113240786Y-109849500D01*
X113222154Y-109849500D01*
X113222031Y-109849523D01*
X113208420Y-109851101D01*
X113180008Y-109852414D01*
X113171015Y-109856385D01*
X113149228Y-109863132D01*
X113139566Y-109864938D01*
X113115381Y-109879912D01*
X113103261Y-109886301D01*
X113077234Y-109897794D01*
X113070285Y-109904743D01*
X113052408Y-109918904D01*
X113044047Y-109924081D01*
X113026907Y-109946777D01*
X113017910Y-109957117D01*
X111154525Y-111820504D01*
X111100008Y-111848281D01*
X111084521Y-111849500D01*
X107715166Y-111849500D01*
X107699245Y-111846902D01*
X107645359Y-111849394D01*
X107640787Y-111849500D01*
X107622154Y-111849500D01*
X107622031Y-111849523D01*
X107608420Y-111851101D01*
X107580009Y-111852414D01*
X107571016Y-111856385D01*
X107549227Y-111863132D01*
X107539565Y-111864938D01*
X107515380Y-111879912D01*
X107503259Y-111886301D01*
X107477234Y-111897792D01*
X107470284Y-111904743D01*
X107452408Y-111918903D01*
X107444048Y-111924080D01*
X107426907Y-111946777D01*
X107417910Y-111957117D01*
X106744526Y-112630501D01*
X106690009Y-112658278D01*
X106647722Y-112651580D01*
X106647545Y-112652475D01*
X106628231Y-112648633D01*
X106569748Y-112637000D01*
X105830252Y-112637000D01*
X105801010Y-112642816D01*
X105771768Y-112648633D01*
X105705447Y-112692947D01*
X105661133Y-112759268D01*
X105649500Y-112817753D01*
X105649500Y-114382246D01*
X105661133Y-114440731D01*
X105705447Y-114507052D01*
X105788143Y-114562308D01*
X105787398Y-114563422D01*
X105816004Y-114579441D01*
X105841621Y-114635006D01*
X105829687Y-114695016D01*
X105784758Y-114736550D01*
X105781682Y-114737905D01*
X105177968Y-114991760D01*
X105139594Y-114999500D01*
X101999500Y-114999500D01*
X101941309Y-114980593D01*
X101905345Y-114931093D01*
X101900500Y-114900500D01*
X101900500Y-109430128D01*
X101919407Y-109371937D01*
X101968907Y-109335973D01*
X102030093Y-109335973D01*
X102069504Y-109360124D01*
X102218371Y-109508991D01*
X102234738Y-109523693D01*
X102255380Y-109540327D01*
X102289260Y-109558049D01*
X102326424Y-109577490D01*
X102346109Y-109583269D01*
X102393464Y-109597175D01*
X102451362Y-109605500D01*
X106258667Y-109605500D01*
X106266270Y-109605363D01*
X106275044Y-109605044D01*
X106339609Y-109592155D01*
X106339609Y-109592154D01*
X106339614Y-109592154D01*
X106405056Y-109567678D01*
X106456367Y-109539600D01*
X106773700Y-109301600D01*
X106800870Y-109277161D01*
X106830785Y-109245000D01*
X106832843Y-109242754D01*
X106877490Y-109162937D01*
X106897175Y-109095898D01*
X106905500Y-109038000D01*
X106905500Y-107655026D01*
X106924407Y-107596835D01*
X106973907Y-107560871D01*
X107035093Y-107560871D01*
X107083752Y-107595697D01*
X107222145Y-107780568D01*
X107419432Y-107977855D01*
X107639654Y-108142711D01*
X107642787Y-108145056D01*
X107887662Y-108278769D01*
X107953016Y-108303144D01*
X108149077Y-108376271D01*
X108333979Y-108416494D01*
X108421700Y-108435577D01*
X108421702Y-108435577D01*
X108421706Y-108435578D01*
X108700000Y-108455482D01*
X108978294Y-108435578D01*
X108986615Y-108433768D01*
X109003256Y-108430147D01*
X109250923Y-108376271D01*
X109512337Y-108278769D01*
X109757213Y-108145056D01*
X109980568Y-107977855D01*
X110177855Y-107780568D01*
X110345056Y-107557213D01*
X110478769Y-107312337D01*
X110576271Y-107050923D01*
X110635578Y-106778294D01*
X110655482Y-106500000D01*
X110635578Y-106221706D01*
X110576271Y-105949077D01*
X110478769Y-105687663D01*
X110478769Y-105687662D01*
X110345056Y-105442787D01*
X110341982Y-105438681D01*
X110177855Y-105219432D01*
X109980568Y-105022145D01*
X109884203Y-104950007D01*
X109757212Y-104854943D01*
X109512337Y-104721230D01*
X109337114Y-104655876D01*
X109250923Y-104623729D01*
X109250919Y-104623728D01*
X108978299Y-104564422D01*
X108732256Y-104546825D01*
X108700000Y-104544518D01*
X108699999Y-104544518D01*
X108421700Y-104564422D01*
X108149080Y-104623728D01*
X107887662Y-104721230D01*
X107642787Y-104854943D01*
X107419435Y-105022142D01*
X107222142Y-105219435D01*
X107083754Y-105404301D01*
X107033745Y-105439555D01*
X106972566Y-105438681D01*
X106923585Y-105402014D01*
X106905500Y-105344973D01*
X106905500Y-102752669D01*
X106905500Y-102751362D01*
X106904322Y-102729393D01*
X106904180Y-102728077D01*
X106904179Y-102728058D01*
X106901488Y-102703037D01*
X106901488Y-102703035D01*
X106877529Y-102626518D01*
X106844044Y-102565195D01*
X106808991Y-102518371D01*
X106665121Y-102374501D01*
X106637346Y-102319987D01*
X106646917Y-102259555D01*
X106690182Y-102216290D01*
X106735127Y-102205500D01*
X108947331Y-102205500D01*
X108948638Y-102205500D01*
X108970607Y-102204322D01*
X108971925Y-102204180D01*
X108971941Y-102204179D01*
X108986252Y-102202639D01*
X108996965Y-102201488D01*
X109073482Y-102177529D01*
X109134805Y-102144044D01*
X109181629Y-102108991D01*
X109865733Y-101424886D01*
X109920246Y-101397112D01*
X109980678Y-101406683D01*
X110023943Y-101449948D01*
X110033514Y-101510380D01*
X110030954Y-101521984D01*
X110014885Y-101578460D01*
X109994357Y-101799999D01*
X109994357Y-101800000D01*
X110014885Y-102021536D01*
X110070297Y-102216290D01*
X110075772Y-102235530D01*
X110174940Y-102434686D01*
X110174941Y-102434687D01*
X110174942Y-102434689D01*
X110309019Y-102612236D01*
X110473438Y-102762124D01*
X110662599Y-102879247D01*
X110870060Y-102959618D01*
X110870063Y-102959619D01*
X111088755Y-103000500D01*
X111088757Y-103000500D01*
X111311245Y-103000500D01*
X111529936Y-102959619D01*
X111529937Y-102959618D01*
X111529940Y-102959618D01*
X111737401Y-102879247D01*
X111926562Y-102762124D01*
X112090981Y-102612236D01*
X112225058Y-102434689D01*
X112324229Y-102235528D01*
X112385115Y-102021536D01*
X112405643Y-101800000D01*
X112385115Y-101578464D01*
X112324229Y-101364472D01*
X112225058Y-101165311D01*
X112090981Y-100987764D01*
X111926562Y-100837876D01*
X111737401Y-100720753D01*
X111737399Y-100720752D01*
X111529936Y-100640380D01*
X111311245Y-100599500D01*
X111311243Y-100599500D01*
X111088757Y-100599500D01*
X111088755Y-100599500D01*
X110871165Y-100640174D01*
X110810491Y-100632281D01*
X110766044Y-100590232D01*
X110754801Y-100530089D01*
X110765252Y-100496971D01*
X110777490Y-100473576D01*
X110781957Y-100458358D01*
X110797175Y-100406536D01*
X110805500Y-100348638D01*
X110805500Y-98324500D01*
X110803949Y-98310083D01*
X110816529Y-98250205D01*
X110861900Y-98209155D01*
X110902383Y-98200500D01*
X113945762Y-98200500D01*
X113945763Y-98200500D01*
X113956592Y-98195284D01*
X113977511Y-98187964D01*
X113989231Y-98185290D01*
X113998628Y-98177795D01*
X114017401Y-98166000D01*
X114028222Y-98160789D01*
X114028222Y-98160788D01*
X114028224Y-98160788D01*
X114035719Y-98151388D01*
X114051388Y-98135719D01*
X114060788Y-98128224D01*
X114065999Y-98117401D01*
X114077795Y-98098628D01*
X114085290Y-98089231D01*
X114087964Y-98077511D01*
X114095284Y-98056592D01*
X114100500Y-98045763D01*
X114100500Y-97954237D01*
X114100500Y-94477410D01*
X114100500Y-94454237D01*
X114095283Y-94443404D01*
X114087963Y-94422481D01*
X114085290Y-94410769D01*
X114077796Y-94401372D01*
X114066001Y-94382601D01*
X114060788Y-94371776D01*
X114060787Y-94371775D01*
X114051390Y-94364281D01*
X114035714Y-94348604D01*
X114028224Y-94339211D01*
X114017396Y-94333997D01*
X113998629Y-94322205D01*
X113989231Y-94314710D01*
X113989229Y-94314709D01*
X113977514Y-94312035D01*
X113956593Y-94304715D01*
X113945763Y-94299500D01*
X113922590Y-94299500D01*
X110445763Y-94299500D01*
X110354237Y-94299500D01*
X110343404Y-94304716D01*
X110322490Y-94312034D01*
X110310768Y-94314710D01*
X110301365Y-94322208D01*
X110282603Y-94333997D01*
X110271775Y-94339212D01*
X110264279Y-94348611D01*
X110248611Y-94364279D01*
X110239212Y-94371775D01*
X110233997Y-94382603D01*
X110222208Y-94401365D01*
X110214710Y-94410768D01*
X110212034Y-94422490D01*
X110204716Y-94443404D01*
X110199499Y-94454236D01*
X110199497Y-94518378D01*
X110199500Y-94518417D01*
X110199500Y-94798076D01*
X110180593Y-94856267D01*
X110131093Y-94892231D01*
X110086413Y-94896069D01*
X110080816Y-94895264D01*
X110075500Y-94894500D01*
X110075499Y-94894500D01*
X109399500Y-94894500D01*
X109341309Y-94875593D01*
X109305345Y-94826093D01*
X109300500Y-94795500D01*
X109300500Y-94165479D01*
X109319407Y-94107288D01*
X109329496Y-94095475D01*
X109945476Y-93479496D01*
X109999993Y-93451719D01*
X110015480Y-93450500D01*
X114512916Y-93450500D01*
X114571107Y-93469407D01*
G37*
%TD.AperFunction*%
%TA.AperFunction,Conductor*%
G36*
X105917913Y-86119407D02*
G01*
X105935775Y-86136121D01*
X106259647Y-86524768D01*
X106322276Y-86599922D01*
X106335418Y-86620346D01*
X106339211Y-86628223D01*
X106339212Y-86628224D01*
X106345613Y-86633329D01*
X106351155Y-86637748D01*
X106355255Y-86641761D01*
X106375840Y-86657464D01*
X106377515Y-86658770D01*
X106402080Y-86678361D01*
X106412550Y-86686710D01*
X106414780Y-86687168D01*
X106414781Y-86687169D01*
X106456426Y-86695734D01*
X106458490Y-86696181D01*
X106477410Y-86700500D01*
X106477412Y-86700500D01*
X106483761Y-86701949D01*
X106489464Y-86702530D01*
X106492089Y-86703069D01*
X106504430Y-86705608D01*
X106512911Y-86703478D01*
X106537014Y-86700500D01*
X110530711Y-86700500D01*
X110588902Y-86719407D01*
X110622425Y-86762223D01*
X110694059Y-86938467D01*
X110707693Y-86972009D01*
X110709127Y-86974598D01*
X110709131Y-86974606D01*
X110814301Y-87164463D01*
X110851892Y-87232324D01*
X110853635Y-87234737D01*
X110853638Y-87234741D01*
X110955717Y-87376026D01*
X111026171Y-87473539D01*
X111028177Y-87475712D01*
X111028182Y-87475718D01*
X111095154Y-87548262D01*
X111228029Y-87692194D01*
X111230288Y-87694118D01*
X111230290Y-87694120D01*
X111249692Y-87710646D01*
X111454575Y-87885157D01*
X111457050Y-87886799D01*
X111457053Y-87886801D01*
X111552194Y-87949913D01*
X111702559Y-88049659D01*
X111968427Y-88183344D01*
X112248367Y-88284293D01*
X112538366Y-88351061D01*
X112834266Y-88382690D01*
X113131825Y-88378726D01*
X113426778Y-88339227D01*
X113714895Y-88264758D01*
X113992047Y-88156387D01*
X114254260Y-88015668D01*
X114497774Y-87844618D01*
X114719099Y-87645690D01*
X114915062Y-87421735D01*
X115082853Y-87175963D01*
X115220067Y-86911900D01*
X115324736Y-86633329D01*
X115395361Y-86344245D01*
X115412162Y-86204681D01*
X115414210Y-86187668D01*
X115439936Y-86132154D01*
X115493380Y-86102364D01*
X115512500Y-86100500D01*
X121300500Y-86100500D01*
X121358691Y-86119407D01*
X121394655Y-86168907D01*
X121399500Y-86199500D01*
X121399500Y-89730500D01*
X121380593Y-89788691D01*
X121331093Y-89824655D01*
X121300500Y-89829500D01*
X109545479Y-89829500D01*
X109487288Y-89810593D01*
X109475475Y-89800504D01*
X107959496Y-88284525D01*
X107931719Y-88230008D01*
X107930500Y-88214521D01*
X107930500Y-87778924D01*
X107930500Y-87775684D01*
X107924068Y-87726827D01*
X107874065Y-87619596D01*
X107790404Y-87535935D01*
X107790402Y-87535934D01*
X107790401Y-87535933D01*
X107683174Y-87485932D01*
X107637529Y-87479923D01*
X107634316Y-87479500D01*
X107285684Y-87479500D01*
X107282471Y-87479922D01*
X107282470Y-87479923D01*
X107236825Y-87485932D01*
X107129598Y-87535933D01*
X107045933Y-87619598D01*
X107039724Y-87632915D01*
X106997996Y-87677663D01*
X106937934Y-87689337D01*
X106882482Y-87663479D01*
X106860276Y-87632915D01*
X106854066Y-87619598D01*
X106854065Y-87619597D01*
X106854065Y-87619596D01*
X106770404Y-87535935D01*
X106770402Y-87535934D01*
X106770401Y-87535933D01*
X106663174Y-87485932D01*
X106617529Y-87479923D01*
X106614316Y-87479500D01*
X106611075Y-87479500D01*
X106385479Y-87479500D01*
X106327288Y-87460593D01*
X106315475Y-87450504D01*
X105134475Y-86269504D01*
X105106698Y-86214987D01*
X105116269Y-86154555D01*
X105159534Y-86111290D01*
X105204479Y-86100500D01*
X105859722Y-86100500D01*
X105917913Y-86119407D01*
G37*
%TD.AperFunction*%
%TA.AperFunction,Conductor*%
G36*
X136358691Y-86119407D02*
G01*
X136394655Y-86168907D01*
X136399500Y-86199500D01*
X136399500Y-108109083D01*
X136399015Y-108118870D01*
X136385189Y-108258041D01*
X136381339Y-108277229D01*
X136341590Y-108407092D01*
X136334041Y-108425147D01*
X136269522Y-108544655D01*
X136258570Y-108560870D01*
X136171805Y-108665348D01*
X136157877Y-108679092D01*
X136120241Y-108709512D01*
X136052254Y-108764462D01*
X136035892Y-108775199D01*
X135915538Y-108838124D01*
X135897384Y-108845433D01*
X135767003Y-108883453D01*
X135747765Y-108887047D01*
X135607467Y-108899104D01*
X135597811Y-108899453D01*
X135562783Y-108898988D01*
X135562776Y-108898990D01*
X135546294Y-108898769D01*
X135542488Y-108899500D01*
X135039882Y-108899500D01*
X135000000Y-108899500D01*
X134796553Y-108899500D01*
X134794281Y-108899710D01*
X134794270Y-108899711D01*
X134393676Y-108936832D01*
X134393664Y-108936833D01*
X134391394Y-108937044D01*
X134389146Y-108937464D01*
X134389133Y-108937466D01*
X133993678Y-109011390D01*
X133993673Y-109011391D01*
X133991427Y-109011811D01*
X133989247Y-109012431D01*
X133989231Y-109012435D01*
X133602264Y-109122537D01*
X133602257Y-109122539D01*
X133600065Y-109123163D01*
X133597944Y-109123984D01*
X133597931Y-109123989D01*
X133222786Y-109269321D01*
X133222779Y-109269323D01*
X133220647Y-109270150D01*
X133218592Y-109271172D01*
X133218588Y-109271175D01*
X132858450Y-109450502D01*
X132858429Y-109450513D01*
X132856410Y-109451519D01*
X132854497Y-109452702D01*
X132854478Y-109452714D01*
X132512400Y-109664519D01*
X132512378Y-109664533D01*
X132510461Y-109665721D01*
X132508647Y-109667090D01*
X132508638Y-109667097D01*
X132187570Y-109909556D01*
X132187555Y-109909568D01*
X132185752Y-109910930D01*
X132184078Y-109912455D01*
X132184066Y-109912466D01*
X131886750Y-110183505D01*
X131886738Y-110183516D01*
X131885053Y-110185053D01*
X131883516Y-110186738D01*
X131883505Y-110186750D01*
X131612466Y-110484066D01*
X131612455Y-110484078D01*
X131610930Y-110485752D01*
X131609568Y-110487555D01*
X131609556Y-110487570D01*
X131367097Y-110808638D01*
X131367090Y-110808647D01*
X131365721Y-110810461D01*
X131364533Y-110812378D01*
X131364519Y-110812400D01*
X131152714Y-111154478D01*
X131152702Y-111154497D01*
X131151519Y-111156410D01*
X131150513Y-111158429D01*
X131150502Y-111158450D01*
X130982524Y-111495797D01*
X130970150Y-111520647D01*
X130969323Y-111522779D01*
X130969321Y-111522786D01*
X130823989Y-111897931D01*
X130823984Y-111897944D01*
X130823163Y-111900065D01*
X130822539Y-111902257D01*
X130822537Y-111902264D01*
X130712435Y-112289231D01*
X130712431Y-112289247D01*
X130711811Y-112291427D01*
X130711391Y-112293673D01*
X130711390Y-112293678D01*
X130637466Y-112689133D01*
X130637464Y-112689146D01*
X130637044Y-112691394D01*
X130636833Y-112693664D01*
X130636832Y-112693676D01*
X130599711Y-113094270D01*
X130599710Y-113094281D01*
X130599500Y-113096553D01*
X130599500Y-113098848D01*
X130599500Y-113098849D01*
X130599500Y-114195139D01*
X130599023Y-114204843D01*
X130585093Y-114346271D01*
X130581307Y-114365305D01*
X130541472Y-114496624D01*
X130534045Y-114514554D01*
X130469357Y-114635577D01*
X130458575Y-114651714D01*
X130371517Y-114757794D01*
X130357794Y-114771517D01*
X130251714Y-114858575D01*
X130235577Y-114869357D01*
X130114554Y-114934045D01*
X130096624Y-114941472D01*
X129965305Y-114981307D01*
X129946271Y-114985093D01*
X129804843Y-114999023D01*
X129795139Y-114999500D01*
X119099500Y-114999500D01*
X119041309Y-114980593D01*
X119005345Y-114931093D01*
X119000500Y-114900500D01*
X119000500Y-110844237D01*
X118995285Y-110833409D01*
X118987963Y-110812481D01*
X118985290Y-110800769D01*
X118977796Y-110791372D01*
X118966001Y-110772601D01*
X118960788Y-110761776D01*
X118951390Y-110754281D01*
X118935714Y-110738604D01*
X118928224Y-110729211D01*
X118917396Y-110723997D01*
X118898629Y-110712205D01*
X118889231Y-110704710D01*
X118889229Y-110704709D01*
X118877514Y-110702035D01*
X118856593Y-110694715D01*
X118845763Y-110689500D01*
X118822590Y-110689500D01*
X115491469Y-110689500D01*
X115464572Y-110685776D01*
X115460434Y-110684608D01*
X115441033Y-110688011D01*
X115429554Y-110689010D01*
X115412789Y-110692836D01*
X115407874Y-110693827D01*
X115390950Y-110696796D01*
X115379973Y-110700326D01*
X115360768Y-110704709D01*
X115357409Y-110707389D01*
X115334060Y-110721246D01*
X111950707Y-112143904D01*
X111889737Y-112149031D01*
X111837397Y-112117341D01*
X111813681Y-112060939D01*
X111827646Y-112001368D01*
X111842324Y-111982645D01*
X113345474Y-110479496D01*
X113399992Y-110451719D01*
X113415479Y-110450500D01*
X116534835Y-110450500D01*
X116550755Y-110453097D01*
X116557764Y-110452772D01*
X116557765Y-110452773D01*
X116604641Y-110450606D01*
X116609214Y-110450500D01*
X116627844Y-110450500D01*
X116627951Y-110450480D01*
X116641571Y-110448898D01*
X116669992Y-110447585D01*
X116678982Y-110443615D01*
X116700772Y-110436866D01*
X116710433Y-110435061D01*
X116734623Y-110420082D01*
X116746722Y-110413704D01*
X116772765Y-110402206D01*
X116779710Y-110395259D01*
X116797597Y-110381091D01*
X116805952Y-110375919D01*
X116823095Y-110353216D01*
X116832082Y-110342887D01*
X118966405Y-108208564D01*
X118979496Y-108199147D01*
X118984225Y-108193959D01*
X118984228Y-108193958D01*
X119015877Y-108159239D01*
X119018994Y-108155975D01*
X119032174Y-108142797D01*
X119032238Y-108142702D01*
X119040745Y-108131961D01*
X119059916Y-108110933D01*
X119063464Y-108101771D01*
X119074103Y-108081587D01*
X119079657Y-108073481D01*
X119086171Y-108045782D01*
X119090220Y-108032705D01*
X119100500Y-108006173D01*
X119100500Y-107996346D01*
X119103130Y-107973679D01*
X119103134Y-107973662D01*
X119105379Y-107964119D01*
X119101447Y-107935931D01*
X119100500Y-107922282D01*
X119100500Y-107375000D01*
X120494531Y-107375000D01*
X120514364Y-107601689D01*
X120573262Y-107821500D01*
X120669430Y-108027731D01*
X120669431Y-108027733D01*
X120669432Y-108027734D01*
X120677393Y-108039104D01*
X120789455Y-108199147D01*
X120799953Y-108214139D01*
X120960861Y-108375047D01*
X121147266Y-108505568D01*
X121147267Y-108505568D01*
X121147268Y-108505569D01*
X121353499Y-108601737D01*
X121353500Y-108601737D01*
X121353504Y-108601739D01*
X121573308Y-108660635D01*
X121800000Y-108680468D01*
X122026692Y-108660635D01*
X122246496Y-108601739D01*
X122452734Y-108505568D01*
X122639139Y-108375047D01*
X122800047Y-108214139D01*
X122930568Y-108027734D01*
X123026739Y-107821496D01*
X123085635Y-107601692D01*
X123105468Y-107375000D01*
X123085635Y-107148308D01*
X123026739Y-106928504D01*
X123012116Y-106897146D01*
X122930569Y-106722268D01*
X122919299Y-106706173D01*
X122800047Y-106535861D01*
X122639139Y-106374953D01*
X122604957Y-106351019D01*
X122462628Y-106251360D01*
X122452734Y-106244432D01*
X122452733Y-106244431D01*
X122452731Y-106244430D01*
X122246500Y-106148262D01*
X122026689Y-106089364D01*
X121800000Y-106069531D01*
X121573310Y-106089364D01*
X121353499Y-106148262D01*
X121147268Y-106244430D01*
X120960864Y-106374950D01*
X120799950Y-106535864D01*
X120669430Y-106722268D01*
X120573262Y-106928499D01*
X120514364Y-107148310D01*
X120494531Y-107375000D01*
X119100500Y-107375000D01*
X119100500Y-100874999D01*
X120494531Y-100874999D01*
X120514364Y-101101689D01*
X120573262Y-101321500D01*
X120669430Y-101527731D01*
X120757836Y-101653990D01*
X120799953Y-101714139D01*
X120960861Y-101875047D01*
X121147266Y-102005568D01*
X121147267Y-102005568D01*
X121147268Y-102005569D01*
X121353499Y-102101737D01*
X121353500Y-102101737D01*
X121353504Y-102101739D01*
X121573308Y-102160635D01*
X121800000Y-102180468D01*
X122026692Y-102160635D01*
X122246496Y-102101739D01*
X122452734Y-102005568D01*
X122639139Y-101875047D01*
X122800047Y-101714139D01*
X122930568Y-101527734D01*
X123026739Y-101321496D01*
X123085635Y-101101692D01*
X123105468Y-100875000D01*
X123085635Y-100648308D01*
X123026739Y-100428504D01*
X123019993Y-100414038D01*
X122930569Y-100222268D01*
X122929580Y-100220856D01*
X122800047Y-100035861D01*
X122639139Y-99874953D01*
X122636878Y-99873370D01*
X122496667Y-99775194D01*
X122452734Y-99744432D01*
X122452733Y-99744431D01*
X122452731Y-99744430D01*
X122246500Y-99648262D01*
X122026689Y-99589364D01*
X121800000Y-99569531D01*
X121573310Y-99589364D01*
X121353499Y-99648262D01*
X121147268Y-99744430D01*
X120960864Y-99874950D01*
X120799950Y-100035864D01*
X120669430Y-100222268D01*
X120573262Y-100428499D01*
X120514364Y-100648310D01*
X120494531Y-100874999D01*
X119100500Y-100874999D01*
X119100500Y-93796270D01*
X119103097Y-93780351D01*
X119100606Y-93726462D01*
X119100500Y-93721890D01*
X119100500Y-93703260D01*
X119100480Y-93703154D01*
X119098898Y-93689534D01*
X119097585Y-93661113D01*
X119093614Y-93652120D01*
X119086866Y-93630329D01*
X119085061Y-93620671D01*
X119084099Y-93619117D01*
X119069540Y-93559689D01*
X119092693Y-93503053D01*
X119144714Y-93470843D01*
X119168270Y-93468000D01*
X119233257Y-93468000D01*
X119233260Y-93468000D01*
X119301393Y-93458073D01*
X119406483Y-93406698D01*
X119480498Y-93332682D01*
X119535013Y-93304907D01*
X119595445Y-93314478D01*
X119638710Y-93357743D01*
X119649500Y-93402688D01*
X119649500Y-95334834D01*
X119646902Y-95350755D01*
X119649393Y-95404641D01*
X119649499Y-95409208D01*
X119649499Y-95427844D01*
X119649521Y-95427959D01*
X119651101Y-95441579D01*
X119652414Y-95469991D01*
X119656384Y-95478982D01*
X119663132Y-95500773D01*
X119664938Y-95510432D01*
X119679911Y-95534616D01*
X119686300Y-95546736D01*
X119697794Y-95572765D01*
X119697795Y-95572766D01*
X119704743Y-95579715D01*
X119718910Y-95597600D01*
X119724081Y-95605953D01*
X119746772Y-95623087D01*
X119757117Y-95632088D01*
X120891436Y-96766407D01*
X120900857Y-96779501D01*
X120940726Y-96815847D01*
X120944031Y-96819003D01*
X120957201Y-96832173D01*
X120957295Y-96832237D01*
X120968039Y-96840746D01*
X120989067Y-96859916D01*
X120998230Y-96863465D01*
X121018413Y-96874103D01*
X121026519Y-96879656D01*
X121054211Y-96886169D01*
X121067298Y-96890222D01*
X121093827Y-96900500D01*
X121103652Y-96900500D01*
X121126317Y-96903129D01*
X121135881Y-96905379D01*
X121164053Y-96901448D01*
X121177731Y-96900500D01*
X129126444Y-96900500D01*
X129184635Y-96919407D01*
X129220599Y-96968907D01*
X129220599Y-97030093D01*
X129201432Y-97056473D01*
X129205198Y-97059317D01*
X129176907Y-97096777D01*
X129167910Y-97107117D01*
X127233589Y-99041438D01*
X127220497Y-99050859D01*
X127184141Y-99090737D01*
X127180989Y-99094038D01*
X127167825Y-99107203D01*
X127167754Y-99107307D01*
X127159256Y-99118034D01*
X127140083Y-99139067D01*
X127136530Y-99148238D01*
X127125895Y-99168414D01*
X127120343Y-99176519D01*
X127113830Y-99204207D01*
X127109777Y-99217296D01*
X127099500Y-99243826D01*
X127099500Y-99253653D01*
X127096870Y-99276319D01*
X127094620Y-99285882D01*
X127098550Y-99314056D01*
X127099499Y-99327730D01*
X127099500Y-100234520D01*
X127080593Y-100292711D01*
X127070504Y-100304524D01*
X124033589Y-103341438D01*
X124020497Y-103350859D01*
X123984141Y-103390737D01*
X123980989Y-103394038D01*
X123967825Y-103407203D01*
X123967754Y-103407307D01*
X123959256Y-103418034D01*
X123940083Y-103439067D01*
X123936530Y-103448238D01*
X123925895Y-103468414D01*
X123920343Y-103476519D01*
X123913830Y-103504207D01*
X123909777Y-103517296D01*
X123899500Y-103543826D01*
X123899500Y-103553653D01*
X123896870Y-103576319D01*
X123894621Y-103585879D01*
X123898551Y-103614053D01*
X123899500Y-103627730D01*
X123899500Y-105034834D01*
X123896902Y-105050758D01*
X123899394Y-105104641D01*
X123899500Y-105109213D01*
X123899500Y-105127845D01*
X123899521Y-105127958D01*
X123901101Y-105141578D01*
X123902414Y-105169991D01*
X123906384Y-105178982D01*
X123913132Y-105200773D01*
X123914938Y-105210432D01*
X123929911Y-105234616D01*
X123936300Y-105246736D01*
X123947794Y-105272765D01*
X123947795Y-105272766D01*
X123954743Y-105279715D01*
X123968908Y-105297597D01*
X123969919Y-105299230D01*
X123974081Y-105305953D01*
X123996772Y-105323087D01*
X124007117Y-105332088D01*
X124441436Y-105766407D01*
X124450857Y-105779501D01*
X124490726Y-105815847D01*
X124494031Y-105819003D01*
X124507201Y-105832173D01*
X124507295Y-105832237D01*
X124518039Y-105840746D01*
X124539067Y-105859916D01*
X124548234Y-105863467D01*
X124568415Y-105874105D01*
X124576520Y-105879657D01*
X124604219Y-105886172D01*
X124617296Y-105890222D01*
X124643827Y-105900500D01*
X124653653Y-105900500D01*
X124676318Y-105903129D01*
X124685881Y-105905379D01*
X124714053Y-105901448D01*
X124727730Y-105900500D01*
X128452916Y-105900500D01*
X128511107Y-105919407D01*
X128527735Y-105934669D01*
X128568871Y-105982143D01*
X128682837Y-106055384D01*
X128689947Y-106059953D01*
X128828039Y-106100500D01*
X128934521Y-106100500D01*
X128992712Y-106119407D01*
X129004525Y-106129496D01*
X129400503Y-106525474D01*
X129428280Y-106579991D01*
X129429499Y-106595478D01*
X129429499Y-106617952D01*
X129410592Y-106676143D01*
X129400503Y-106687955D01*
X129306775Y-106781684D01*
X129256028Y-106890511D01*
X129256027Y-106890513D01*
X129256028Y-106890513D01*
X129249500Y-106940099D01*
X129249500Y-106943338D01*
X129249500Y-106943339D01*
X129249500Y-107356657D01*
X129249500Y-107356672D01*
X129249501Y-107359900D01*
X129249923Y-107363108D01*
X129249924Y-107363119D01*
X129256027Y-107409486D01*
X129306775Y-107518313D01*
X129306776Y-107518316D01*
X129370505Y-107582045D01*
X129398281Y-107636560D01*
X129399500Y-107652055D01*
X129399499Y-107665031D01*
X129380587Y-107723220D01*
X129370503Y-107735026D01*
X129285934Y-107819596D01*
X129235932Y-107926825D01*
X129231022Y-107964120D01*
X129229500Y-107975684D01*
X129229500Y-108424316D01*
X129229923Y-108427529D01*
X129235932Y-108473174D01*
X129285933Y-108580402D01*
X129285934Y-108580403D01*
X129285935Y-108580404D01*
X129360528Y-108654997D01*
X129388305Y-108709511D01*
X129378734Y-108769944D01*
X129360528Y-108795002D01*
X129285934Y-108869596D01*
X129235932Y-108976825D01*
X129235931Y-108976827D01*
X129235932Y-108976827D01*
X129229500Y-109025684D01*
X129229500Y-109474316D01*
X129229923Y-109477529D01*
X129235932Y-109523174D01*
X129285933Y-109630401D01*
X129285934Y-109630402D01*
X129285935Y-109630404D01*
X129369596Y-109714065D01*
X129369597Y-109714065D01*
X129370504Y-109714972D01*
X129398281Y-109769489D01*
X129399500Y-109784976D01*
X129399500Y-111200500D01*
X129380593Y-111258691D01*
X129331093Y-111294655D01*
X129300500Y-111299500D01*
X129228039Y-111299500D01*
X129089945Y-111340047D01*
X128968874Y-111417854D01*
X128874622Y-111526628D01*
X128814834Y-111657544D01*
X128794352Y-111800000D01*
X128814834Y-111942455D01*
X128868945Y-112060939D01*
X128874623Y-112073373D01*
X128935738Y-112143904D01*
X128968874Y-112182145D01*
X129089945Y-112259952D01*
X129089947Y-112259953D01*
X129228039Y-112300500D01*
X129371961Y-112300500D01*
X129510053Y-112259953D01*
X129631128Y-112182143D01*
X129725377Y-112073373D01*
X129785165Y-111942457D01*
X129805647Y-111800000D01*
X129802558Y-111778516D01*
X129812991Y-111718228D01*
X129830543Y-111694426D01*
X129866405Y-111658564D01*
X129879496Y-111649147D01*
X129884225Y-111643959D01*
X129884228Y-111643958D01*
X129915877Y-111609239D01*
X129918994Y-111605975D01*
X129932174Y-111592797D01*
X129932238Y-111592702D01*
X129940745Y-111581961D01*
X129959916Y-111560933D01*
X129963466Y-111551766D01*
X129974104Y-111531585D01*
X129979656Y-111523481D01*
X129986169Y-111495785D01*
X129990221Y-111482702D01*
X130000500Y-111456173D01*
X130000500Y-111446342D01*
X130003128Y-111423686D01*
X130005379Y-111414119D01*
X130001449Y-111385946D01*
X130000500Y-111372268D01*
X130000500Y-110605554D01*
X130000500Y-109784972D01*
X130019406Y-109726785D01*
X130029496Y-109714972D01*
X130030402Y-109714065D01*
X130030404Y-109714065D01*
X130114065Y-109630404D01*
X130120275Y-109617085D01*
X130162000Y-109572338D01*
X130222061Y-109560662D01*
X130277514Y-109586518D01*
X130299723Y-109617083D01*
X130305934Y-109630401D01*
X130305935Y-109630404D01*
X130389596Y-109714065D01*
X130496827Y-109764068D01*
X130545684Y-109770500D01*
X130548925Y-109770500D01*
X130891075Y-109770500D01*
X130894316Y-109770500D01*
X130943173Y-109764068D01*
X131050404Y-109714065D01*
X131134065Y-109630404D01*
X131184068Y-109523173D01*
X131190500Y-109474316D01*
X131190500Y-109025684D01*
X131184068Y-108976827D01*
X131134065Y-108869596D01*
X131102593Y-108838124D01*
X131059472Y-108795002D01*
X131031695Y-108740485D01*
X131041267Y-108680053D01*
X131059470Y-108654998D01*
X131134065Y-108580404D01*
X131144670Y-108557660D01*
X131186399Y-108512912D01*
X131234395Y-108500500D01*
X131784835Y-108500500D01*
X131800755Y-108503097D01*
X131807764Y-108502772D01*
X131807765Y-108502773D01*
X131854641Y-108500606D01*
X131859214Y-108500500D01*
X131877844Y-108500500D01*
X131877951Y-108500480D01*
X131891571Y-108498898D01*
X131919992Y-108497585D01*
X131928982Y-108493615D01*
X131950772Y-108486866D01*
X131960433Y-108485061D01*
X131984623Y-108470082D01*
X131996722Y-108463704D01*
X132022765Y-108452206D01*
X132029710Y-108445259D01*
X132047597Y-108431091D01*
X132055952Y-108425919D01*
X132073095Y-108403216D01*
X132082082Y-108392887D01*
X133566405Y-106908564D01*
X133579496Y-106899147D01*
X133584225Y-106893959D01*
X133584228Y-106893958D01*
X133615877Y-106859239D01*
X133618994Y-106855975D01*
X133632174Y-106842797D01*
X133632238Y-106842702D01*
X133640745Y-106831961D01*
X133659916Y-106810933D01*
X133663466Y-106801766D01*
X133674104Y-106781585D01*
X133679656Y-106773481D01*
X133686169Y-106745785D01*
X133690221Y-106732702D01*
X133700500Y-106706173D01*
X133700500Y-106696342D01*
X133703128Y-106673686D01*
X133705379Y-106664119D01*
X133701449Y-106635946D01*
X133700500Y-106622268D01*
X133700500Y-105284394D01*
X133719407Y-105226203D01*
X133757659Y-105194670D01*
X133780404Y-105184065D01*
X133801432Y-105163037D01*
X133834974Y-105129496D01*
X133889491Y-105101719D01*
X133904977Y-105100500D01*
X134202916Y-105100500D01*
X134261107Y-105119407D01*
X134277735Y-105134669D01*
X134318871Y-105182143D01*
X134439945Y-105259952D01*
X134439947Y-105259953D01*
X134578039Y-105300500D01*
X134721961Y-105300500D01*
X134860053Y-105259953D01*
X134981128Y-105182143D01*
X135075377Y-105073373D01*
X135135165Y-104942457D01*
X135155647Y-104800000D01*
X135135165Y-104657543D01*
X135075377Y-104526627D01*
X134981128Y-104417857D01*
X134981127Y-104417856D01*
X134981125Y-104417854D01*
X134860054Y-104340047D01*
X134721961Y-104299500D01*
X134578039Y-104299500D01*
X134439945Y-104340047D01*
X134318871Y-104417856D01*
X134277735Y-104465331D01*
X134225339Y-104496927D01*
X134202916Y-104499500D01*
X133955069Y-104499500D01*
X133896878Y-104480593D01*
X133865345Y-104442341D01*
X133864065Y-104439596D01*
X133780404Y-104355935D01*
X133767083Y-104349723D01*
X133722337Y-104307997D01*
X133710662Y-104247936D01*
X133736520Y-104192483D01*
X133767081Y-104170277D01*
X133780404Y-104164065D01*
X133864065Y-104080404D01*
X133914068Y-103973173D01*
X133920500Y-103924316D01*
X133920500Y-103575684D01*
X133914068Y-103526827D01*
X133864065Y-103419596D01*
X133780404Y-103335935D01*
X133780402Y-103335934D01*
X133780401Y-103335933D01*
X133659363Y-103279492D01*
X133661184Y-103275585D01*
X133631319Y-103261324D01*
X133602148Y-103207540D01*
X133600499Y-103189550D01*
X133600499Y-103040681D01*
X133617184Y-102985679D01*
X133638867Y-102953231D01*
X133650500Y-102894748D01*
X133650500Y-101905252D01*
X133638867Y-101846769D01*
X133624162Y-101824762D01*
X133594552Y-101780447D01*
X133522517Y-101732315D01*
X133484638Y-101684265D01*
X133482236Y-101623127D01*
X133516229Y-101572253D01*
X133522517Y-101567685D01*
X133594552Y-101519552D01*
X133599109Y-101512732D01*
X133638867Y-101453231D01*
X133650500Y-101394748D01*
X133650500Y-101364500D01*
X133669407Y-101306309D01*
X133718907Y-101270345D01*
X133749500Y-101265500D01*
X134202083Y-101265500D01*
X134260274Y-101284407D01*
X134291807Y-101322661D01*
X134296775Y-101333315D01*
X134313051Y-101349592D01*
X134340827Y-101404109D01*
X134331255Y-101464541D01*
X134327794Y-101469681D01*
X134264834Y-101607542D01*
X134244352Y-101750000D01*
X134264834Y-101892455D01*
X134311943Y-101995607D01*
X134324623Y-102023373D01*
X134418872Y-102132143D01*
X134418874Y-102132145D01*
X134539945Y-102209952D01*
X134539947Y-102209953D01*
X134678039Y-102250500D01*
X134821961Y-102250500D01*
X134960053Y-102209953D01*
X135081128Y-102132143D01*
X135175377Y-102023373D01*
X135235165Y-101892457D01*
X135255647Y-101750000D01*
X135244807Y-101674606D01*
X135235165Y-101607542D01*
X135175378Y-101476627D01*
X135153056Y-101450866D01*
X135129238Y-101394507D01*
X135138151Y-101344196D01*
X135186337Y-101240860D01*
X135193972Y-101224487D01*
X135200500Y-101174901D01*
X135200499Y-100755100D01*
X135193972Y-100705513D01*
X135143224Y-100596684D01*
X135058316Y-100511776D01*
X135058314Y-100511775D01*
X135049496Y-100502957D01*
X135021719Y-100448440D01*
X135020500Y-100432953D01*
X135020500Y-100382047D01*
X135039407Y-100323856D01*
X135049496Y-100312043D01*
X135058313Y-100303224D01*
X135058316Y-100303224D01*
X135143224Y-100218316D01*
X135193972Y-100109487D01*
X135200500Y-100059901D01*
X135200499Y-99640100D01*
X135193972Y-99590513D01*
X135143224Y-99481684D01*
X135058316Y-99396776D01*
X135058314Y-99396775D01*
X135058313Y-99396774D01*
X134949488Y-99346028D01*
X134903114Y-99339923D01*
X134899901Y-99339500D01*
X134896660Y-99339500D01*
X134543342Y-99339500D01*
X134543326Y-99339500D01*
X134540100Y-99339501D01*
X134536892Y-99339923D01*
X134536880Y-99339924D01*
X134490513Y-99346027D01*
X134381685Y-99396775D01*
X134296774Y-99481686D01*
X134246028Y-99590511D01*
X134246027Y-99590513D01*
X134246028Y-99590513D01*
X134239500Y-99640099D01*
X134239500Y-99643338D01*
X134239500Y-99643339D01*
X134239500Y-100056657D01*
X134239500Y-100056672D01*
X134239501Y-100059900D01*
X134239923Y-100063108D01*
X134239924Y-100063119D01*
X134246027Y-100109486D01*
X134276695Y-100175252D01*
X134296776Y-100218316D01*
X134381684Y-100303224D01*
X134381685Y-100303224D01*
X134390504Y-100312043D01*
X134418281Y-100366560D01*
X134419500Y-100382047D01*
X134419500Y-100432953D01*
X134400593Y-100491144D01*
X134390504Y-100502957D01*
X134381685Y-100511775D01*
X134381684Y-100511776D01*
X134343209Y-100550251D01*
X134296774Y-100596686D01*
X134291807Y-100607339D01*
X134250079Y-100652087D01*
X134202083Y-100664500D01*
X133749500Y-100664500D01*
X133691309Y-100645593D01*
X133655345Y-100596093D01*
X133650500Y-100565500D01*
X133650500Y-100405253D01*
X133645884Y-100382047D01*
X133638867Y-100346769D01*
X133617184Y-100314318D01*
X133594552Y-100280447D01*
X133528231Y-100236133D01*
X133520122Y-100234520D01*
X133469748Y-100224500D01*
X133469747Y-100224500D01*
X133439477Y-100224500D01*
X133381286Y-100205593D01*
X133345322Y-100156093D01*
X133345322Y-100094907D01*
X133369473Y-100055497D01*
X133389109Y-100035861D01*
X133428903Y-99996066D01*
X133441996Y-99986647D01*
X133446725Y-99981459D01*
X133446728Y-99981458D01*
X133478377Y-99946739D01*
X133481494Y-99943475D01*
X133494674Y-99930297D01*
X133494738Y-99930202D01*
X133503245Y-99919461D01*
X133522416Y-99898433D01*
X133522417Y-99898428D01*
X133525104Y-99895482D01*
X133560805Y-99851668D01*
X133598987Y-99837078D01*
X133612420Y-99834951D01*
X133612421Y-99834950D01*
X133612423Y-99834950D01*
X133730747Y-99774660D01*
X133730746Y-99774660D01*
X133730751Y-99774658D01*
X133824658Y-99680751D01*
X133884951Y-99562420D01*
X133900500Y-99464246D01*
X133900500Y-98635754D01*
X133884951Y-98537580D01*
X133824658Y-98419249D01*
X133730751Y-98325342D01*
X133612420Y-98265049D01*
X133612419Y-98265048D01*
X133612418Y-98265048D01*
X133514246Y-98249500D01*
X133010754Y-98249500D01*
X132912581Y-98265048D01*
X132794250Y-98325341D01*
X132700341Y-98419250D01*
X132640048Y-98537581D01*
X132624500Y-98635753D01*
X132624500Y-99464246D01*
X132640048Y-99562418D01*
X132640048Y-99562419D01*
X132640049Y-99562420D01*
X132700342Y-99680751D01*
X132727306Y-99707715D01*
X132755082Y-99762230D01*
X132745511Y-99822662D01*
X132727305Y-99847720D01*
X132633589Y-99941437D01*
X132620498Y-99950857D01*
X132584141Y-99990737D01*
X132580989Y-99994038D01*
X132567825Y-100007203D01*
X132567754Y-100007307D01*
X132559256Y-100018034D01*
X132540083Y-100039067D01*
X132536530Y-100048238D01*
X132525895Y-100068414D01*
X132520343Y-100076519D01*
X132513830Y-100104207D01*
X132509777Y-100117296D01*
X132499500Y-100143826D01*
X132499500Y-100153653D01*
X132496870Y-100176319D01*
X132494621Y-100185879D01*
X132498551Y-100214053D01*
X132499500Y-100227730D01*
X132499500Y-100259317D01*
X132482816Y-100314318D01*
X132461133Y-100346768D01*
X132449499Y-100405253D01*
X132449499Y-101394746D01*
X132461133Y-101453231D01*
X132505447Y-101519552D01*
X132577482Y-101567685D01*
X132615361Y-101615735D01*
X132617763Y-101676874D01*
X132583769Y-101727747D01*
X132577482Y-101732315D01*
X132505447Y-101780447D01*
X132461133Y-101846768D01*
X132461132Y-101846769D01*
X132461133Y-101846769D01*
X132452046Y-101892455D01*
X132449500Y-101905253D01*
X132449500Y-102780500D01*
X132430593Y-102838691D01*
X132381093Y-102874655D01*
X132350500Y-102879500D01*
X131885166Y-102879500D01*
X131869245Y-102876902D01*
X131815359Y-102879394D01*
X131810787Y-102879500D01*
X131792154Y-102879500D01*
X131792031Y-102879523D01*
X131778420Y-102881101D01*
X131750009Y-102882414D01*
X131741016Y-102886385D01*
X131719227Y-102893132D01*
X131709565Y-102894938D01*
X131685380Y-102909912D01*
X131673259Y-102916301D01*
X131647234Y-102927792D01*
X131640284Y-102934743D01*
X131622408Y-102948903D01*
X131614048Y-102954080D01*
X131596904Y-102976781D01*
X131587907Y-102987120D01*
X131324526Y-103250503D01*
X131270009Y-103278281D01*
X131254522Y-103279500D01*
X130975684Y-103279500D01*
X130972471Y-103279922D01*
X130972470Y-103279923D01*
X130926825Y-103285932D01*
X130819596Y-103335934D01*
X130735026Y-103420504D01*
X130680510Y-103448281D01*
X130665023Y-103449500D01*
X130534977Y-103449500D01*
X130476786Y-103430593D01*
X130464974Y-103420504D01*
X130380403Y-103335934D01*
X130273174Y-103285932D01*
X130227529Y-103279923D01*
X130224316Y-103279500D01*
X129775684Y-103279500D01*
X129772474Y-103279922D01*
X129772467Y-103279923D01*
X129717014Y-103287223D01*
X129656853Y-103276072D01*
X129614736Y-103231689D01*
X129606101Y-103203159D01*
X129604143Y-103189543D01*
X129585165Y-103057543D01*
X129525377Y-102926627D01*
X129431128Y-102817857D01*
X129431127Y-102817856D01*
X129431125Y-102817854D01*
X129310054Y-102740047D01*
X129171961Y-102699500D01*
X129028039Y-102699500D01*
X128889945Y-102740047D01*
X128768874Y-102817854D01*
X128674622Y-102926628D01*
X128614834Y-103057544D01*
X128594352Y-103200000D01*
X128614834Y-103342455D01*
X128666425Y-103455421D01*
X128674623Y-103473373D01*
X128763826Y-103576319D01*
X128775320Y-103589584D01*
X128799137Y-103645944D01*
X128799500Y-103654415D01*
X128799500Y-103804834D01*
X128796902Y-103820758D01*
X128799394Y-103874641D01*
X128799500Y-103879213D01*
X128799500Y-103897845D01*
X128799521Y-103897958D01*
X128801101Y-103911578D01*
X128802414Y-103939991D01*
X128806384Y-103948982D01*
X128813132Y-103970773D01*
X128814938Y-103980432D01*
X128829911Y-104004616D01*
X128836300Y-104016736D01*
X128847794Y-104042765D01*
X128847795Y-104042766D01*
X128854743Y-104049715D01*
X128868908Y-104067597D01*
X128870141Y-104069589D01*
X128874081Y-104075953D01*
X128896772Y-104093087D01*
X128907117Y-104102088D01*
X129450503Y-104645474D01*
X129478280Y-104699991D01*
X129479499Y-104715478D01*
X129479499Y-104941075D01*
X129479499Y-104941090D01*
X129479500Y-104944316D01*
X129479923Y-104947529D01*
X129485932Y-104993174D01*
X129535933Y-105100401D01*
X129535934Y-105100402D01*
X129535935Y-105100404D01*
X129619596Y-105184065D01*
X129619597Y-105184065D01*
X129619598Y-105184066D01*
X129642336Y-105194669D01*
X129726827Y-105234068D01*
X129775684Y-105240500D01*
X129778925Y-105240500D01*
X130221075Y-105240500D01*
X130224316Y-105240500D01*
X130273173Y-105234068D01*
X130380404Y-105184065D01*
X130464065Y-105100404D01*
X130514068Y-104993173D01*
X130520500Y-104944316D01*
X130520500Y-104595684D01*
X130514068Y-104546827D01*
X130464065Y-104439596D01*
X130380404Y-104355935D01*
X130367083Y-104349723D01*
X130322337Y-104307997D01*
X130310662Y-104247936D01*
X130336520Y-104192483D01*
X130367081Y-104170277D01*
X130380404Y-104164065D01*
X130442381Y-104102088D01*
X130464974Y-104079496D01*
X130519490Y-104051719D01*
X130534977Y-104050500D01*
X130665023Y-104050500D01*
X130723214Y-104069407D01*
X130735026Y-104079496D01*
X130810863Y-104155332D01*
X130819596Y-104164065D01*
X130926827Y-104214068D01*
X130975684Y-104220500D01*
X130978925Y-104220500D01*
X131421075Y-104220500D01*
X131424316Y-104220500D01*
X131473173Y-104214068D01*
X131580404Y-104164065D01*
X131664065Y-104080404D01*
X131664065Y-104080401D01*
X131676408Y-104068060D01*
X131677937Y-104069589D01*
X131702002Y-104043783D01*
X131762063Y-104032107D01*
X131817516Y-104057963D01*
X131828199Y-104072667D01*
X131835934Y-104080402D01*
X131835935Y-104080404D01*
X131919596Y-104164065D01*
X132026827Y-104214068D01*
X132075684Y-104220500D01*
X132078925Y-104220500D01*
X132521075Y-104220500D01*
X132524316Y-104220500D01*
X132573173Y-104214068D01*
X132680404Y-104164065D01*
X132742381Y-104102088D01*
X132764974Y-104079496D01*
X132819490Y-104051719D01*
X132834977Y-104050500D01*
X132865023Y-104050500D01*
X132923214Y-104069407D01*
X132935026Y-104079496D01*
X133019596Y-104164065D01*
X133032915Y-104170276D01*
X133077663Y-104212004D01*
X133089337Y-104272066D01*
X133063479Y-104327518D01*
X133032915Y-104349724D01*
X133019598Y-104355933D01*
X132935933Y-104439598D01*
X132885932Y-104546825D01*
X132879923Y-104592470D01*
X132879500Y-104595684D01*
X132879500Y-104944316D01*
X132879923Y-104947529D01*
X132885932Y-104993174D01*
X132935933Y-105100401D01*
X132935934Y-105100402D01*
X132935935Y-105100404D01*
X133019596Y-105184065D01*
X133042339Y-105194670D01*
X133087087Y-105236397D01*
X133099500Y-105284394D01*
X133099500Y-106484521D01*
X133080593Y-106542712D01*
X133070504Y-106554525D01*
X131754525Y-107870504D01*
X131700008Y-107898281D01*
X131684521Y-107899500D01*
X131234395Y-107899500D01*
X131176204Y-107880593D01*
X131144671Y-107842340D01*
X131134066Y-107819598D01*
X131134065Y-107819597D01*
X131134065Y-107819596D01*
X131050404Y-107735935D01*
X131050402Y-107735934D01*
X131050401Y-107735933D01*
X130943174Y-107685932D01*
X130897529Y-107679923D01*
X130894316Y-107679500D01*
X130545684Y-107679500D01*
X130542471Y-107679922D01*
X130542470Y-107679923D01*
X130496825Y-107685932D01*
X130389598Y-107735933D01*
X130305933Y-107819598D01*
X130299724Y-107832915D01*
X130257996Y-107877663D01*
X130197934Y-107889337D01*
X130142482Y-107863479D01*
X130120276Y-107832915D01*
X130114066Y-107819598D01*
X130114065Y-107819597D01*
X130114065Y-107819596D01*
X130051926Y-107757457D01*
X130024151Y-107702943D01*
X130033722Y-107642511D01*
X130058319Y-107617914D01*
X130055972Y-107615567D01*
X130068313Y-107603224D01*
X130068316Y-107603224D01*
X130153224Y-107518316D01*
X130203972Y-107409487D01*
X130210500Y-107359901D01*
X130210499Y-106940100D01*
X130203972Y-106890513D01*
X130153224Y-106781684D01*
X130068316Y-106696776D01*
X130068314Y-106696775D01*
X130059495Y-106687956D01*
X130031718Y-106633439D01*
X130030499Y-106617952D01*
X130030499Y-106579991D01*
X130030499Y-106495160D01*
X130033097Y-106479245D01*
X130030606Y-106425357D01*
X130030500Y-106420785D01*
X130030500Y-106402156D01*
X130030480Y-106402050D01*
X130028898Y-106388430D01*
X130027585Y-106360008D01*
X130023612Y-106351012D01*
X130016866Y-106329223D01*
X130015061Y-106319567D01*
X130000088Y-106295384D01*
X129993696Y-106283257D01*
X129982205Y-106257233D01*
X129975256Y-106250284D01*
X129961090Y-106232399D01*
X129955919Y-106224048D01*
X129933221Y-106206907D01*
X129922879Y-106197908D01*
X129430546Y-105705575D01*
X129402769Y-105651058D01*
X129402558Y-105621480D01*
X129405647Y-105599998D01*
X129385165Y-105457544D01*
X129376551Y-105438681D01*
X129325377Y-105326627D01*
X129231128Y-105217857D01*
X129231127Y-105217856D01*
X129231125Y-105217854D01*
X129110054Y-105140047D01*
X128971961Y-105099500D01*
X128828039Y-105099500D01*
X128689945Y-105140047D01*
X128568871Y-105217856D01*
X128527735Y-105265331D01*
X128475339Y-105296927D01*
X128452916Y-105299500D01*
X126462684Y-105299500D01*
X126404493Y-105280593D01*
X126368529Y-105231093D01*
X126368529Y-105169907D01*
X126404493Y-105120407D01*
X126410567Y-105116329D01*
X126411890Y-105115509D01*
X126466041Y-105081981D01*
X126616764Y-104944579D01*
X126739673Y-104781821D01*
X126830582Y-104599250D01*
X126886397Y-104403083D01*
X126905215Y-104200000D01*
X126886397Y-103996917D01*
X126830582Y-103800750D01*
X126739673Y-103618179D01*
X126616764Y-103455421D01*
X126466041Y-103318019D01*
X126466038Y-103318017D01*
X126292639Y-103210653D01*
X126292637Y-103210652D01*
X126206455Y-103177265D01*
X126163737Y-103160716D01*
X126116306Y-103122064D01*
X126100500Y-103068401D01*
X126100500Y-102731163D01*
X126119407Y-102672972D01*
X126129490Y-102661165D01*
X128062707Y-100727948D01*
X128117222Y-100700173D01*
X128177654Y-100709744D01*
X128220919Y-100753009D01*
X128222433Y-100756114D01*
X128246774Y-100808313D01*
X128246775Y-100808314D01*
X128246776Y-100808316D01*
X128331684Y-100893224D01*
X128440513Y-100943972D01*
X128490099Y-100950500D01*
X128909900Y-100950499D01*
X128959487Y-100943972D01*
X129068316Y-100893224D01*
X129153224Y-100808316D01*
X129153224Y-100808313D01*
X129162043Y-100799496D01*
X129216560Y-100771719D01*
X129232047Y-100770500D01*
X129267953Y-100770500D01*
X129326144Y-100789407D01*
X129337957Y-100799496D01*
X129346775Y-100808314D01*
X129346776Y-100808316D01*
X129431684Y-100893224D01*
X129540513Y-100943972D01*
X129590099Y-100950500D01*
X130009900Y-100950499D01*
X130059487Y-100943972D01*
X130168316Y-100893224D01*
X130253224Y-100808316D01*
X130253224Y-100808313D01*
X130262043Y-100799496D01*
X130316560Y-100771719D01*
X130332047Y-100770500D01*
X130367953Y-100770500D01*
X130426144Y-100789407D01*
X130437957Y-100799496D01*
X130446775Y-100808314D01*
X130446776Y-100808316D01*
X130531684Y-100893224D01*
X130640513Y-100943972D01*
X130690099Y-100950500D01*
X131109900Y-100950499D01*
X131159487Y-100943972D01*
X131268316Y-100893224D01*
X131353224Y-100808316D01*
X131403972Y-100699487D01*
X131410500Y-100649901D01*
X131410499Y-100395771D01*
X131413128Y-100373107D01*
X131417155Y-100355982D01*
X131417157Y-100355980D01*
X131423672Y-100328277D01*
X131427723Y-100315200D01*
X131432363Y-100303224D01*
X131438000Y-100288673D01*
X131438000Y-100278848D01*
X131440630Y-100256180D01*
X131442879Y-100246618D01*
X131438949Y-100218452D01*
X131437999Y-100204771D01*
X131437999Y-100035861D01*
X131437999Y-99920795D01*
X131456906Y-99862607D01*
X131492051Y-99832591D01*
X131605751Y-99774658D01*
X131699658Y-99680751D01*
X131759951Y-99562420D01*
X131775500Y-99464246D01*
X131775500Y-98635754D01*
X131759951Y-98537580D01*
X131699658Y-98419249D01*
X131605751Y-98325342D01*
X131487420Y-98265049D01*
X131487419Y-98265048D01*
X131487418Y-98265048D01*
X131389246Y-98249500D01*
X130885754Y-98249500D01*
X130787581Y-98265048D01*
X130669250Y-98325341D01*
X130575341Y-98419250D01*
X130515048Y-98537581D01*
X130499500Y-98635753D01*
X130499500Y-99464246D01*
X130515048Y-99562418D01*
X130515048Y-99562419D01*
X130515049Y-99562420D01*
X130575342Y-99680751D01*
X130669249Y-99774658D01*
X130724801Y-99802963D01*
X130768065Y-99846227D01*
X130777636Y-99906659D01*
X130749859Y-99961175D01*
X130695342Y-99988953D01*
X130690435Y-99989500D01*
X130690100Y-99989501D01*
X130688216Y-99989748D01*
X130688162Y-99989755D01*
X130640513Y-99996027D01*
X130531685Y-100046775D01*
X130531684Y-100046775D01*
X130531684Y-100046776D01*
X130446776Y-100131684D01*
X130446775Y-100131685D01*
X130437957Y-100140504D01*
X130383440Y-100168281D01*
X130367953Y-100169500D01*
X130332047Y-100169500D01*
X130273856Y-100150593D01*
X130262043Y-100140504D01*
X130253224Y-100131685D01*
X130253224Y-100131684D01*
X130168316Y-100046776D01*
X130168314Y-100046775D01*
X130168313Y-100046774D01*
X130059488Y-99996028D01*
X130013114Y-99989923D01*
X130009901Y-99989500D01*
X130006660Y-99989500D01*
X129593342Y-99989500D01*
X129593326Y-99989500D01*
X129590100Y-99989501D01*
X129586892Y-99989923D01*
X129586880Y-99989924D01*
X129540513Y-99996027D01*
X129431685Y-100046775D01*
X129431684Y-100046775D01*
X129431684Y-100046776D01*
X129346776Y-100131684D01*
X129346775Y-100131685D01*
X129337957Y-100140504D01*
X129283440Y-100168281D01*
X129267953Y-100169500D01*
X129232047Y-100169500D01*
X129173856Y-100150593D01*
X129162043Y-100140504D01*
X129153224Y-100131685D01*
X129153224Y-100131684D01*
X129083559Y-100062019D01*
X129055784Y-100007505D01*
X129065355Y-99947073D01*
X129078738Y-99927197D01*
X129125377Y-99873373D01*
X129185165Y-99742457D01*
X129205647Y-99600000D01*
X129185165Y-99457543D01*
X129125377Y-99326627D01*
X129031128Y-99217857D01*
X129031127Y-99217856D01*
X129031125Y-99217854D01*
X128910054Y-99140047D01*
X128818818Y-99113258D01*
X128768311Y-99078722D01*
X128747749Y-99021095D01*
X128764987Y-98962388D01*
X128776706Y-98948264D01*
X129695476Y-98029496D01*
X129749992Y-98001719D01*
X129765479Y-98000500D01*
X134034835Y-98000500D01*
X134050755Y-98003097D01*
X134057764Y-98002772D01*
X134057765Y-98002773D01*
X134104641Y-98000606D01*
X134109214Y-98000500D01*
X134127844Y-98000500D01*
X134127951Y-98000480D01*
X134141571Y-97998898D01*
X134169992Y-97997585D01*
X134178982Y-97993615D01*
X134200772Y-97986866D01*
X134210433Y-97985061D01*
X134234623Y-97970082D01*
X134246722Y-97963704D01*
X134272765Y-97952206D01*
X134279710Y-97945259D01*
X134297597Y-97931091D01*
X134305952Y-97925919D01*
X134323095Y-97903216D01*
X134332082Y-97892887D01*
X135266407Y-96958563D01*
X135279495Y-96949148D01*
X135284224Y-96943959D01*
X135284228Y-96943958D01*
X135315867Y-96909250D01*
X135318984Y-96905986D01*
X135332175Y-96892797D01*
X135332239Y-96892702D01*
X135340751Y-96881954D01*
X135359916Y-96860933D01*
X135363464Y-96851772D01*
X135374105Y-96831583D01*
X135379657Y-96823480D01*
X135386167Y-96795797D01*
X135390224Y-96782695D01*
X135400500Y-96756173D01*
X135400500Y-96746346D01*
X135403130Y-96723679D01*
X135405379Y-96714118D01*
X135401449Y-96685943D01*
X135400500Y-96672267D01*
X135400500Y-94365166D01*
X135403097Y-94349246D01*
X135400606Y-94295357D01*
X135400500Y-94290785D01*
X135400500Y-94272156D01*
X135400480Y-94272050D01*
X135398898Y-94258430D01*
X135397585Y-94230008D01*
X135393613Y-94221013D01*
X135386866Y-94199224D01*
X135385061Y-94189567D01*
X135370091Y-94165389D01*
X135363698Y-94153261D01*
X135352206Y-94127234D01*
X135345255Y-94120283D01*
X135331087Y-94102394D01*
X135325919Y-94094048D01*
X135303228Y-94076913D01*
X135292883Y-94067912D01*
X134658566Y-93433595D01*
X134649145Y-93420501D01*
X134609273Y-93384152D01*
X134605967Y-93380995D01*
X134592796Y-93367825D01*
X134592697Y-93367757D01*
X134581954Y-93359247D01*
X134560934Y-93340085D01*
X134560933Y-93340084D01*
X134551762Y-93336531D01*
X134531587Y-93325896D01*
X134523481Y-93320344D01*
X134498542Y-93314478D01*
X134495796Y-93313832D01*
X134482704Y-93309777D01*
X134456175Y-93299500D01*
X134456173Y-93299500D01*
X134446348Y-93299500D01*
X134423682Y-93296870D01*
X134414119Y-93294621D01*
X134414118Y-93294621D01*
X134385947Y-93298551D01*
X134372269Y-93299500D01*
X133249500Y-93299500D01*
X133191309Y-93280593D01*
X133155345Y-93231093D01*
X133150500Y-93200500D01*
X133150500Y-92480253D01*
X133143841Y-92446776D01*
X133138867Y-92421769D01*
X133121667Y-92396028D01*
X133094552Y-92355447D01*
X133028231Y-92311133D01*
X133027537Y-92310995D01*
X132969748Y-92299500D01*
X132730252Y-92299500D01*
X132669312Y-92311621D01*
X132630685Y-92311621D01*
X132606456Y-92306801D01*
X132569748Y-92299500D01*
X132330252Y-92299500D01*
X132269312Y-92311621D01*
X132230685Y-92311621D01*
X132206456Y-92306801D01*
X132169748Y-92299500D01*
X132169747Y-92299500D01*
X132049500Y-92299500D01*
X131991309Y-92280593D01*
X131955345Y-92231093D01*
X131950500Y-92200500D01*
X131950499Y-91794977D01*
X131969406Y-91736786D01*
X131979496Y-91724973D01*
X132064974Y-91639496D01*
X132119491Y-91611719D01*
X132134977Y-91610500D01*
X132265023Y-91610500D01*
X132323214Y-91629407D01*
X132335026Y-91639496D01*
X132377915Y-91682384D01*
X132419596Y-91724065D01*
X132526827Y-91774068D01*
X132575684Y-91780500D01*
X132578925Y-91780500D01*
X133021075Y-91780500D01*
X133024316Y-91780500D01*
X133073173Y-91774068D01*
X133180404Y-91724065D01*
X133243446Y-91661023D01*
X133264974Y-91639496D01*
X133319490Y-91611719D01*
X133334977Y-91610500D01*
X133824835Y-91610500D01*
X133840755Y-91613097D01*
X133847764Y-91612772D01*
X133847765Y-91612773D01*
X133894641Y-91610606D01*
X133899214Y-91610500D01*
X133917844Y-91610500D01*
X133917951Y-91610480D01*
X133931571Y-91608898D01*
X133959992Y-91607585D01*
X133968982Y-91603615D01*
X133990772Y-91596866D01*
X134000433Y-91595061D01*
X134024623Y-91580082D01*
X134036722Y-91573704D01*
X134062765Y-91562206D01*
X134069710Y-91555259D01*
X134087597Y-91541091D01*
X134095952Y-91535919D01*
X134113095Y-91513216D01*
X134122082Y-91502887D01*
X135186405Y-90438564D01*
X135199496Y-90429147D01*
X135204225Y-90423959D01*
X135204228Y-90423958D01*
X135235877Y-90389239D01*
X135238994Y-90385975D01*
X135252174Y-90372797D01*
X135252238Y-90372702D01*
X135260745Y-90361961D01*
X135279916Y-90340933D01*
X135283466Y-90331766D01*
X135294104Y-90311585D01*
X135299656Y-90303481D01*
X135306169Y-90275785D01*
X135310221Y-90262702D01*
X135320500Y-90236173D01*
X135320500Y-90226347D01*
X135323130Y-90203679D01*
X135325379Y-90194119D01*
X135321449Y-90165946D01*
X135320500Y-90152268D01*
X135320500Y-88580037D01*
X135339407Y-88521846D01*
X135388907Y-88485882D01*
X135390675Y-88485326D01*
X135423954Y-88475232D01*
X135606450Y-88377685D01*
X135766410Y-88246410D01*
X135897685Y-88086450D01*
X135995232Y-87903954D01*
X136055300Y-87705934D01*
X136075583Y-87500000D01*
X136055300Y-87294066D01*
X135995232Y-87096046D01*
X135897685Y-86913550D01*
X135766410Y-86753590D01*
X135606450Y-86622315D01*
X135423954Y-86524768D01*
X135423953Y-86524767D01*
X135423952Y-86524767D01*
X135225933Y-86464699D01*
X135019999Y-86444416D01*
X134814066Y-86464699D01*
X134616047Y-86524767D01*
X134433549Y-86622315D01*
X134273590Y-86753590D01*
X134142315Y-86913549D01*
X134044767Y-87096047D01*
X133984699Y-87294066D01*
X133964416Y-87499999D01*
X133984699Y-87705933D01*
X134044767Y-87903952D01*
X134044768Y-87903954D01*
X134142315Y-88086450D01*
X134273590Y-88246410D01*
X134433550Y-88377685D01*
X134616046Y-88475232D01*
X134649238Y-88485300D01*
X134699433Y-88520283D01*
X134719481Y-88578091D01*
X134719500Y-88580037D01*
X134719500Y-90014520D01*
X134700593Y-90072711D01*
X134690504Y-90084524D01*
X133794525Y-90980504D01*
X133740008Y-91008281D01*
X133724521Y-91009500D01*
X133334977Y-91009500D01*
X133276786Y-90990593D01*
X133264974Y-90980504D01*
X133180405Y-90895936D01*
X133180404Y-90895936D01*
X133180404Y-90895935D01*
X133167083Y-90889723D01*
X133122337Y-90847997D01*
X133110662Y-90787936D01*
X133136520Y-90732483D01*
X133167081Y-90710277D01*
X133180404Y-90704065D01*
X133264065Y-90620404D01*
X133314068Y-90513173D01*
X133320500Y-90464316D01*
X133320500Y-90115684D01*
X133314068Y-90066827D01*
X133264065Y-89959596D01*
X133180404Y-89875935D01*
X133180402Y-89875934D01*
X133180401Y-89875933D01*
X133157658Y-89865327D01*
X133112911Y-89823598D01*
X133100500Y-89775604D01*
X133100500Y-88396564D01*
X133119407Y-88338373D01*
X133136691Y-88320039D01*
X133226410Y-88246410D01*
X133357685Y-88086450D01*
X133455232Y-87903954D01*
X133515300Y-87705934D01*
X133535583Y-87500000D01*
X133515300Y-87294066D01*
X133455232Y-87096046D01*
X133357685Y-86913550D01*
X133226410Y-86753590D01*
X133066450Y-86622315D01*
X132883954Y-86524768D01*
X132883953Y-86524767D01*
X132883952Y-86524767D01*
X132685933Y-86464699D01*
X132480000Y-86444416D01*
X132274066Y-86464699D01*
X132076047Y-86524767D01*
X131893549Y-86622315D01*
X131733590Y-86753590D01*
X131602315Y-86913549D01*
X131504767Y-87096047D01*
X131444699Y-87294066D01*
X131424416Y-87500000D01*
X131444699Y-87705933D01*
X131504767Y-87903952D01*
X131504768Y-87903954D01*
X131602315Y-88086450D01*
X131733590Y-88246410D01*
X131893550Y-88377685D01*
X132076046Y-88475232D01*
X132274066Y-88535300D01*
X132410204Y-88548708D01*
X132466260Y-88573227D01*
X132497200Y-88626014D01*
X132499500Y-88647231D01*
X132499500Y-89775604D01*
X132480593Y-89833795D01*
X132442342Y-89865327D01*
X132419598Y-89875933D01*
X132335933Y-89959598D01*
X132289724Y-90058694D01*
X132247996Y-90103442D01*
X132187935Y-90115117D01*
X132132482Y-90089259D01*
X132110276Y-90058694D01*
X132064066Y-89959598D01*
X132064065Y-89959597D01*
X132064065Y-89959596D01*
X131980404Y-89875935D01*
X131980402Y-89875934D01*
X131980401Y-89875933D01*
X131873174Y-89825932D01*
X131827529Y-89819923D01*
X131824316Y-89819500D01*
X131375684Y-89819500D01*
X131372471Y-89819922D01*
X131372470Y-89819923D01*
X131326825Y-89825932D01*
X131219596Y-89875934D01*
X131135026Y-89960504D01*
X131080510Y-89988281D01*
X131065023Y-89989500D01*
X128640548Y-89989500D01*
X128582357Y-89970593D01*
X128550495Y-89931627D01*
X128525377Y-89876628D01*
X128525377Y-89876627D01*
X128431128Y-89767857D01*
X128431127Y-89767856D01*
X128431125Y-89767854D01*
X128310054Y-89690047D01*
X128171961Y-89649500D01*
X128028039Y-89649500D01*
X127889945Y-89690047D01*
X127768871Y-89767856D01*
X127745065Y-89795331D01*
X127692669Y-89826927D01*
X127670246Y-89829500D01*
X126099500Y-89829500D01*
X126041309Y-89810593D01*
X126005345Y-89761093D01*
X126000500Y-89730500D01*
X126000500Y-89613241D01*
X126000499Y-89613229D01*
X126000499Y-88369748D01*
X126349500Y-88369748D01*
X126354834Y-88396564D01*
X126361133Y-88428231D01*
X126405447Y-88494552D01*
X126444281Y-88520500D01*
X126471769Y-88538867D01*
X126530252Y-88550500D01*
X126530253Y-88550500D01*
X128269747Y-88550500D01*
X128269748Y-88550500D01*
X128328231Y-88538867D01*
X128394552Y-88494552D01*
X128438867Y-88428231D01*
X128450500Y-88369748D01*
X128450500Y-86630252D01*
X128438867Y-86571769D01*
X128424162Y-86549762D01*
X128394552Y-86505447D01*
X128328231Y-86461133D01*
X128293562Y-86454237D01*
X128269748Y-86449500D01*
X126530252Y-86449500D01*
X126506438Y-86454237D01*
X126471768Y-86461133D01*
X126405447Y-86505447D01*
X126361133Y-86571768D01*
X126361132Y-86571769D01*
X126361133Y-86571769D01*
X126349500Y-86630252D01*
X126349500Y-88369748D01*
X126000499Y-88369748D01*
X126000500Y-86199500D01*
X126019407Y-86141309D01*
X126068907Y-86105345D01*
X126099500Y-86100500D01*
X136300500Y-86100500D01*
X136358691Y-86119407D01*
G37*
%TD.AperFunction*%
%TA.AperFunction,Conductor*%
G36*
X102395444Y-97526268D02*
G01*
X102438709Y-97569533D01*
X102449499Y-97614478D01*
X102449500Y-99895500D01*
X102430593Y-99953691D01*
X102381093Y-99989655D01*
X102350500Y-99994500D01*
X101970252Y-99994500D01*
X101941010Y-100000316D01*
X101911768Y-100006133D01*
X101845447Y-100050447D01*
X101801133Y-100116768D01*
X101789499Y-100175253D01*
X101789499Y-101484746D01*
X101801133Y-101543231D01*
X101845447Y-101609552D01*
X101865764Y-101623127D01*
X101911769Y-101653867D01*
X101970252Y-101665500D01*
X101970253Y-101665500D01*
X102619747Y-101665500D01*
X102619748Y-101665500D01*
X102637131Y-101662042D01*
X102697890Y-101669231D01*
X102742822Y-101710763D01*
X102743323Y-101711670D01*
X102755956Y-101734805D01*
X102791009Y-101781629D01*
X102834878Y-101825498D01*
X102862654Y-101880013D01*
X102853083Y-101940445D01*
X102809818Y-101983710D01*
X102764873Y-101994500D01*
X101451362Y-101994500D01*
X101450092Y-101994568D01*
X101450057Y-101994569D01*
X101430709Y-101995607D01*
X101430692Y-101995608D01*
X101429393Y-101995678D01*
X101428114Y-101995815D01*
X101428058Y-101995820D01*
X101403037Y-101998511D01*
X101326519Y-102022470D01*
X101265196Y-102055954D01*
X101218371Y-102091007D01*
X100891944Y-102417433D01*
X100891907Y-102417471D01*
X100891004Y-102418375D01*
X100890140Y-102419336D01*
X100890118Y-102419360D01*
X100877191Y-102433751D01*
X100877176Y-102433768D01*
X100876298Y-102434746D01*
X100875492Y-102435745D01*
X100875476Y-102435765D01*
X100859668Y-102455384D01*
X100822510Y-102526422D01*
X100802824Y-102593464D01*
X100794500Y-102651359D01*
X100794500Y-103273872D01*
X100775593Y-103332063D01*
X100765504Y-103343876D01*
X100743876Y-103365504D01*
X100689359Y-103393281D01*
X100673872Y-103394500D01*
X98351362Y-103394500D01*
X98350092Y-103394568D01*
X98350057Y-103394569D01*
X98330709Y-103395607D01*
X98330692Y-103395608D01*
X98329393Y-103395678D01*
X98328114Y-103395815D01*
X98328058Y-103395820D01*
X98303037Y-103398511D01*
X98226517Y-103422471D01*
X98165193Y-103455956D01*
X98118371Y-103491008D01*
X97791949Y-103817429D01*
X97791912Y-103817467D01*
X97791009Y-103818371D01*
X97790145Y-103819332D01*
X97790124Y-103819355D01*
X97777203Y-103833739D01*
X97777178Y-103833768D01*
X97776307Y-103834738D01*
X97775495Y-103835745D01*
X97775470Y-103835775D01*
X97759671Y-103855381D01*
X97722510Y-103926424D01*
X97702825Y-103993460D01*
X97694500Y-104051360D01*
X97694500Y-104973872D01*
X97675593Y-105032063D01*
X97665504Y-105043875D01*
X97443877Y-105265503D01*
X97389360Y-105293281D01*
X97373873Y-105294500D01*
X96551362Y-105294500D01*
X96550092Y-105294568D01*
X96550057Y-105294569D01*
X96530709Y-105295607D01*
X96530692Y-105295608D01*
X96529393Y-105295678D01*
X96528114Y-105295815D01*
X96528058Y-105295820D01*
X96503037Y-105298511D01*
X96426519Y-105322470D01*
X96365196Y-105355954D01*
X96318375Y-105391004D01*
X95691926Y-106017452D01*
X95691907Y-106017471D01*
X95691004Y-106018375D01*
X95690140Y-106019336D01*
X95690118Y-106019360D01*
X95677191Y-106033751D01*
X95677176Y-106033768D01*
X95676298Y-106034746D01*
X95675492Y-106035745D01*
X95675476Y-106035765D01*
X95659668Y-106055384D01*
X95622510Y-106126422D01*
X95612667Y-106159943D01*
X95602825Y-106193463D01*
X95600892Y-106206907D01*
X95595497Y-106244430D01*
X95594500Y-106251361D01*
X95594500Y-108333637D01*
X95594761Y-108336168D01*
X95594762Y-108336180D01*
X95598573Y-108373086D01*
X95598836Y-108375630D01*
X95599355Y-108378119D01*
X95599357Y-108378128D01*
X95609192Y-108425239D01*
X95609426Y-108426277D01*
X95611156Y-108433756D01*
X95643804Y-108497584D01*
X95652810Y-108515191D01*
X95675240Y-108541973D01*
X95697672Y-108568758D01*
X95741223Y-108607795D01*
X95756720Y-108618126D01*
X95794651Y-108666136D01*
X95797117Y-108727272D01*
X95763178Y-108778182D01*
X95705797Y-108799420D01*
X95701806Y-108799500D01*
X95451187Y-108799500D01*
X95392996Y-108780593D01*
X95371534Y-108759291D01*
X92419847Y-104760230D01*
X92400503Y-104702183D01*
X92400500Y-104701439D01*
X92400500Y-99099500D01*
X92419407Y-99041309D01*
X92468907Y-99005345D01*
X92499500Y-99000500D01*
X94157725Y-99000500D01*
X94215916Y-99019407D01*
X94251880Y-99068907D01*
X94253352Y-99125123D01*
X94174970Y-99417649D01*
X93862292Y-100584579D01*
X93859165Y-100632281D01*
X93858392Y-100644080D01*
X93884032Y-100719611D01*
X93936623Y-100779581D01*
X93990100Y-100805953D01*
X93990102Y-100805953D01*
X93990103Y-100805954D01*
X95477142Y-101204405D01*
X95536643Y-101208305D01*
X95612174Y-101182665D01*
X95644155Y-101154618D01*
X95700372Y-101130465D01*
X95760049Y-101143969D01*
X95800391Y-101189970D01*
X95805990Y-101250899D01*
X95805062Y-101254653D01*
X95751854Y-101453232D01*
X95747954Y-101512733D01*
X95773593Y-101588264D01*
X95826185Y-101648234D01*
X95826186Y-101648235D01*
X95879661Y-101674606D01*
X95879663Y-101674606D01*
X95879664Y-101674607D01*
X96787148Y-101917766D01*
X96846649Y-101921666D01*
X96922180Y-101896027D01*
X96982150Y-101843435D01*
X97008523Y-101789956D01*
X97251682Y-100882472D01*
X97255582Y-100822971D01*
X97229943Y-100747440D01*
X97177351Y-100687470D01*
X97177350Y-100687469D01*
X97177349Y-100687468D01*
X97123874Y-100661097D01*
X96556759Y-100509140D01*
X96216388Y-100417938D01*
X96156887Y-100414038D01*
X96081355Y-100439677D01*
X96049372Y-100467725D01*
X95993155Y-100491876D01*
X95933479Y-100478371D01*
X95893138Y-100432368D01*
X95887541Y-100371440D01*
X95888459Y-100367720D01*
X96020496Y-99874953D01*
X96027565Y-99848571D01*
X96060889Y-99797256D01*
X96118011Y-99775330D01*
X96123192Y-99775194D01*
X99860141Y-99775194D01*
X99876061Y-99777791D01*
X99883070Y-99777466D01*
X99883071Y-99777467D01*
X99929947Y-99775300D01*
X99934520Y-99775194D01*
X99953150Y-99775194D01*
X99953257Y-99775174D01*
X99966877Y-99773592D01*
X99995298Y-99772279D01*
X100004288Y-99768309D01*
X100026078Y-99761560D01*
X100035739Y-99759755D01*
X100059929Y-99744776D01*
X100072028Y-99738398D01*
X100098071Y-99726900D01*
X100105016Y-99719953D01*
X100122903Y-99705785D01*
X100131258Y-99700613D01*
X100148401Y-99677910D01*
X100157388Y-99667581D01*
X102280497Y-97544472D01*
X102335012Y-97516697D01*
X102395444Y-97526268D01*
G37*
%TD.AperFunction*%
%TA.AperFunction,Conductor*%
G36*
X125622712Y-90849407D02*
G01*
X125634525Y-90859496D01*
X127550503Y-92775474D01*
X127578280Y-92829991D01*
X127579499Y-92845478D01*
X127579499Y-93071075D01*
X127579499Y-93071090D01*
X127579500Y-93074316D01*
X127579923Y-93077529D01*
X127585932Y-93123174D01*
X127635933Y-93230401D01*
X127635934Y-93230402D01*
X127635935Y-93230404D01*
X127719596Y-93314065D01*
X127826827Y-93364068D01*
X127875684Y-93370500D01*
X127878925Y-93370500D01*
X128321075Y-93370500D01*
X128324316Y-93370500D01*
X128373173Y-93364068D01*
X128480404Y-93314065D01*
X128538968Y-93255501D01*
X128564974Y-93229496D01*
X128619490Y-93201719D01*
X128634977Y-93200500D01*
X128747953Y-93200500D01*
X128806144Y-93219407D01*
X128817950Y-93229490D01*
X128881684Y-93293224D01*
X128881685Y-93293224D01*
X128881686Y-93293225D01*
X128925878Y-93313832D01*
X128990513Y-93343972D01*
X129040099Y-93350500D01*
X129459900Y-93350499D01*
X129509487Y-93343972D01*
X129618316Y-93293224D01*
X129682045Y-93229494D01*
X129736560Y-93201719D01*
X129752047Y-93200500D01*
X129923765Y-93200500D01*
X129981956Y-93219407D01*
X130017920Y-93268907D01*
X130017920Y-93330093D01*
X130006080Y-93354502D01*
X129961133Y-93421768D01*
X129949499Y-93480253D01*
X129949500Y-93719748D01*
X129961621Y-93780687D01*
X129961621Y-93819313D01*
X129949500Y-93880251D01*
X129949499Y-94119746D01*
X129961133Y-94178231D01*
X130005447Y-94244552D01*
X130026189Y-94258411D01*
X130071769Y-94288867D01*
X130130252Y-94300500D01*
X130130253Y-94300500D01*
X130969747Y-94300500D01*
X130969748Y-94300500D01*
X131028231Y-94288867D01*
X131094552Y-94244552D01*
X131138867Y-94178231D01*
X131150500Y-94119748D01*
X131150500Y-93880252D01*
X131138867Y-93821769D01*
X131138865Y-93821766D01*
X131138378Y-93819316D01*
X131138378Y-93780687D01*
X131139840Y-93773340D01*
X131150500Y-93719748D01*
X131150500Y-93599500D01*
X131169407Y-93541309D01*
X131218907Y-93505345D01*
X131249500Y-93500500D01*
X131369746Y-93500500D01*
X131369748Y-93500500D01*
X131428231Y-93488867D01*
X131428233Y-93488865D01*
X131430684Y-93488378D01*
X131469313Y-93488378D01*
X131471768Y-93488866D01*
X131471769Y-93488867D01*
X131530252Y-93500500D01*
X131530253Y-93500500D01*
X131769746Y-93500500D01*
X131769748Y-93500500D01*
X131828231Y-93488867D01*
X131828233Y-93488865D01*
X131830684Y-93488378D01*
X131869313Y-93488378D01*
X131871768Y-93488866D01*
X131871769Y-93488867D01*
X131930252Y-93500500D01*
X131930253Y-93500500D01*
X132169746Y-93500500D01*
X132169748Y-93500500D01*
X132228231Y-93488867D01*
X132228233Y-93488865D01*
X132230684Y-93488378D01*
X132269313Y-93488378D01*
X132271768Y-93488866D01*
X132271769Y-93488867D01*
X132330252Y-93500500D01*
X132330253Y-93500500D01*
X132569746Y-93500500D01*
X132569748Y-93500500D01*
X132628231Y-93488867D01*
X132628233Y-93488865D01*
X132630684Y-93488378D01*
X132669313Y-93488378D01*
X132671768Y-93488866D01*
X132671769Y-93488867D01*
X132730252Y-93500500D01*
X132850500Y-93500500D01*
X132908691Y-93519407D01*
X132944655Y-93568907D01*
X132949500Y-93599499D01*
X132949500Y-93719748D01*
X132953814Y-93741438D01*
X132961621Y-93780685D01*
X132961621Y-93819312D01*
X132949500Y-93880251D01*
X132949500Y-94119748D01*
X132961621Y-94180687D01*
X132961621Y-94219313D01*
X132953844Y-94258411D01*
X132949500Y-94280252D01*
X132949500Y-94519748D01*
X132952864Y-94536661D01*
X132961621Y-94580685D01*
X132961621Y-94619312D01*
X132949500Y-94680251D01*
X132949500Y-94919748D01*
X132961621Y-94980687D01*
X132961621Y-95019313D01*
X132949500Y-95080251D01*
X132949500Y-95200500D01*
X132930593Y-95258691D01*
X132881093Y-95294655D01*
X132850500Y-95299500D01*
X132730252Y-95299500D01*
X132669313Y-95311621D01*
X132630687Y-95311621D01*
X132569748Y-95299500D01*
X132330252Y-95299500D01*
X132269313Y-95311621D01*
X132230687Y-95311621D01*
X132169748Y-95299500D01*
X131930252Y-95299500D01*
X131869313Y-95311621D01*
X131830687Y-95311621D01*
X131769748Y-95299500D01*
X131530252Y-95299500D01*
X131469313Y-95311621D01*
X131430687Y-95311621D01*
X131369748Y-95299500D01*
X131249500Y-95299500D01*
X131191309Y-95280593D01*
X131155345Y-95231093D01*
X131150500Y-95200500D01*
X131150500Y-95080254D01*
X131150500Y-95080252D01*
X131138867Y-95021769D01*
X131138865Y-95021766D01*
X131138378Y-95019316D01*
X131138378Y-94980687D01*
X131143300Y-94955946D01*
X131150500Y-94919748D01*
X131150500Y-94680252D01*
X131138867Y-94621769D01*
X131111415Y-94580685D01*
X131094552Y-94555447D01*
X131028231Y-94511133D01*
X130983593Y-94502254D01*
X130969748Y-94499500D01*
X130969747Y-94499500D01*
X129652047Y-94499500D01*
X129593856Y-94480593D01*
X129582049Y-94470509D01*
X129568316Y-94456776D01*
X129568314Y-94456775D01*
X129568313Y-94456774D01*
X129459488Y-94406028D01*
X129413114Y-94399923D01*
X129409901Y-94399500D01*
X129406660Y-94399500D01*
X128993342Y-94399500D01*
X128993326Y-94399500D01*
X128990100Y-94399501D01*
X128986892Y-94399923D01*
X128986880Y-94399924D01*
X128940513Y-94406027D01*
X128831685Y-94456775D01*
X128770002Y-94518457D01*
X128715485Y-94546233D01*
X128655053Y-94536661D01*
X128629998Y-94518458D01*
X128568316Y-94456776D01*
X128568314Y-94456775D01*
X128568313Y-94456774D01*
X128459488Y-94406028D01*
X128413114Y-94399923D01*
X128409901Y-94399500D01*
X128406660Y-94399500D01*
X127993342Y-94399500D01*
X127993326Y-94399500D01*
X127990100Y-94399501D01*
X127986892Y-94399923D01*
X127986880Y-94399924D01*
X127940512Y-94406027D01*
X127816197Y-94463997D01*
X127755468Y-94471454D01*
X127701954Y-94441791D01*
X127699552Y-94439120D01*
X127681128Y-94417857D01*
X127681127Y-94417856D01*
X127681125Y-94417854D01*
X127560054Y-94340047D01*
X127421961Y-94299500D01*
X127278039Y-94299500D01*
X127139947Y-94340046D01*
X127065245Y-94388054D01*
X127006069Y-94403607D01*
X126949053Y-94381408D01*
X126921999Y-94346610D01*
X126914065Y-94329596D01*
X126830404Y-94245935D01*
X126817085Y-94239724D01*
X126817083Y-94239723D01*
X126772336Y-94197993D01*
X126760662Y-94137932D01*
X126786521Y-94082480D01*
X126817082Y-94060276D01*
X126830404Y-94054065D01*
X126914065Y-93970404D01*
X126964068Y-93863173D01*
X126970500Y-93814316D01*
X126970500Y-93465684D01*
X126964068Y-93416827D01*
X126928282Y-93340084D01*
X126914066Y-93309598D01*
X126914065Y-93309597D01*
X126914065Y-93309596D01*
X126830404Y-93225935D01*
X126830402Y-93225934D01*
X126830401Y-93225933D01*
X126723174Y-93175932D01*
X126677529Y-93169923D01*
X126674316Y-93169500D01*
X126225684Y-93169500D01*
X126222471Y-93169922D01*
X126222470Y-93169923D01*
X126176825Y-93175932D01*
X126069596Y-93225934D01*
X126025026Y-93270504D01*
X125970509Y-93298281D01*
X125955023Y-93299500D01*
X125627017Y-93299500D01*
X125568826Y-93280593D01*
X125544702Y-93255502D01*
X125535907Y-93242340D01*
X125494552Y-93180448D01*
X125494254Y-93180002D01*
X125477645Y-93121114D01*
X125494254Y-93069998D01*
X125515680Y-93037932D01*
X125538867Y-93003231D01*
X125550500Y-92944748D01*
X125550500Y-92355252D01*
X125538867Y-92296769D01*
X125513424Y-92258691D01*
X125494552Y-92230447D01*
X125428231Y-92186133D01*
X125415019Y-92183505D01*
X125369748Y-92174500D01*
X125369747Y-92174500D01*
X124339500Y-92174500D01*
X124281309Y-92155593D01*
X124245345Y-92106093D01*
X124240500Y-92075500D01*
X124240500Y-91684976D01*
X124259407Y-91626785D01*
X124269496Y-91614972D01*
X124270402Y-91614065D01*
X124270404Y-91614065D01*
X124354065Y-91530404D01*
X124404068Y-91423173D01*
X124410500Y-91374316D01*
X124410500Y-90929499D01*
X124429407Y-90871309D01*
X124478907Y-90835345D01*
X124509500Y-90830500D01*
X125564521Y-90830500D01*
X125622712Y-90849407D01*
G37*
%TD.AperFunction*%
%TA.AperFunction,Conductor*%
G36*
X121431174Y-93919407D02*
G01*
X121455298Y-93944498D01*
X121505447Y-94019552D01*
X121549761Y-94049162D01*
X121571769Y-94063867D01*
X121630252Y-94075500D01*
X122750500Y-94075500D01*
X122808691Y-94094407D01*
X122844655Y-94143907D01*
X122849500Y-94174500D01*
X122849499Y-95011982D01*
X122830592Y-95070173D01*
X122804024Y-95095265D01*
X122768872Y-95117856D01*
X122674623Y-95226626D01*
X122614834Y-95357544D01*
X122594352Y-95499999D01*
X122614834Y-95642455D01*
X122614835Y-95642457D01*
X122674623Y-95773373D01*
X122768872Y-95882143D01*
X122768874Y-95882145D01*
X122889945Y-95959952D01*
X122889947Y-95959953D01*
X123028039Y-96000500D01*
X123171961Y-96000500D01*
X123310053Y-95959953D01*
X123431128Y-95882143D01*
X123525377Y-95773373D01*
X123585165Y-95642457D01*
X123605647Y-95500000D01*
X123602783Y-95480076D01*
X123585165Y-95357542D01*
X123525378Y-95226627D01*
X123474680Y-95168118D01*
X123450862Y-95111759D01*
X123450499Y-95103309D01*
X123450499Y-94714475D01*
X123469406Y-94656286D01*
X123518906Y-94620322D01*
X123580092Y-94620322D01*
X123619499Y-94644470D01*
X123691437Y-94716408D01*
X123700859Y-94729503D01*
X123740726Y-94765847D01*
X123744031Y-94769003D01*
X123757201Y-94782173D01*
X123757295Y-94782237D01*
X123768039Y-94790746D01*
X123789067Y-94809916D01*
X123798230Y-94813465D01*
X123818413Y-94824103D01*
X123826519Y-94829656D01*
X123854211Y-94836169D01*
X123867298Y-94840222D01*
X123893827Y-94850500D01*
X123907932Y-94855965D01*
X123954481Y-94893276D01*
X124005447Y-94969552D01*
X124049761Y-94999162D01*
X124071769Y-95013867D01*
X124130252Y-95025500D01*
X124130253Y-95025500D01*
X125369747Y-95025500D01*
X125369748Y-95025500D01*
X125428231Y-95013867D01*
X125494552Y-94969552D01*
X125538867Y-94903231D01*
X125550500Y-94844748D01*
X125550500Y-94255252D01*
X125538867Y-94196769D01*
X125494552Y-94130448D01*
X125494254Y-94130002D01*
X125477645Y-94071114D01*
X125494254Y-94019998D01*
X125498226Y-94014053D01*
X125538867Y-93953231D01*
X125538867Y-93953230D01*
X125544702Y-93944498D01*
X125592752Y-93906619D01*
X125627017Y-93900500D01*
X125890268Y-93900500D01*
X125948459Y-93919407D01*
X125979992Y-93957660D01*
X125985933Y-93970401D01*
X125985934Y-93970402D01*
X125985935Y-93970404D01*
X126069596Y-94054065D01*
X126069597Y-94054065D01*
X126069598Y-94054066D01*
X126082915Y-94060276D01*
X126127663Y-94102004D01*
X126139337Y-94162066D01*
X126113479Y-94217518D01*
X126082915Y-94239724D01*
X126069598Y-94245933D01*
X125985933Y-94329598D01*
X125935932Y-94436825D01*
X125930589Y-94477410D01*
X125929500Y-94485684D01*
X125929500Y-94834316D01*
X125929923Y-94837529D01*
X125935932Y-94883174D01*
X125985933Y-94990401D01*
X125985934Y-94990402D01*
X125985935Y-94990404D01*
X126069596Y-95074065D01*
X126092340Y-95084670D01*
X126137086Y-95126397D01*
X126149499Y-95174394D01*
X126149499Y-95294834D01*
X126146902Y-95310757D01*
X126149394Y-95364641D01*
X126149500Y-95369213D01*
X126149500Y-95387845D01*
X126149521Y-95387958D01*
X126151101Y-95401578D01*
X126152414Y-95429991D01*
X126156384Y-95438982D01*
X126163132Y-95460773D01*
X126164938Y-95470432D01*
X126179911Y-95494616D01*
X126186300Y-95506736D01*
X126197794Y-95532765D01*
X126197795Y-95532766D01*
X126204743Y-95539715D01*
X126218910Y-95557600D01*
X126224081Y-95565953D01*
X126246772Y-95583087D01*
X126257117Y-95592088D01*
X126731436Y-96066407D01*
X126740857Y-96079501D01*
X126780726Y-96115847D01*
X126784030Y-96119001D01*
X126795524Y-96130495D01*
X126823302Y-96185009D01*
X126813734Y-96245441D01*
X126770471Y-96288708D01*
X126725522Y-96299500D01*
X121315479Y-96299500D01*
X121257288Y-96280593D01*
X121245475Y-96270504D01*
X120279496Y-95304525D01*
X120251719Y-95250008D01*
X120250500Y-95234521D01*
X120250500Y-94073928D01*
X120269407Y-94015737D01*
X120318907Y-93979773D01*
X120380093Y-93979773D01*
X120391333Y-93984201D01*
X120476827Y-94024068D01*
X120525684Y-94030500D01*
X120528925Y-94030500D01*
X120971075Y-94030500D01*
X120974316Y-94030500D01*
X121023173Y-94024068D01*
X121130404Y-93974065D01*
X121160643Y-93943826D01*
X121174974Y-93929496D01*
X121229491Y-93901719D01*
X121244977Y-93900500D01*
X121372983Y-93900500D01*
X121431174Y-93919407D01*
G37*
%TD.AperFunction*%
%TA.AperFunction,Conductor*%
G36*
X131123214Y-90609407D02*
G01*
X131135026Y-90619496D01*
X131219596Y-90704065D01*
X131232915Y-90710276D01*
X131277663Y-90752004D01*
X131289337Y-90812066D01*
X131263479Y-90867518D01*
X131232915Y-90889724D01*
X131219598Y-90895933D01*
X131135933Y-90979598D01*
X131085932Y-91086825D01*
X131085931Y-91086827D01*
X131085932Y-91086827D01*
X131079500Y-91135684D01*
X131079500Y-91484316D01*
X131079923Y-91487529D01*
X131085932Y-91533174D01*
X131135933Y-91640401D01*
X131135934Y-91640402D01*
X131135935Y-91640404D01*
X131219596Y-91724065D01*
X131249499Y-91738009D01*
X131292339Y-91757986D01*
X131337087Y-91799714D01*
X131349499Y-91847710D01*
X131349500Y-92200500D01*
X131330593Y-92258691D01*
X131281093Y-92294655D01*
X131250500Y-92299500D01*
X131130252Y-92299500D01*
X131101010Y-92305316D01*
X131071768Y-92311133D01*
X131005447Y-92355447D01*
X130961133Y-92421768D01*
X130949499Y-92480253D01*
X130949500Y-92500500D01*
X130930593Y-92558691D01*
X130881093Y-92594655D01*
X130850500Y-92599500D01*
X129797917Y-92599500D01*
X129739726Y-92580593D01*
X129708193Y-92542339D01*
X129703225Y-92531686D01*
X129703224Y-92531685D01*
X129703224Y-92531684D01*
X129618316Y-92446776D01*
X129618314Y-92446775D01*
X129618313Y-92446774D01*
X129509488Y-92396028D01*
X129463114Y-92389923D01*
X129459901Y-92389500D01*
X129456660Y-92389500D01*
X129043342Y-92389500D01*
X129043326Y-92389500D01*
X129040100Y-92389501D01*
X129036892Y-92389923D01*
X129036880Y-92389924D01*
X128990513Y-92396027D01*
X128881685Y-92446775D01*
X128796774Y-92531686D01*
X128791807Y-92542339D01*
X128750079Y-92587087D01*
X128702083Y-92599500D01*
X128634977Y-92599500D01*
X128576786Y-92580593D01*
X128564974Y-92570504D01*
X128480405Y-92485936D01*
X128480404Y-92485935D01*
X128467083Y-92479723D01*
X128422337Y-92437997D01*
X128410662Y-92377936D01*
X128436520Y-92322483D01*
X128467081Y-92300277D01*
X128480404Y-92294065D01*
X128564065Y-92210404D01*
X128614068Y-92103173D01*
X128620500Y-92054316D01*
X128620500Y-91705684D01*
X128614068Y-91656827D01*
X128573146Y-91569070D01*
X128564066Y-91549598D01*
X128564065Y-91549597D01*
X128564065Y-91549596D01*
X128480404Y-91465935D01*
X128480402Y-91465934D01*
X128480401Y-91465933D01*
X128457658Y-91455327D01*
X128412911Y-91413598D01*
X128400500Y-91365604D01*
X128400500Y-90689500D01*
X128419407Y-90631309D01*
X128468907Y-90595345D01*
X128499500Y-90590500D01*
X131065023Y-90590500D01*
X131123214Y-90609407D01*
G37*
%TD.AperFunction*%
%TD*%
M02*
