M48
; DRILL file {KiCad 7.0.2} date Wed Aug 30 02:12:15 2023
; FORMAT={-:-/ absolute / inch / decimal}
; #@! TF.CreationDate,2023-08-30T02:12:15+03:00
; #@! TF.GenerationSoftware,Kicad,Pcbnew,7.0.2
; #@! TF.FileFunction,Plated,1,2,PTH
FMAT,2
INCH
; #@! TA.AperFunction,Plated,PTH,ViaDrill
T1C0.0118
; #@! TA.AperFunction,Plated,PTH,ComponentDrill
T2C0.0394
; #@! TA.AperFunction,Plated,PTH,ComponentDrill
T3C0.0472
%
G90
G05
T1
X3.6713Y-4.0453
X3.6713Y-4.0945
X3.7205Y-4.0453
X3.7795Y-4.0453
X3.8386Y-4.0453
X3.8976Y-4.0453
X4.0256Y-3.5236
X4.0846Y-3.5236
X4.0846Y-3.5728
X4.0846Y-3.622
X4.1437Y-3.5236
X4.2028Y-3.5236
X4.2421Y-3.6319
X4.3012Y-3.6319
X4.3602Y-3.6319
X4.4193Y-3.6319
X4.4783Y-3.6319
X4.4882Y-3.9272
X4.4882Y-3.9862
X4.4882Y-4.0453
X4.4882Y-4.1043
X4.4882Y-4.1634
X4.4882Y-4.2224
X4.526Y-3.6673
X4.5472Y-3.9272
X4.5472Y-3.9862
X4.5472Y-4.0453
X4.5472Y-4.1043
X4.5472Y-4.1634
X4.5472Y-4.2224
X4.6161Y-3.435
X4.6161Y-3.4843
X4.6752Y-3.435
X4.6752Y-3.4843
X4.7933Y-3.7697
X4.8465Y-3.7598
X4.9409Y-3.7697
X4.9606Y-3.6122
X4.9606Y-3.6516
X4.9902Y-3.6516
X5.0138Y-3.7323
X5.0433Y-3.5492
X5.0669Y-3.9213
X5.0748Y-4.1575
X5.0827Y-4.063
X5.0906Y-4.4016
X5.128Y-3.6319
X5.1811Y-3.7008
X5.1811Y-3.7323
X5.2165Y-3.7008
X5.2165Y-3.7323
X5.2559Y-3.6319
X5.3012Y-4.126
X5.3051Y-4.0059
T2
X5.0157Y-3.4449
X5.1157Y-3.4449
X5.2157Y-3.4449
X5.3157Y-3.4449
T3
X4.9528Y-3.9024
X4.9528Y-4.1024
X4.9528Y-4.3024
T0
M30
